<?xml version="1.0" encoding="UTF-8" standalone="no"?>
<!-- Created with Inkscape (http://www.inkscape.org/) -->

<svg
   xmlns:dc="http://purl.org/dc/elements/1.1/"
   xmlns:cc="http://creativecommons.org/ns#"
   xmlns:rdf="http://www.w3.org/1999/02/22-rdf-syntax-ns#"
   xmlns:svg="http://www.w3.org/2000/svg"
   xmlns="http://www.w3.org/2000/svg"
   xmlns:sodipodi="http://sodipodi.sourceforge.net/DTD/sodipodi-0.dtd"
   xmlns:inkscape="http://www.inkscape.org/namespaces/inkscape"
   width="250.11629mm"
   height="172.23703mm"
   viewBox="0 0 250.11631 172.23704"
   version="1.1"
   id="svg12652"
   inkscape:version="0.92.5 (2060ec1f9f, 2020-04-08)"
   sodipodi:docname="circles_two.svg">
  <defs
     id="defs12646" />
  <sodipodi:namedview
     id="base"
     pagecolor="#ffffff"
     bordercolor="#666666"
     borderopacity="1.0"
     inkscape:pageopacity="0.0"
     inkscape:pageshadow="2"
     inkscape:zoom="0.35"
     inkscape:cx="604.63094"
     inkscape:cy="150.6258"
     inkscape:document-units="mm"
     inkscape:current-layer="g13108"
     showgrid="false"
     inkscape:window-width="1210"
     inkscape:window-height="1016"
     inkscape:window-x="710"
     inkscape:window-y="1107"
     inkscape:window-maximized="0" />
  <metadata
     id="metadata12649">
    <rdf:RDF>
      <cc:Work
         rdf:about="">
        <dc:format>image/svg+xml</dc:format>
        <dc:type
           rdf:resource="http://purl.org/dc/dcmitype/StillImage" />
        <dc:title></dc:title>
      </cc:Work>
    </rdf:RDF>
  </metadata>
  <g
     inkscape:label="Layer 1"
     inkscape:groupmode="layer"
     id="layer1"
     transform="translate(54.14194,-16.449426)">
    <g
       id="g12677"
       transform="matrix(7.1422275,0,0,7.1422275,-9.2102081,24.35058)">
      <g
         id="g12718"
         transform="matrix(0.07239319,0,0,0.07239319,-3.0905042,-3.852966)">
        <g
           id="g12759"
           transform="matrix(0.9976262,0,0,0.9976262,7.9696602,-2.3539829)">
          <g
             id="g12800"
             transform="matrix(5.3491048,0,0,5.3491048,40.611695,-289.72993)">
            <g
               id="g12782"
               transform="translate(-20.274298,50.411767)" />
            <g
               id="g12840"
               transform="matrix(0.08340627,0,0,0.08340627,-50.76575,38.206551)">
              <g
                 id="g12897"
                 transform="matrix(48.66352,0,0,48.66352,492.27015,267.37763)">
                <g
                   id="g12947"
                   transform="matrix(0.30851695,0,0,0.30851695,0.59272165,1.8170079)">
                  <g
                     id="g12988"
                     transform="matrix(0.14522106,0,0,0.14522106,-11.171931,-14.678001)">
                    <g
                       id="g13029"
                       transform="matrix(0.96423543,0,0,0.96423543,15.509735,9.0701753)">
                      <g
                         id="g13067"
                         transform="matrix(0.97526942,0,0,0.97526942,9.1915037,7.3698267)">
                        <g
                           style="clip-rule:evenodd;fill-rule:evenodd;image-rendering:optimizeQuality;shape-rendering:geometricPrecision;text-rendering:geometricPrecision"
                           id="g13108"
                           transform="matrix(17.668242,0,0,17.668242,-91.339017,-116.63537)">
                          <g
                             id="g13090">
                            <path
                               id="path13088"
                               d="M 9.91,19.26 C 9.91,18.17 9.65,17.35 9.1,16.8 9.09,16.79 9.08,16.78 9.06,16.76 7.58,18 6.47,19.27 5.83,20.46 5.22,21.61 5.05,22.7 5.42,23.61 c 0.28,0.67 0.84,1.2 1.61,1.58 0.41,-1.04 1.19,-2.14 2.28,-3.24 2.08,-2.09 5.28,-4.18 9.11,-5.77 v 0 c 3.83,-1.58 7.57,-2.37 10.52,-2.36 1.54,0.01 2.88,0.24 3.9,0.68 0.28,-0.81 0.29,-1.58 0.02,-2.25 0,0 -0.01,-0.01 -0.01,-0.01 C 32.21,10.69 30.1,9.91 27.22,9.9 24.29,9.88 20.59,10.66 16.78,12.24 v 0 c -1.04,0.43 -2.04,0.9 -2.98,1.4 -0.92,0.49 -1.78,1 -2.58,1.53 0.53,0.39 1.26,0.58 2.2,0.59 0.06,0 0.11,0.05 0.11,0.11 0,0.06 -0.05,0.11 -0.11,0.11 -1.11,0 -1.93,0.28 -2.48,0.82 -0.54,0.55 -0.81,1.37 -0.8,2.46 v 0 c 0,0.06 -0.05,0.11 -0.12,0.11 -0.06,0 -0.11,-0.05 -0.11,-0.11 z M 8.89,16.61 C 8.35,16.19 7.6,15.98 6.63,15.98 c -0.06,0 -0.11,-0.05 -0.11,-0.11 0,-0.07 0.05,-0.11 0.11,-0.11 1.11,-0.01 1.93,-0.28 2.47,-0.83 0.55,-0.54 0.81,-1.36 0.81,-2.45 v 0 c 0,-0.07 0.05,-0.12 0.11,-0.12 0.06,0 0.12,0.05 0.12,0.12 v 0 c -0.01,1.09 0.26,1.91 0.8,2.45 0.03,0.03 0.06,0.06 0.1,0.09 0.82,-0.55 1.71,-1.08 2.65,-1.58 0.95,-0.5 1.96,-0.97 3.01,-1.41 3.83,-1.59 7.57,-2.37 10.52,-2.36 2.98,0.01 5.16,0.84 5.84,2.49 v 0 c 0.31,0.73 0.28,1.56 -0.02,2.44 0.84,0.41 1.44,0.98 1.74,1.71 0.41,0.97 0.24,2.11 -0.4,3.32 -0.64,1.2 -1.75,2.48 -3.23,3.72 0.54,0.49 1.33,0.73 2.37,0.73 0.07,0 0.12,0.05 0.12,0.12 0,0.06 -0.05,0.11 -0.12,0.11 -1.1,0 -1.93,0.28 -2.47,0.82 -0.54,0.55 -0.81,1.37 -0.81,2.46 v 0 c 0,0.06 -0.05,0.11 -0.11,0.11 -0.06,0 -0.11,-0.05 -0.11,-0.11 v 0 c 0,-1.09 -0.27,-1.91 -0.81,-2.46 -0.06,-0.06 -0.13,-0.12 -0.2,-0.18 -0.83,0.55 -1.73,1.09 -2.68,1.6 -0.95,0.5 -1.97,0.98 -3.03,1.42 -3.83,1.59 -7.57,2.37 -10.52,2.36 C 9.8,30.32 7.62,29.49 6.94,27.84 v 0 C 6.63,27.11 6.66,26.28 6.96,25.4 6.12,24.99 5.52,24.42 5.22,23.69 4.81,22.71 4.99,21.57 5.63,20.35 6.28,19.14 7.4,17.86 8.89,16.61 Z m 2.08,-1.35 c -0.01,-0.01 -0.02,-0.02 -0.03,-0.02 -0.05,-0.05 -0.11,-0.1 -0.16,-0.15 -0.37,-0.38 -0.62,-0.87 -0.76,-1.47 -0.13,0.6 -0.38,1.09 -0.76,1.47 -0.38,0.38 -0.88,0.64 -1.5,0.78 0.55,0.12 1.01,0.34 1.37,0.65 0.01,0.01 0.01,0.01 0.02,0.02 0.04,0.03 0.08,0.07 0.11,0.1 0.38,0.38 0.63,0.87 0.76,1.48 0.14,-0.61 0.39,-1.1 0.76,-1.48 0.38,-0.38 0.88,-0.64 1.51,-0.77 -0.53,-0.12 -0.97,-0.32 -1.32,-0.61 z m 22,-0.45 c -0.41,1.04 -1.19,2.14 -2.28,3.24 -2.08,2.09 -5.28,4.18 -9.11,5.77 v 0 c -3.83,1.58 -7.57,2.37 -10.52,2.36 -1.55,-0.01 -2.88,-0.24 -3.9,-0.68 -0.28,0.81 -0.29,1.58 -0.02,2.25 0,0 0.01,0.01 0.01,0.01 0.64,1.55 2.75,2.33 5.63,2.34 2.93,0.02 6.63,-0.76 10.44,-2.34 1.05,-0.44 2.05,-0.91 3,-1.41 0.93,-0.49 1.79,-1.01 2.59,-1.54 -0.52,-0.33 -1.21,-0.5 -2.07,-0.5 -0.06,0 -0.11,-0.05 -0.11,-0.11 0,-0.07 0.05,-0.12 0.11,-0.12 1.11,0 1.93,-0.28 2.47,-0.82 0.54,-0.54 0.81,-1.36 0.81,-2.46 v 0 c 0,-0.06 0.05,-0.11 0.11,-0.11 0.06,0 0.11,0.05 0.11,0.11 v 0 c 0,1.05 0.25,1.85 0.75,2.39 1.46,-1.22 2.56,-2.48 3.19,-3.67 0.61,-1.15 0.77,-2.22 0.4,-3.13 -0.28,-0.67 -0.84,-1.2 -1.61,-1.58 z M 7.24,25.29 c 0.99,0.43 2.3,0.66 3.82,0.66 2.92,0.02 6.63,-0.76 10.43,-2.34 h 0.01 c 3.8,-1.57 6.97,-3.64 9.03,-5.72 1.07,-1.08 1.84,-2.17 2.23,-3.18 -0.99,-0.43 -2.3,-0.66 -3.82,-0.66 -2.92,-0.02 -6.63,0.76 -10.43,2.34 H 18.5 c -3.8,1.57 -6.97,3.64 -9.03,5.72 -1.07,1.08 -1.84,2.17 -2.23,3.18 z m 21.82,-0.58 c 0.02,0.01 0.03,0.01 0.04,0.02 0.09,0.08 0.18,0.16 0.27,0.24 0.37,0.38 0.63,0.87 0.76,1.48 0.14,-0.61 0.39,-1.1 0.76,-1.48 0.38,-0.38 0.88,-0.64 1.51,-0.77 -0.62,-0.14 -1.12,-0.39 -1.49,-0.77 -0.01,0 -0.01,0 -0.02,-0.01 v 0 c -0.37,-0.38 -0.62,-0.87 -0.76,-1.47 -0.13,0.6 -0.39,1.09 -0.76,1.47 -0.38,0.38 -0.88,0.64 -1.51,0.78 0.47,0.1 0.87,0.27 1.2,0.51 z"
                               inkscape:connector-curvature="0"
                               style="fill:#ffffff;fill-rule:nonzero" />
                          </g>
                        </g>
                      </g>
                    </g>
                  </g>
                </g>
              </g>
            </g>
          </g>
        </g>
      </g>
    </g>
  </g>
</svg>
