<?xml version="1.0" encoding="UTF-8" standalone="no"?>
<!-- Created with Inkscape (http://www.inkscape.org/) -->

<svg
   xmlns:dc="http://purl.org/dc/elements/1.1/"
   xmlns:cc="http://creativecommons.org/ns#"
   xmlns:rdf="http://www.w3.org/1999/02/22-rdf-syntax-ns#"
   xmlns:svg="http://www.w3.org/2000/svg"
   xmlns="http://www.w3.org/2000/svg"
   xmlns:sodipodi="http://sodipodi.sourceforge.net/DTD/sodipodi-0.dtd"
   xmlns:inkscape="http://www.inkscape.org/namespaces/inkscape"
   width="243.86705mm"
   height="210.51675mm"
   viewBox="0 0 243.86707 210.51677"
   version="1.1"
   id="svg12652"
   inkscape:version="0.92.5 (2060ec1f9f, 2020-04-08)"
   sodipodi:docname="cyberpunk_eye.svg">
  <defs
     id="defs12646">
    <style
       id="style13253">
      .cls-1 {
        stroke-width: 0px;
      }
    </style>
  </defs>
  <sodipodi:namedview
     id="base"
     pagecolor="#ffffff"
     bordercolor="#666666"
     borderopacity="1.0"
     inkscape:pageopacity="0.0"
     inkscape:pageshadow="2"
     inkscape:zoom="0.35"
     inkscape:cx="687.06574"
     inkscape:cy="242.77402"
     inkscape:document-units="mm"
     inkscape:current-layer="g15099"
     showgrid="false"
     inkscape:window-width="1210"
     inkscape:window-height="1016"
     inkscape:window-x="710"
     inkscape:window-y="1107"
     inkscape:window-maximized="0" />
  <metadata
     id="metadata12649">
    <rdf:RDF>
      <cc:Work
         rdf:about="">
        <dc:format>image/svg+xml</dc:format>
        <dc:type
           rdf:resource="http://purl.org/dc/dcmitype/StillImage" />
        <dc:title></dc:title>
      </cc:Work>
    </rdf:RDF>
  </metadata>
  <g
     inkscape:label="Layer 1"
     inkscape:groupmode="layer"
     id="layer1"
     transform="translate(75.952804,-2.550618)">
    <g
       id="g12677"
       transform="matrix(7.1422275,0,0,7.1422275,-9.2102081,24.35058)">
      <g
         id="g12718"
         transform="matrix(0.07239319,0,0,0.07239319,-3.0905042,-3.852966)">
        <g
           id="g12759"
           transform="matrix(0.9976262,0,0,0.9976262,7.9696602,-2.3539829)">
          <g
             id="g12800"
             transform="matrix(5.3491048,0,0,5.3491048,40.611695,-289.72993)">
            <g
               id="g12782"
               transform="translate(-20.274298,50.411767)" />
            <g
               id="g12840"
               transform="matrix(0.08340627,0,0,0.08340627,-50.76575,38.206551)">
              <g
                 id="g12897"
                 transform="matrix(48.66352,0,0,48.66352,492.27015,267.37763)">
                <g
                   id="g12947"
                   transform="matrix(0.30851695,0,0,0.30851695,0.59272165,1.8170079)">
                  <g
                     id="g12988"
                     transform="matrix(0.14522106,0,0,0.14522106,-11.171931,-14.678001)">
                    <g
                       id="g13029"
                       transform="matrix(0.96423543,0,0,0.96423543,15.509735,9.0701753)">
                      <g
                         id="g13067"
                         transform="matrix(0.97526942,0,0,0.97526942,9.1915037,7.3698267)">
                        <g
                           style="clip-rule:evenodd;fill-rule:evenodd;image-rendering:optimizeQuality;shape-rendering:geometricPrecision;text-rendering:geometricPrecision"
                           id="g13108"
                           transform="matrix(17.668242,0,0,17.668242,-91.339017,-116.63537)">
                          <g
                             id="g13148"
                             transform="matrix(0.03173732,0,0,0.03173732,-14.659457,5.2852684)">
                            <g
                               id="g13188"
                               transform="translate(341.99431,-20.073086)">
                              <g
                                 id="g13232"
                                 transform="matrix(11.488495,0,0,11.488495,212.35182,-10.910326)">
                                <g
                                   id="g15049"
                                   transform="matrix(1.0354606,0,0,1.0354606,-8.751806,-1.6795511)">
                                <g
                                   id="g15099"
                                   transform="matrix(2.2940754,0,0,2.2940754,7.6398984,-0.75067886)">
                                <g
                                   id="g15078"
                                   transform="matrix(1.5344975,0,0,1.5344975,-7.4007517,-3.9612318)">
                                <path
                                   id="path15070"
                                   d="M 23.42,9.26 C 21.43,7.27 18.68,6.04 15.64,6.04 12.6,6.04 9.86,7.27 7.87,9.26 l 1.06,1.06 1.06,1.06 c 1.45,-1.45 3.45,-2.34 5.66,-2.34 2.21,0 4.21,0.9 5.66,2.34 1.45,1.45 2.34,3.45 2.34,5.66 h 1.5 c 0,-2.62 -1.06,-5 -2.78,-6.72 z"
                                   inkscape:connector-curvature="0"
                                   fill="#DF3C5F"  />
                                <path
                                   id="path15072"
                                   d="m 25.15,17.04 c 0,2.62 -1.06,5 -2.78,6.72 l 1.06,1.06 c 1.99,-1.99 3.22,-4.74 3.22,-7.78 z"
                                   inkscape:connector-curvature="0"
                                   fill="#DF3C5F"  />
                                <path
                                   id="path15074"
                                   d="m 20.24,12.44 -1.06,1.06 c 0.9,0.9 1.46,2.16 1.46,3.54 0,1.38 -0.56,2.63 -1.46,3.54 -0.9,0.9 -2.16,1.46 -3.54,1.46 -1.38,0 -2.63,-0.56 -3.54,-1.46 l -1.06,1.06 c -1.18,-1.18 -1.9,-2.8 -1.9,-4.6 0,-1.8 0.73,-3.42 1.9,-4.6 L 9.98,11.38 c -1.45,1.45 -2.34,3.45 -2.34,5.66 h -1.5 -1.5 c 0,3.04 1.23,5.79 3.22,7.78 L 8.92,23.76 9.98,22.7 c 1.45,1.45 3.45,2.34 5.66,2.34 2.21,0 4.21,-0.9 5.66,-2.34 1.45,-1.45 2.34,-3.45 2.34,-5.66 h -1.5 c 0.01,-1.8 -0.72,-3.42 -1.9,-4.6 z"
                                   inkscape:connector-curvature="0"
                                   fill="#DF3C5F"  />
                                <path
                                   id="path15076"
                                   d="m 15.62,12.82 c -2.27,0 -4.12,1.84 -4.12,4.12 0,2.28 1.84,4.12 4.12,4.12 2.27,0 4.12,-1.84 4.12,-4.12 0,-2.28 -1.85,-4.12 -4.12,-4.12 z"
                                   inkscape:connector-curvature="0"
                                   fill="#DF3C5F" />
                                </g>
                                </g>
                                </g>
                              </g>
                            </g>
                          </g>
                        </g>
                      </g>
                    </g>
                  </g>
                </g>
              </g>
            </g>
          </g>
        </g>
      </g>
    </g>
  </g>
</svg>
