<?xml version="1.0" encoding="UTF-8" standalone="no"?>
<!-- Created with Inkscape (http://www.inkscape.org/) -->

<svg
   xmlns:dc="http://purl.org/dc/elements/1.1/"
   xmlns:cc="http://creativecommons.org/ns#"
   xmlns:rdf="http://www.w3.org/1999/02/22-rdf-syntax-ns#"
   xmlns:svg="http://www.w3.org/2000/svg"
   xmlns="http://www.w3.org/2000/svg"
   xmlns:sodipodi="http://sodipodi.sourceforge.net/DTD/sodipodi-0.dtd"
   xmlns:inkscape="http://www.inkscape.org/namespaces/inkscape"
   width="416.45425mm"
   height="416.49924mm"
   viewBox="0 0 416.45425 416.49924"
   version="1.1"
   id="svg18734"
   inkscape:version="0.92.5 (2060ec1f9f, 2020-04-08)"
   sodipodi:docname="heart_mash.svg">
  <defs
     id="defs18728" />
  <sodipodi:namedview
     id="base"
     pagecolor="#ffffff"
     bordercolor="#666666"
     borderopacity="1.0"
     inkscape:pageopacity="0.0"
     inkscape:pageshadow="2"
     inkscape:zoom="0.35"
     inkscape:cx="752.72968"
     inkscape:cy="855.42847"
     inkscape:document-units="mm"
     inkscape:current-layer="layer1"
     showgrid="false"
     inkscape:window-width="1920"
     inkscape:window-height="1016"
     inkscape:window-x="0"
     inkscape:window-y="1107"
     inkscape:window-maximized="1" />
  <metadata
     id="metadata18731">
    <rdf:RDF>
      <cc:Work
         rdf:about="">
        <dc:format>image/svg+xml</dc:format>
        <dc:type
           rdf:resource="http://purl.org/dc/dcmitype/StillImage" />
        <dc:title></dc:title>
      </cc:Work>
    </rdf:RDF>
  </metadata>
  <g
     inkscape:label="Layer 1"
     inkscape:groupmode="layer"
     id="layer1"
     transform="translate(93.326395,41.333777)">
    <path
       id="path19374"
       d="m -54.445181,102.84511 c 6.250773,17.61693 18.053646,32.71367 33.761708,48.88335 -13.936399,-15.08424 -26.437946,-31.30382 -33.761708,-48.88335 z m 67.88523,82.64506 c -0.0745,0 -0.174506,-0.035 -0.324511,-0.162 l -0.025,0.01 c -0.025,-0.01 -0.112504,-0.11251 -0.27451,-0.26201 -0.249509,-0.22451 -0.611372,-0.56147 -1.11044,-1.03559 L 5.991284,178.65068 C -27.794877,146.82339 -52.199151,123.81651 -58.612131,90.578823 l 0.786029,-0.1745 c 8.920769,34.123567 39.263905,63.343767 66.038764,89.132937 l 2.819701,2.7199 c 0.985635,0.93573 1.634409,1.57205 2.058624,1.99627 0.324512,0.29951 0.511568,0.48652 0.54897,0.51152 l -0.035,0.035 c 0.27451,0.33701 0.199507,0.41151 0.0625,0.54897 -0.0745,0.0875 -0.137505,0.1375 -0.224508,0.1375"
       style="fill:#000000;fill-opacity:1;fill-rule:nonzero;stroke:none;stroke-width:3.19401312"
       inkscape:connector-curvature="0" />
    <path
       id="path19376"
       d="M 275.77339,66.238703 C 273.0907,24.629215 242.3611,-10.667149 201.06347,-19.587918 l 0.163,-0.786028 c 41.74705,8.434202 73.42493,44.840955 75.34645,86.575249 l -0.79848,0.035"
       style="fill:#000000;fill-opacity:1;fill-rule:nonzero;stroke:none;stroke-width:3.19401312"
       inkscape:connector-curvature="0" />
    <path
       id="path19378"
       d="m 31.181785,-21.659042 c -4.828473,0 -9.669347,0.399514 -14.485319,1.210243 -29.04559,4.915776 -55.071772,24.6912339 -67.922732,51.628249 -29.806617,62.470383 17.59203,108.10982 59.401177,148.38436 77.20526,74.36061 79.6008,81.34751 91.07926,114.92207 2.682499,7.86028 6.026219,17.65443 11.029349,30.10607 8.13474,20.24953 14.17345,30.11853 18.41545,30.11853 0.11251,0 0.22451,-0.015 0.33702,-0.025 5.85156,-0.73613 8.50905,-20.93575 11.57831,-44.32939 4.34191,-33.13788 9.76915,-74.38556 26.97447,-86.12608 4.66611,-3.15656 10.00621,-4.01744 15.90777,-2.54519 5.36469,0 7.73527,4.69117 10.21831,9.65689 2.20833,4.30441 4.44156,8.77107 8.85827,10.97945 1.43475,0.46151 2.8072,0.34951 4.1423,-0.37452 6.38803,-3.48102 10.76733,-20.32442 15.82027,-39.83787 5.36499,-20.77355 11.46621,-44.31694 21.77168,-59.21402 1.73436,-2.17093 2.59514,-3.04426 3.58082,-4.06735 1.31015,-1.3475 2.7823,-2.85715 6.73744,-7.84778 C 291.06994,84.890973 276.85883,31.17915 244.02056,1.9340029 211.41894,-27.099087 156.73408,-34.65991 108.12519,13.899081 l -0.27451,0.28701 -0.28701,-0.28701 C 84.569051,-9.3567521 57.906492,-21.658692 31.181585,-21.658692 Z M 128.72393,355.50901 c -4.69117,0 -10.80474,-9.7692 -19.17654,-30.6301 -5.01558,-12.46414 -8.3593,-22.25829 -11.054299,-30.13103 C 87.076981,261.32304 84.694001,254.36109 7.625941,180.13773 -34.382813,139.67608 -81.993568,93.824493 -51.949892,30.842538 -38.986678,3.6685149 -12.735888,-16.2816 16.571662,-21.234827 c 31.57833,-5.339991 63.992589,6.837195 91.278918,34.285728 22.408,-22.2832481 47.91021,-34.447934 73.76169,-35.18406 22.90712,-0.636273 45.20297,7.673125 62.9572,23.4685399 33.12544,29.4947061 47.43585,83.6556921 10.70474,130.1310591 -3.99254,5.02808 -5.502,6.56273 -6.8122,7.91018 -0.96078,1.01059 -1.82156,1.88397 -3.50577,3.99249 -10.23107,14.75988 -16.29458,38.22837 -21.65953,58.93956 -5.07788,19.68806 -9.48239,36.69372 -16.19463,40.3369 -1.5347,0.82343 -3.15666,0.96068 -4.81592,0.41151 -4.70382,-2.35808 -7.12425,-7.1366 -9.27028,-11.3537 -2.49519,-4.95323 -4.66617,-9.23273 -9.607,-9.23273 -5.7891,-1.4223 -10.89189,-0.59882 -15.37115,2.42048 -16.91825,11.52842 -22.30815,52.58894 -26.63755,85.56462 -3.24392,24.70368 -5.80161,44.20463 -12.26449,45.02811 -0.1375,0.015 -0.27451,0.025 -0.41201,0.025"
       style="fill:#000000;fill-opacity:1;fill-rule:nonzero;stroke:none;stroke-width:3.19401312"
       inkscape:connector-curvature="0" />
    <path
       id="path19380"
       d="m 124.76888,56.057791 c -7.43606,0 -14.85968,0.374513 -21.75923,0.736126 -5.339989,0.27451 -10.393019,0.536469 -14.797279,0.573921 -40.573897,0.349512 -51.8403,15.970075 -54.148483,29.020585 -2.22083,12.539 2.969406,28.521577 14.24826,43.855317 10.779836,14.63508 25.564616,26.52525 39.563363,31.77794 5.4897,1.08544 10.29322,4.54146 14.922039,7.87273 5.32754,3.84279 10.38057,7.48597 16.23208,7.48597 0.24951,0 0.49902,-0.01 0.74858,-0.025 6.9869,-0.37451 14.16095,-5.96381 22.53275,-17.59203 13.56209,-19.65065 15.3837,-20.74859 17.67939,-22.13349 1.74671,-1.06054 3.74313,-2.25828 11.62816,-12.22709 11.1417,-10.81724 12.96322,-22.44545 12.5515,-30.293227 -0.57392,-11.11665 -6.00121,-21.73423 -14.49792,-28.39677 -11.12905,-8.696212 -28.0473,-10.655032 -44.90321,-10.655032 z m -5.75175,122.121119 c -6.10102,0 -11.25391,-3.70558 -16.6812,-7.63572 -4.566459,-3.28132 -9.282579,-6.68744 -14.672469,-7.76043 C 73.464999,157.46772 58.530514,145.47769 47.675875,130.71786 36.259767,115.20941 31.019579,99.002283 33.27786,86.238723 35.635944,72.901243 47.077004,56.931172 88.199921,56.569359 c 4.39176,-0.035 9.43229,-0.299511 14.772279,-0.573921 22.69497,-1.160341 50.92958,-2.620093 67.21156,10.081065 v 0.01 c 8.64621,6.78729 14.17346,17.62948 14.78478,28.98318 0.41151,8.009987 -1.43475,19.875267 -12.73871,30.867157 -7.96008,10.04366 -10.03111,11.27885 -11.82777,12.37679 -2.22083,1.335 -3.96754,2.39549 -17.44227,21.90894 -8.53401,11.85277 -15.88272,17.54213 -23.14413,17.92889 -0.26201,0.01 -0.53652,0.025 -0.79853,0.025"
       style="fill:#000000;fill-opacity:1;fill-rule:nonzero;stroke:none;stroke-width:3.19401312"
       inkscape:connector-curvature="0" />
    <path
       id="path19382"
       d="m 61.013403,38.241203 c -35.970088,0 -48.496637,15.121641 -52.426777,28.95819 -9.906405,34.959497 27.161622,93.612047 72.139785,114.111127 2.8447,1.29755 4.91577,2.05863 6.73739,2.74485 3.33122,1.2352 5.52715,2.05862 9.38243,4.96568 10.767289,6.45043 16.419189,24.82849 20.536489,38.25332 2.69495,8.77106 5.01558,16.35683 7.62322,16.81845 0.81098,0.13751 1.65936,-0.42401 2.5951,-1.65936 1.34749,-1.77171 3.55582,-7.68562 6.36307,-15.18404 9.39494,-25.16535 26.5253,-70.97944 50.67992,-70.97944 1.18529,0 2.39548,0.1125 3.61818,0.33701 7.49857,1.60946 12.5764,1.02308 15.99527,-1.85902 7.41107,-6.22582 6.73714,-23.6432 5.75146,-50.01874 l -0.16301,-4.19215 C 208.92355,76.419773 203.334,60.013032 192.72892,50.393588 177.45737,36.569493 153.178,38.066646 127.45123,39.638703 c -15.18404,0.923283 -30.892109,1.896468 -46.175899,-0.025 -7.46107,-0.935735 -14.198461,-1.3724 -20.262078,-1.3724 z M 125.25545,244.9163 c -0.125,0 -0.26201,-0.015 -0.38701,-0.035 -3.08171,-0.54897 -5.25264,-7.61072 -8.247,-17.36742 -4.09234,-13.30008 -9.68189,-31.50348 -20.212119,-37.82911 -3.80539,-2.85715 -5.96382,-3.66813 -9.23273,-4.87837 -1.83407,-0.68623 -3.90514,-1.45975 -6.78724,-2.7698 C 35.124226,161.40041 -2.18086,102.27374 7.812898,66.989883 12.491615,50.508292 29.023157,32.254988 81.387481,38.817673 c 15.19649,1.908919 30.867159,0.948234 46.013749,0.025 25.88898,-1.584507 50.3432,-3.08171 65.83896,10.966943 10.79223,9.7692 16.48174,26.350597 17.40512,50.704964 l 0.16301,4.19215 c 1.06073,27.54834 1.65961,44.17968 -6.03857,50.66751 -3.64313,3.03181 -8.94582,3.68064 -16.6686,2.02123 -25.42756,-4.74112 -43.61836,43.96757 -53.38756,70.13106 -2.93201,7.86028 -5.05303,13.52463 -6.47538,15.39615 -1.02304,1.33495 -1.99622,1.99627 -2.98186,1.99627"
       style="fill:#000000;fill-opacity:1;fill-rule:nonzero;stroke:none;stroke-width:3.19401312"
       inkscape:connector-curvature="0" />
    <path
       id="path19384"
       d="m 43.808137,22.433337 c -13.474733,0 -26.375595,3.393621 -38.552781,14.373064 -14.24826,12.85091 -20.012466,29.020589 -17.130363,48.072372 7.560821,49.993787 71.191599,104.529087 95.545918,115.807947 l 0.015,0.01 c 19.039329,9.7442 25.602019,40.37429 30.405489,62.74489 3.14416,14.70993 5.6519,26.388 10.28077,26.388 0.1125,0 0.22451,0 0.33701,-0.015 4.21705,-0.49902 5.38989,-10.26822 7.0243,-23.79285 3.36872,-28.08491 8.47161,-70.51783 45.12782,-90.26834 4.46681,-2.95695 8.45935,1.78417 12.71376,6.7873 3.60572,4.24205 7.31141,8.62136 11.59076,8.85841 2.13358,0.0995 4.27965,-0.82348 6.48798,-2.90705 9.41979,-10.35562 11.87758,-25.41486 14.46027,-41.37248 1.34755,-8.272 2.72005,-16.81845 5.17784,-24.65378 7.43596,-32.301957 1.65926,-63.131662 -15.87042,-84.541529 -23.76795,-22.744864 -54.58506,-15.458503 -77.06791,-10.131012 -2.85716,0.673724 -5.5521,1.310046 -8.10979,1.859016 C 109.9618,33.158221 93.118401,29.901804 76.83642,26.745241 65.532165,24.562863 54.490369,22.429336 43.810387,22.429336 Z M 124.35717,290.64309 c -5.26514,0 -7.71058,-11.40361 -11.0543,-27.03682 C 108.5368,241.41037 102.02402,210.99239 83.334051,201.41034 58.854926,190.06909 -5.062763,135.25932 -12.661035,85.003523 -15.58054,65.664785 -9.741531,49.258047 4.718887,36.21998 26.839929,16.269866 51.206752,20.973534 76.995925,25.976663 c 16.194626,3.131663 32.938225,6.375579 49.070505,2.907055 2.55769,-0.561421 5.25264,-1.197743 8.09734,-1.859017 22.67001,-5.377393 53.74933,-12.713655 77.85389,10.355621 17.70443,21.646925 23.54339,52.726141 16.03267,85.302598 -2.45808,7.81033 -3.83023,16.33189 -5.16533,24.56643 -2.59514,16.08238 -5.05293,31.26642 -14.66023,41.80915 -2.39548,2.25828 -4.72842,3.28137 -7.099,3.14411 -4.62877,-0.24951 -8.459,-4.76607 -12.16474,-9.14537 -4.17965,-4.94073 -7.79783,-9.19528 -11.69072,-6.61259 -36.33175,19.5633 -41.39723,61.75921 -44.7535,89.68191 -1.72176,14.39797 -2.86955,23.91766 -7.72298,24.47908 -0.15,0.025 -0.29901,0.035 -0.43651,0.035"
       style="fill:#000000;fill-opacity:1;fill-rule:nonzero;stroke:none;stroke-width:3.19401312"
       inkscape:connector-curvature="0" />
    <path
       id="path19386"
       d="m 41.737013,9.9192879 c -28.222111,0 -53.724274,15.7953661 -63.468523,39.3138081 -7.498469,18.116047 -11.915177,56.681224 42.832184,111.416134 22.932021,24.67874 39.563366,39.66317 53.923931,48.60889 24.192166,15.08424 27.922645,34.13603 31.890235,54.3232 2.18338,11.17905 4.45416,22.75736 10.26822,34.38553 1.55961,3.10671 4.66627,6.01372 6.01377,6.11352 0.05,0 0.0995,0.015 0.15,0.015 6.91205,0 15.209,-35.30881 19.12664,-59.21397 0.48652,-2.98196 0.82348,-5.6644 1.13539,-8.02249 1.92137,-14.68497 2.70745,-20.76109 28.42157,-43.60576 11.05449,-6.92455 17.66703,3.26887 22.96942,11.45351 1.02304,1.59701 2.00872,3.09421 2.96946,4.45416 0.73622,1.01064 1.65931,1.57206 2.78235,1.65941 0.0865,0.01 0.2235,0.01 0.31301,0.01 2.14572,0 4.56616,-1.62196 6.13822,-3.20652 12.6764,-12.6887 15.5459,-31.81533 18.3033,-50.31815 1.78417,-11.91517 3.63063,-24.25457 8.13484,-34.39803 C 245.10689,97.130863 246.679,70.443353 237.95774,49.682262 231.03344,33.225623 217.87057,20.973584 199.85442,14.273644 174.71402,4.8912079 151.19558,12.938647 128.46322,20.724075 109.46134,27.236859 95.013421,22.495739 79.729571,17.49261 68.350866,13.774577 56.610395,9.9192879 41.738263,9.9192879 Z M 123.33403,304.8789 c -0.0625,0 -0.1375,0 -0.1995,0 -1.80907,-0.13751 -5.04054,-3.33127 -6.66249,-6.56269 -5.86401,-11.72802 -8.14719,-23.34373 -10.34307,-34.58519 C 102.19878,243.73101 98.493241,224.84143 74.600539,209.9319 60.177573,200.96118 43.496326,185.92689 20.526853,161.2107 -34.532418,106.13893 -30.040858,67.224343 -22.467536,48.921185 -12.598533,25.115783 13.203141,9.1207599 41.737113,9.1207599 c 14.996887,0 26.81226,3.8677881 38.240818,7.6107721 15.14659,4.965678 29.469759,9.656896 48.222129,3.243917 22.86962,-7.835331 46.51291,-15.9326711 71.94017,-6.462882 18.20331,6.799744 31.55333,19.201488 38.55268,35.870235 8.80847,20.960701 7.21146,47.872761 -4.317,73.849088 -4.46651,10.04366 -6.22582,21.77168 -8.07224,34.18593 -2.7823,18.62756 -5.6892,37.89145 -18.52786,50.77982 -0.86078,0.86088 -3.96759,3.69308 -7.08656,3.41857 -1.34754,-0.11251 -2.49549,-0.77353 -3.35627,-1.98377 -0.99813,-1.3849 -1.98377,-2.89461 -3.0068,-4.49156 -5.365,-8.297 -11.46622,-17.71684 -21.80909,-11.25396 -25.43991,22.60766 -26.22599,28.59643 -28.1099,43.0693 -0.31201,2.37058 -0.66128,5.05303 -1.14784,8.04743 -0.41202,2.45789 -9.91891,59.87525 -19.92522,59.87525"
       style="fill:#000000;fill-opacity:1;fill-rule:nonzero;stroke:none;stroke-width:3.19401312"
       inkscape:connector-curvature="0" />
    <path
       id="path19388"
       d="m 0.31462895,148.54695 1.62195905,1.73426 c 20.611388,22.03369 51.765503,55.34623 75.70811,70.25577 15.433603,5.5646 24.329372,35.19656 31.466022,59.01441 5.12789,17.06801 9.54459,31.81534 14.87214,33.4872 1.19774,0.38701 2.40798,0.0745 3.69308,-0.94818 4.52901,-3.58083 9.35743,-32.40181 13.25017,-55.54589 1.08544,-6.50034 2.10853,-12.62636 3.08171,-17.96635 0.83593,-18.87712 17.29257,-27.54833 30.5179,-34.51028 1.90871,-1.01064 3.73028,-1.97132 5.48954,-2.94451 5.5895,-2.40798 9.29519,2.63255 12.87601,7.48597 3.99255,5.4523 7.79788,10.59263 14.04856,6.79974 12.01493,-7.24891 17.05541,-29.4947 22.90717,-55.24642 4.2793,-18.88963 9.17033,-40.29945 17.62933,-58.35314 12.6138,-26.924517 6.83709,-56.880888 -15.10929,-78.166 C 207.07718,-0.87299814 168.5494,-5.4519121 134.18872,11.977912 112.56675,22.944855 106.49063,23.244316 87.750761,14.323496 43.932891,-6.4874491 14.662743,1.2979299 -2.18066,11.503795 -22.629842,23.893089 -35.904968,46.862511 -36.840701,71.428993 -38.300453,110.36848 -2.891835,145.51514 0.28972895,148.5594 Z M 124.95604,313.99932 c -0.39951,0 -0.81103,-0.0625 -1.21024,-0.187 -5.72676,-1.80917 -10.20587,-16.74365 -15.39615,-34.03622 C 101.25044,256.1329 92.429481,226.71305 77.295336,221.2483 53.190573,206.25142 21.999006,172.88892 1.350217,150.81783 l -1.37245005,-1.4598 0.015,-0.01 C -1.242476,148.27449 -10.587461,139.01686 -19.445828,125.74173 -28.179491,112.64131 -38.435258,92.578903 -37.63673,71.393593 -36.700996,46.565151 -23.263665,23.35867 -2.589975,10.819671 14.415684,0.51395186 43.947842,-7.3587801 88.090071,13.614421 c 18.640069,8.858367 24.192169,8.583907 45.739289,-2.345634 18.05364,-9.1578281 37.21768,-12.5264991 55.42098,-9.7192481 16.66895,2.557691 31.77824,10.0062581 43.66827,21.5221701 22.19579,21.534622 28.0725,51.827804 15.25904,79.076731 -8.4344,17.97884 -13.25037,39.35126 -17.56703,58.19093 -5.87671,25.92643 -10.95454,48.32193 -23.24413,55.758 -6.89939,4.17965 -11.09154,-1.50966 -15.10929,-7.01185 -3.54313,-4.81598 -6.8994,-9.36994 -11.89003,-7.24891 -1.72191,0.96068 -3.54342,1.92142 -5.48989,2.9445 -13.69919,7.22396 -29.24505,15.4086 -30.06853,33.88647 -0.98563,5.38989 -2.00872,11.51591 -3.09421,18.00374 -4.1048,24.50408 -8.77101,52.27702 -13.54958,56.04496 -1.07299,0.84843 -2.14598,1.28509 -3.20647,1.28509"
       style="fill:#000000;fill-opacity:1;fill-rule:nonzero;stroke:none;stroke-width:3.19401312"
       inkscape:connector-curvature="0" />
    <path
       id="path19390"
       d="m 4.856142,161.62242 1.534605,1.62196 c 21.060504,22.38305 49.906437,53.02559 71.166598,67.88528 16.993156,10.61758 25.789175,40.04993 32.850925,63.70558 4.87837,16.30693 9.08297,30.40549 14.51032,33.05053 0.43651,0.21201 0.84838,0.21201 1.27264,-0.015 4.94068,-2.49529 9.7317,-28.78353 13.9613,-51.97756 1.69682,-9.28258 3.29382,-18.05365 4.87833,-25.31506 4.01749,-18.44041 8.92082,-33.08793 31.89034,-39.98753 7.37372,-1.84651 11.81533,2.60759 15.74557,6.52528 4.85327,4.84093 9.07032,9.02058 17.52937,1.73422 13.7368,-11.82783 17.41758,-32.52652 20.9607,-52.55148 2.5827,-14.63508 5.30269,-29.75672 11.91528,-41.17283 2.10868,-3.60573 3.03176,-4.76607 3.85514,-5.80161 1.06074,-1.28509 1.88417,-2.30818 4.79102,-8.25954 C 267.91321,77.889373 261.40033,39.112034 235.4988,14.558055 208.41193,-11.105864 169.22303,-13.626155 130.60794,7.8336139 113.25292,17.50301 109.84685,18.788106 104.64411,17.627765 97.307851,14.745661 90.620361,11.114981 84.157481,7.6215059 72.591668,1.3582819 61.674627,-4.5681301 47.638474,-6.4770491 5.317809,-12.253705 -34.644822,15.25723 -43.291082,56.143094 -52.661068,100.48498 -23.41587,131.56419 4.856142,161.62037 Z M 125.54241,328.84651 c -0.32451,0 -0.64877,-0.0745 -0.96068,-0.23701 -5.75171,-2.80725 -9.8066,-16.36934 -14.94699,-33.54965 C 102.61039,271.54145 93.864281,242.27131 77.12068,231.80343 55.773215,216.8814 26.889831,186.2014 5.804376,163.7934 L 4.269721,162.17144 C -24.139496,131.96556 -53.521948,100.72414 -44.06466,55.970537 -35.331047,14.69786 4.980897,-13.075085 47.738278,-7.2609771 c 14.185908,1.921419 25.165301,7.87273196 36.805963,14.185908 6.43793,3.4809751 13.08797,7.0992041 20.336879,9.9438561 4.62887,1.023087 7.34876,0.287011 25.34001,-9.7192481 38.90224,-21.6469249 78.47796,-19.0892329 105.81424,6.8371951 26.16344,24.790988 32.73862,63.942639 16.41914,97.429836 -2.96946,6.03872 -3.79289,7.08675 -4.87823,8.4217 -0.83618,0.99814 -1.75926,2.13353 -3.80533,5.68936 -6.57519,11.29135 -9.23293,26.35064 -11.81563,40.91081 -3.58078,20.16222 -7.28616,41.01062 -21.24751,53.0256 -9.00807,7.74803 -13.66209,3.11916 -18.59011,-1.78417 -3.99255,-3.94259 -8.07254,-8.03488 -14.97194,-6.31312 -22.54531,6.76229 -27.37373,21.19776 -31.34132,39.37616 -1.57206,7.24896 -3.16907,16.02002 -4.86588,25.3026 -4.46661,24.51653 -9.09542,49.86899 -14.38551,52.53904 -0.33701,0.1745 -0.67378,0.26201 -1.01064,0.26201"
       style="fill:#000000;fill-opacity:1;fill-rule:nonzero;stroke:none;stroke-width:3.19401312"
       inkscape:connector-curvature="0" />
    <path
       id="path19392"
       d="m 35.361484,-12.775674 c -41.310079,0 -78.403057,30.218332 -85.127948,71.191549 -7.635673,46.512815 23.842804,77.978835 57.167847,111.303885 16.880855,16.94325 31.603232,31.15406 43.431105,42.58267 10.480326,10.11851 19.5259,18.85218 26.712407,26.21339 17.392426,17.85399 27.847795,49.03306 35.471015,71.80292 5.65191,16.85586 10.13102,30.21833 14.68498,30.21833 0.0625,0 0.125,0 0.18701,-0.015 1.80906,-0.1375 4.66621,-14.69747 7.68557,-30.10607 6.35058,-32.31446 15.93262,-81.14791 31.72784,-91.84039 12.26469,-8.29695 22.07129,-0.64878 28.59667,4.40425 1.97132,1.54711 3.69288,2.89456 5.07783,3.46853 3.21892,1.35995 9.44469,-1.27265 12.3519,-6.58769 5.01553,-9.12037 7.57332,-19.47599 10.54277,-31.46602 4.69107,-18.83968 9.99376,-40.19964 26.5378,-65.29009 21.37242,-32.413807 21.69693,-69.544189 0.87324,-99.313405 -20.28678,-29.0205891 -55.96996,-42.44542 -90.89206,-34.173423 -13.28763,3.1440619 -23.43109,9.63194386 -34.16102,16.4815899 -5.14034,3.293818 -10.45538,6.6874391 -16.21958,9.7442491 l -0.11251,0.035 C 105.86641,16.614677 100.0399,12.871693 92.017411,7.6814569 80.538951,0.25784286 64.805939,-9.9105721 45.217637,-12.206304 c -3.293818,-0.387014 -6.587686,-0.57392 -9.856503,-0.57392 z M 127.70089,341.33555 c -5.12793,0 -9.46974,-12.95071 -15.4336,-30.75485 C 104.65656,287.88574 94.238591,256.79408 76.970974,239.07724 69.809368,231.71603 60.751344,222.98241 50.283469,212.87635 38.443195,201.44779 23.720768,187.22443 6.827413,170.28118 -26.634836,136.81893 -58.250568,105.2032 -50.552492,58.291121 -46.946763,36.319784 -34.931783,16.856287 -16.728431,3.5063089 1.275364,-9.7064141 23.296552,-15.570424 45.317791,-12.987782 c 19.775458,2.308183 35.58332,12.53899886 47.12419,20.0000159 7.54832,4.8783251 13.512179,8.7336131 17.255109,8.0972901 5.70186,-3.031808 10.9919,-6.4129291 16.10733,-9.6818461 10.77979,-6.887097 20.9732,-13.39988 34.39803,-16.5813939 35.24627,-8.346849 71.2415,5.1902859 91.74069,34.485335 9.7191,13.911448 15.04669,30.143529 15.3961,46.912084 0.34901,18.17845 -5.26529,36.606407 -16.25718,53.300097 -16.48144,24.9782 -21.74678,46.27576 -26.4129,65.05308 -3.00686,12.03993 -5.58955,22.44541 -10.62998,31.65314 -3.16911,5.7642 -9.7817,8.4592 -13.38738,6.9495 -1.47245,-0.63633 -3.23171,-2.00873 -5.26534,-3.59328 -6.67484,-5.20274 -15.84521,-12.33939 -27.63559,-4.36681 -15.53345,10.50533 -25.0781,59.13917 -31.39122,91.32882 -4.0549,20.64879 -6.10107,30.58015 -8.40925,30.75485 -0.0875,0.015 -0.16201,0.015 -0.24951,0.015"
       style="fill:#000000;fill-opacity:1;fill-rule:nonzero;stroke:none;stroke-width:3.19401312"
       inkscape:connector-curvature="0" />
    <path
       id="path19394"
       d="m 34.363349,-16.456306 c -43.855321,0 -82.707512,33.761759 -88.459218,76.868453 -6.200872,46.475363 25.751722,77.641973 56.643828,107.785453 91.453572,89.2452 91.890242,90.71745 103.231491,128.44675 2.99441,9.93136 6.69994,22.28325 13.00062,39.38866 0.17451,0.33702 0.36201,0.73613 0.56147,1.14784 1.47225,3.10667 3.28137,6.97445 6.9495,6.52529 5.56455,-0.67378 10.34312,-29.08299 14.56017,-54.14849 1.94637,-11.56587 3.78044,-22.49536 5.70185,-31.12922 0.36202,-1.09794 0.77353,-2.48278 1.24765,-4.09229 3.05676,-10.34312 8.75856,-29.60701 20.81094,-36.14475 4.47896,-2.43293 9.49484,-2.85715 14.88479,-1.26014 6.61253,1.97132 10.44282,7.02435 13.54928,11.0917 2.84495,3.78043 4.56652,5.85155 6.7624,4.77857 10.23106,-4.95323 15.27149,-23.14413 21.12295,-44.20464 5.16539,-18.55276 11.0168,-39.58831 21.62218,-53.92393 C 279.95304,91.453963 272.80389,48.197509 254.95,22.121425 233.10326,-9.7937671 193.30299,-23.780068 155.83565,-12.688371 144.18248,-9.2447981 132.81627,-0.83554714 123.6834,5.9142949 114.56302,12.651636 107.96283,17.530011 105.21803,14.385898 103.08451,12.901195 101.01338,11.428943 98.967261,9.9816409 78.929791,-4.2042671 61.624725,-16.456306 34.363349,-16.456306 Z M 125.71712,344.52957 c -3.76799,0 -5.67691,-4.01745 -7.09921,-6.99935 -0.1995,-0.41152 -0.37451,-0.81098 -0.56147,-1.1728 -6.32562,-17.18031 -10.05616,-29.54465 -13.03806,-39.47601 C 93.727021,259.33927 93.290361,257.87951 1.986539,168.77152 -29.042822,138.49079 -61.145171,107.17447 -54.881897,60.312343 -52.037245,39.00228 -41.294861,19.339126 -24.613613,4.9411099 -8.04467,-9.3820531 12.90358,-17.254785 34.363349,-17.254785 c 27.510935,0 44.915812,12.3143909 65.065532,26.5876519 2.058619,1.4473021 4.142189,2.9320051 6.288219,4.4292091 l 0.0745,0.0625 c 2.24578,2.657545 8.94572,-2.295682 17.41733,-8.5589561 9.18278,-6.787293 20.61139,-15.233946 32.40176,-18.7274209 37.79175,-11.191501 77.96634,2.932005 100.01268,35.134158 10.66738,15.608259 15.97007,33.836612 15.23385,52.701236 -0.77358,20.72365 -8.98313,41.746747 -23.66795,60.786077 -10.54278,14.21086 -16.35684,35.15906 -21.49727,53.64942 -5.87636,21.24766 -10.99189,39.60077 -21.52222,44.7162 -2.90691,1.40985 -5.05293,-1.42235 -7.77298,-5.01563 -2.99436,-3.96754 -6.76239,-8.92077 -13.12547,-10.81718 -5.16504,-1.53466 -9.99376,-1.12294 -14.27311,1.21019 -11.77802,6.37558 -17.40498,25.42736 -20.43683,35.65818 -0.47402,1.62195 -0.88579,3.00685 -1.24765,4.07984 -1.89642,8.57146 -3.73048,19.48845 -5.67685,31.05431 -4.67872,27.7979 -9.08298,54.06114 -15.2589,54.79727 -0.22451,0.025 -0.44901,0.04 -0.66127,0.04"
       style="fill:#000000;fill-opacity:1;fill-rule:nonzero;stroke:none;stroke-width:3.19401312"
       inkscape:connector-curvature="0" />
    <path
       id="path19396"
       d="M 0.40198295,168.82143 C 24.481845,192.38977 42.572943,210.99239 57.108213,225.95187 c 8.259496,8.49656 15.396101,15.84527 21.547068,21.94634 10.25582,10.14351 19.18909,35.89523 27.061819,58.61515 7.36122,21.26011 14.33562,41.33503 20.44913,42.55772 1.85902,0.37451 4.52902,-1.89647 6.15097,-5.15283 2.7199,-9.74425 4.69122,-23.6432 6.7873,-38.34068 4.80352,-33.83656 10.24331,-72.18968 27.37358,-84.05491 4.91587,-3.40612 10.63033,-4.42921 16.99311,-3.00686 4.40455,0.87334 8.29709,6.89955 11.71562,12.20209 2.74494,4.267 5.36499,8.30945 7.41106,8.30945 0.04,0 0.099,0 0.12451,-0.015 8.78356,-0.71118 14.28556,-20.69869 20.67359,-43.85527 6.22607,-22.64506 13.28772,-48.30948 25.2279,-61.40995 24.52903,-31.98955 30.6925,-66.899097 17.34247,-98.290267 -12.4892,-29.3075501 -41.26023,-50.567711 -73.30002,-54.136039 -32.43932,-3.593278 -56.36947,10.2433169 -84.40448,33.761709 l -0.087,0.0875 -0.1125,0.01 c -0.18701,0.025 -0.32452,0.05 -0.43652,0.075 -0.83593,0.174506 -0.96073,0.025 -2.13348,-1.39735 -0.33701,-0.424016 -0.79852,-0.973185 -1.3974,-1.696811 C 73.390046,-16.235898 36.608929,-25.817941 3.233984,-14.06497 c -31.528379,11.0792459 -55.059272,39.451062 -59.937646,72.264537 -6.737342,45.265173 20.12482,72.751153 51.216484,104.578993 1.946369,1.99622 3.91769,4.00499 5.88896095,6.03867 z M 126.60295,349.90701 c -0.19951,0 -0.39951,-0.015 -0.58642,-0.0625 -6.57519,-1.3101 -13.28758,-20.66129 -21.06051,-43.06929 C 97.108241,284.14265 88.212371,258.47824 78.093861,248.45953 71.942894,242.35851 64.793788,235.00975 56.521792,226.51319 41.999022,211.55376 23.907924,192.95109 -0.15948805,169.39525 l -0.015,-0.01 C -2.133308,167.35157 -4.104629,165.34285 -6.063449,163.34658 -37.304818,131.36848 -64.291734,103.74525 -57.491991,58.093314 c 4.915776,-33.100436 28.646276,-61.7218111 60.449165,-72.913311 15.720563,-5.527148 32.751123,-6.462882 49.257714,-2.694947 18.452911,4.204601 36.094843,13.9987509 52.451672,29.132893 0.64878,0.761078 1.09794,1.309997 1.44726,1.746713 0.97318,1.197743 0.98568,1.197743 1.34749,1.11039 0.0995,-0.025 0.22451,-0.05 0.37452,-0.0625 28.14721,-23.6306961 52.18967,-37.542094 84.92829,-33.886463 32.31446,3.605729 61.3474,25.0530469 73.9363,54.622606 13.47488,31.665628 7.28651,66.862185 -17.46713,99.101745 -11.81527,12.98816 -18.85232,38.56523 -25.0781,61.12294 -6.45033,23.44354 -12.03983,43.68066 -21.37241,44.44169 -0.0605,0.015 -0.12451,0.015 -0.18851,0.015 -2.49519,0 -5.07783,-4.02995 -8.08469,-8.67126 -3.34382,-5.17779 -7.1118,-11.0543 -11.20395,-11.86528 -6.13857,-1.35995 -11.66582,-0.38701 -16.38179,2.89461 -16.84355,11.66561 -22.25839,49.81908 -27.03691,83.49349 -2.09608,14.74737 -4.0674,28.65877 -6.83725,38.52778 -1.4722,2.98195 -4.0798,5.70185 -6.45038,5.70185"
       style="fill:#000000;fill-opacity:1;fill-rule:nonzero;stroke:none;stroke-width:3.19401312"
       inkscape:connector-curvature="0" />
    <path
       id="path19398"
       d="m -47.346027,118.31612 h -0.798529 c 0,-0.93579 -0.150005,-2.39554 -0.337012,-4.41676 -1.509654,-15.695557 -6.126019,-63.493472 34.847198,-124.192195 l 0.661224,0.4490159 C -53.771607,50.617846 -49.192743,98.191203 -47.69554,113.82436 c 0.199507,2.04617 0.349513,3.50592 0.349513,4.49161"
       style="fill:#000000;fill-opacity:1;fill-rule:nonzero;stroke:none;stroke-width:3.19401312"
       inkscape:connector-curvature="0" />
    <path
       id="path19400"
       d="M -13.646671,159.8258 C -27.258658,95.147043 -21.669158,38.640467 3.932859,-17.990911 l 0.723626,0.324512 C -20.870629,38.802773 -26.435228,95.159643 -12.860642,159.6637 l -0.786029,0.162"
       style="fill:#000000;fill-opacity:1;fill-rule:nonzero;stroke:none;stroke-width:3.19401312"
       inkscape:connector-curvature="0" />
    <path
       id="path19402"
       d="M 17.64465,189.74472 C 2.211097,121.64734 4.556681,46.475747 24.269737,-21.933502 l 0.773578,0.212007 C 5.36766,46.563001 3.009576,121.59733 18.418228,189.56997 l -0.773578,0.1745"
       style="fill:#000000;fill-opacity:1;fill-rule:nonzero;stroke:none;stroke-width:3.19401312"
       inkscape:connector-curvature="0" />
    <path
       id="path19404"
       d="M 46.827445,218.55321 C 32.604136,141.70975 32.379528,58.939894 46.178672,-20.823112 l 0.786028,0.137005 C 33.178056,58.977095 33.402614,141.6596 47.613473,218.40325 l -0.786028,0.14951"
       style="fill:#000000;fill-opacity:1;fill-rule:nonzero;stroke:none;stroke-width:3.19401312"
       inkscape:connector-curvature="0" />
    <path
       id="path19406"
       d="M 73.402647,247.36174 C 58.755072,136.05785 65.629718,29.482589 69.260448,-11.178667 c 0.112004,-1.297596 0.199507,-2.23333 0.199507,-2.370585 h 0.798479 c 0,0.162006 -0.0625,0.748627 -0.212008,2.445438 C 66.428197,29.52004 59.566051,136.0329 74.201125,247.26188 l -0.798478,0.0995"
       style="fill:#000000;fill-opacity:1;fill-rule:nonzero;stroke:none;stroke-width:3.19401312"
       inkscape:connector-curvature="0" />
    <path
       id="path19408"
       d="m 97.594811,292.04044 c -0.05,-2.43294 -0.26201,-7.44852 -0.58637,-15.05924 -1.68441,-39.32626 -6.17597,-143.793 -2.7948,-275.2715551 l 0.79853,0.025 c -3.38122,131.4536551 1.11039,235.8953951 2.79475,275.2092051 0.32451,7.61072 0.53647,12.65125 0.58637,15.08424 l -0.79848,0.015"
       style="fill:#000000;fill-opacity:1;fill-rule:nonzero;stroke:none;stroke-width:3.19401312"
       inkscape:connector-curvature="0" />
    <path
       id="path19410"
       d="m 121.83688,348.80907 -0.78603,-0.1125 c 5.07793,-33.87402 3.38112,-65.26514 1.40985,-101.59704 -1.23519,-22.63261 -2.50779,-46.02625 -2.42049,-73.33758 0.0745,-22.03369 0.47402,-31.82784 0.84843,-41.29758 0.74858,-18.32815 1.3849,-34.148467 -0.47401,-130.4180631 l 0.79848,-0.01 c 1.85901,96.2945461 1.22274,112.1273631 0.47401,130.4555131 -0.37451,9.46974 -0.77352,19.25139 -0.84843,41.28508 -0.087,27.27388 1.1853,50.66757 2.40804,73.27518 1.98377,36.3818 3.69308,67.81042 -1.4099,101.75929"
       style="fill:#000000;fill-opacity:1;fill-rule:nonzero;stroke:none;stroke-width:3.19401312"
       inkscape:connector-curvature="0" />
    <path
       id="path19412"
       d="m 143.23425,291.24196 c -0.05,-14.89708 1.16034,-36.94322 2.55769,-62.47039 3.66813,-66.91209 8.68376,-158.552827 -0.58637,-241.934008 l 0.79847,-0.0875 c 9.27014,83.456031 4.25456,175.134218 0.58643,242.071208 -1.3974,25.50222 -2.6076,47.53596 -2.5577,62.42054 h -0.79852"
       style="fill:#000000;fill-opacity:1;fill-rule:nonzero;stroke:none;stroke-width:3.19401312"
       inkscape:connector-curvature="0" />
    <path
       id="path19414"
       d="m 167.85053,224.95369 -0.77358,-0.24951 c 10.15601,-30.34314 19.6135,-141.247757 1.44755,-245.065676 l 0.79848,-0.137005 c 18.16595,103.955174 8.70846,215.046951 -1.47245,245.452441"
       style="fill:#000000;fill-opacity:1;fill-rule:nonzero;stroke:none;stroke-width:3.19401312"
       inkscape:connector-curvature="0" />
    <path
       id="path19416"
       d="m 194.9623,234.22382 -0.63627,-0.49902 c 11.46586,-14.06115 16.60634,-56.98074 14.1236,-117.74182 C 206.36586,64.791403 198.95479,8.2848299 190.49579,-21.409483 l 0.76078,-0.224508 c 8.49675,29.7567149 15.90782,86.338141 17.99159,137.592071 1.45965,35.82039 1.55931,98.81479 -14.28586,118.26584"
       style="fill:#000000;fill-opacity:1;fill-rule:nonzero;stroke:none;stroke-width:3.19401312"
       inkscape:connector-curvature="0" />
    <path
       id="path19418"
       d="m 229.17302,181.16082 -0.79848,-0.11251 c 6.35063,-42.40802 11.50357,-92.264597 1.2479,-140.611479 -6.28838,-29.457255 -18.05385,-56.731131 -18.65272,-57.679365 l 0.67393,-0.449016 c 0.53626,0.84843 12.38929,28.147258 18.73962,57.966375 10.29332,48.459138 5.14043,98.415525 -1.21025,140.885895"
       style="fill:#000000;fill-opacity:1;fill-rule:nonzero;stroke:none;stroke-width:3.19401312"
       inkscape:connector-curvature="0" />
    <path
       id="path19420"
       d="m 263.09699,120.11273 h -0.79853 c 0,-0.31201 0.064,-0.96068 0.22351,-2.03367 6.25067,-43.306347 -7.92274,-81.534668 -20.92335,-105.976393 l -0.064,-0.187007 C 241.33661,10.643064 229.71934,-8.0094541 228.88346,-9.1573451 l 0.57397,-0.523968 c 0.12451,0.124504 12.26434,19.151585 12.87571,21.4472681 13.02582,24.553979 27.23663,62.932058 20.98591,106.425505 -0.13751,0.96074 -0.22351,1.65941 -0.22351,1.92142"
       style="fill:#000000;fill-opacity:1;fill-rule:nonzero;stroke:none;stroke-width:3.19401312"
       inkscape:connector-curvature="0" />
  </g>
</svg>
