
<svg  width="240.6" height="84.801" viewBox="0 0 710.6 144.801" xmlns="http://www.w3.org/2000/svg"><g id="svgGroup" stroke-linecap="round" fill-rule="evenodd" font-size="9pt" stroke="#000" stroke-width="0.25mm" fill="#000" style="stroke:#000;stroke-width:0.25mm;fill:#000"><path d="M 419 130.6 L 428.6 114.6 Q 435.8 120.6 444.8 124.4 A 46.697 46.697 0 0 0 455.541 127.42 A 64.236 64.236 0 0 0 465.8 128.2 Q 476.338 128.2 483.663 124.987 A 27.401 27.401 0 0 0 488.6 122.2 A 20.56 20.56 0 0 0 494.192 116.39 Q 496.825 112.178 496.989 106.732 A 24.232 24.232 0 0 0 497 106 Q 497 100.2 494.6 95.7 Q 492.212 91.223 485.368 86.943 A 51.798 51.798 0 0 0 485.3 86.9 Q 478.4 82.6 465 77.6 A 180.825 180.825 0 0 1 455.785 73.739 Q 447.644 70.041 442 66.3 A 43.863 43.863 0 0 1 435.821 61.405 Q 432.387 58.106 430.276 54.375 A 26.605 26.605 0 0 1 429.7 53.3 A 33.333 33.333 0 0 1 426.659 43.957 A 45.856 45.856 0 0 1 426 36 Q 426 26 431.5 17.9 A 34.355 34.355 0 0 1 440.406 9.025 A 46.771 46.771 0 0 1 447.7 4.9 Q 457.395 0.461 470.784 0.044 A 90.456 90.456 0 0 1 473.6 0 Q 486 0 495.9 2.5 Q 505.8 5 515.2 9.6 L 508.2 25.8 A 62.991 62.991 0 0 0 499.949 21.763 A 83.372 83.372 0 0 0 492.3 19.1 Q 483.2 16.4 473.2 16.4 A 54.374 54.374 0 0 0 465.14 16.96 Q 460.876 17.601 457.4 18.973 A 25.233 25.233 0 0 0 452.4 21.6 A 19.803 19.803 0 0 0 448.073 25.53 A 14.719 14.719 0 0 0 444.8 35 A 20.929 20.929 0 0 0 445.385 40.044 A 17.123 17.123 0 0 0 447 44.2 Q 449.111 48.039 455.182 51.693 A 47.005 47.005 0 0 0 455.7 52 Q 461.129 55.174 471.092 59.046 A 260.029 260.029 0 0 0 475.2 60.6 Q 486.241 64.705 494.026 69.111 A 71.007 71.007 0 0 1 499.9 72.8 Q 509 79.2 512.8 86.7 A 35.157 35.157 0 0 1 516.282 98.426 A 44.311 44.311 0 0 1 516.6 103.8 A 43.42 43.42 0 0 1 515.265 114.801 A 34.209 34.209 0 0 1 510.1 126 A 39.236 39.236 0 0 1 496.237 138.046 A 48.713 48.713 0 0 1 492.1 140 A 61.043 61.043 0 0 1 477.28 144.008 A 80.054 80.054 0 0 1 465.8 144.8 A 94.734 94.734 0 0 1 450.249 143.575 A 76.098 76.098 0 0 1 439.2 140.9 A 76.412 76.412 0 0 1 428.467 136.536 A 56.865 56.865 0 0 1 419 130.6 Z M 249 136.4 L 231.2 144.8 L 213.8 106.8 Q 207.2 92.6 197.2 86.6 A 39.304 39.304 0 0 0 186.199 82.196 Q 181.282 80.999 175.529 80.7 A 75.695 75.695 0 0 0 171.6 80.6 L 168.6 80.6 L 168.6 142.4 L 149.6 142.4 L 149.6 2.8 A 495.801 495.801 0 0 1 164.994 1.582 A 431.558 431.558 0 0 1 169.9 1.3 A 375.882 375.882 0 0 1 182.533 0.871 A 452.536 452.536 0 0 1 190.6 0.8 Q 206.638 0.8 217.691 4.882 A 40.191 40.191 0 0 1 229.1 11.2 A 34.829 34.829 0 0 1 238.359 22.269 Q 241.986 29.26 242 37.932 A 41.617 41.617 0 0 1 242 38 A 39.76 39.76 0 0 1 240.699 48.44 A 29.344 29.344 0 0 1 233.3 61.5 Q 224.6 70.4 208.2 74.8 A 47.313 47.313 0 0 1 215.058 78.526 A 40.854 40.854 0 0 1 217.8 80.5 Q 222 83.8 225.9 89.3 Q 228.848 93.458 231.853 99.5 A 130.366 130.366 0 0 1 233.8 103.6 L 249 136.4 Z M 129.6 137.4 L 112.2 144.4 L 96.6 104.4 L 31.8 104.4 L 16.2 144 L 0 137.4 L 54.8 2.4 L 75.6 2.4 L 129.6 137.4 Z M 313 142.4 L 294 142.4 L 294 19.2 L 251 19.2 L 251 2.4 L 356 2.4 L 356 19.2 L 313 19.2 L 313 142.4 Z M 590.6 142.4 L 571.6 142.4 L 571.6 19.2 L 528.6 19.2 L 528.6 2.4 L 633.6 2.4 L 633.6 19.2 L 590.6 19.2 L 590.6 142.4 Z M 395 142.4 L 376 142.4 L 376 2.4 L 395 2.4 L 395 142.4 Z M 64.2 21.2 L 37.8 88.4 L 90.4 88.4 L 64.2 21.2 Z M 168.6 17.6 L 168.6 64.6 L 190.6 64.6 Q 205 64.6 214 58.2 A 20.577 20.577 0 0 0 222.812 43.152 A 29.024 29.024 0 0 0 223 39.8 Q 223 29.8 214.6 23.3 A 27.846 27.846 0 0 0 205.872 18.857 Q 202.014 17.636 197.354 17.14 A 63.889 63.889 0 0 0 190.6 16.8 Q 183.8 16.8 178.4 17 Q 173 17.2 168.6 17.6 Z" vector-effect="non-scaling-stroke"/></g></svg>