<?xml version="1.0" encoding="UTF-8" standalone="no"?>
<!-- Created with Inkscape (http://www.inkscape.org/) -->

<svg
   xmlns:dc="http://purl.org/dc/elements/1.1/"
   xmlns:cc="http://creativecommons.org/ns#"
   xmlns:rdf="http://www.w3.org/1999/02/22-rdf-syntax-ns#"
   xmlns:svg="http://www.w3.org/2000/svg"
   xmlns="http://www.w3.org/2000/svg"
   xmlns:sodipodi="http://sodipodi.sourceforge.net/DTD/sodipodi-0.dtd"
   xmlns:inkscape="http://www.inkscape.org/namespaces/inkscape"
   width="192.32407mm"
   height="196.67935mm"
   viewBox="0 0 192.32407 196.67935"
   version="1.1"
   id="svg12652"
   inkscape:version="0.92.5 (2060ec1f9f, 2020-04-08)"
   sodipodi:docname="circle.svg">
  <defs
     id="defs12646" />
  <sodipodi:namedview
     id="base"
     pagecolor="#ffffff"
     bordercolor="#666666"
     borderopacity="1.0"
     inkscape:pageopacity="0.0"
     inkscape:pageshadow="2"
     inkscape:zoom="0.35"
     inkscape:cx="357.78006"
     inkscape:cy="340.92777"
     inkscape:document-units="mm"
     inkscape:current-layer="g12677"
     showgrid="false"
     inkscape:window-width="1920"
     inkscape:window-height="1016"
     inkscape:window-x="0"
     inkscape:window-y="1107"
     inkscape:window-maximized="1" />
  <metadata
     id="metadata12649">
    <rdf:RDF>
      <cc:Work
         rdf:about="">
        <dc:format>image/svg+xml</dc:format>
        <dc:type
           rdf:resource="http://purl.org/dc/dcmitype/StillImage" />
        <dc:title></dc:title>
      </cc:Work>
    </rdf:RDF>
  </metadata>
  <g
     inkscape:label="Layer 1"
     inkscape:groupmode="layer"
     id="layer1"
     transform="translate(-11.170693,-42.357793)">
    <g
       id="g12677"
       transform="matrix(7.1422275,0,0,7.1422275,-9.2102081,24.35058)">
      <g
         id="g12658">
        <path
           id="path12654"
           d="m 24.76,8.63 c 1.41,2.59 1.86,5.72 1.02,8.8 -1.72,6.26 -8.15,9.93 -14.37,8.19 -1.3,-0.36 -2.49,-0.93 -3.54,-1.67 1.46,2.68 3.96,4.79 7.12,5.68 6.21,1.73 12.64,-1.93 14.37,-8.19 1.35,-4.96 -0.64,-10.04 -4.6,-12.81 z"
           inkscape:connector-curvature="0" />
        <path
           id="path12656"
           d="M 6.86,15.15 C 8.58,8.89 15.01,5.22 21.23,6.96 22.53,7.32 23.72,7.89 24.77,8.63 23.31,5.95 20.81,3.84 17.65,2.95 11.43,1.22 5,4.88 3.28,11.14 1.92,16.09 3.91,21.18 7.87,23.95 6.46,21.36 6.01,18.23 6.86,15.15 Z"
           inkscape:connector-curvature="0" />
      </g>
    </g>
  </g>
</svg>
