<svg width="645" height="77" viewBox="320 0 1000 200" xmlns="http://www.w3.org/2000/svg"><g id="svgGroup" stroke-linecap="round" fill-rule="evenodd" font-size="9pt" stroke="#000" stroke-width="0.25mm" fill="#000" style="stroke:#000;stroke-width:0.25mm;fill:#000"><path d="M 129 141.601 L 111 141.601 L 111 1.601 L 136.2 1.601 L 198 118.001 L 198 1.601 L 216 1.601 L 216 141.601 L 191.2 141.601 L 129 26.001 L 129 141.601 Z M 964 141.601 L 946 141.601 L 946 1.601 L 971.2 1.601 L 1033 118.001 L 1033 1.601 L 1051 1.601 L 1051 141.601 L 1026.2 141.601 L 964 26.001 L 964 141.601 Z M 84 141.601 L 0 141.601 L 0 1.601 L 84 1.601 L 84 18.001 L 19 18.001 L 19 60.601 L 75 60.601 L 75 76.601 L 19 76.601 L 19 125.201 L 84 125.201 L 84 141.601 Z M 568.4 141.601 L 484.4 141.601 L 484.4 1.601 L 568.4 1.601 L 568.4 18.001 L 503.4 18.001 L 503.4 60.601 L 559.4 60.601 L 559.4 76.601 L 503.4 76.601 L 503.4 125.201 L 568.4 125.201 L 568.4 141.601 Z M 919 141.601 L 835 141.601 L 835 1.601 L 919 1.601 L 919 18.001 L 854 18.001 L 854 60.601 L 910 60.601 L 910 76.601 L 854 76.601 L 854 125.201 L 919 125.201 L 919 141.601 Z M 1171 141.601 L 1087 141.601 L 1087 1.601 L 1171 1.601 L 1171 18.001 L 1106 18.001 L 1106 60.601 L 1162 60.601 L 1162 76.601 L 1106 76.601 L 1106 125.201 L 1171 125.201 L 1171 141.601 Z M 1195 88.401 L 1195 1.601 L 1214 1.601 L 1214 85.401 A 78.963 78.963 0 0 0 1214.801 97.022 Q 1215.723 103.208 1217.707 108.227 A 35.311 35.311 0 0 0 1222.2 116.401 Q 1230.4 127.401 1246.8 127.401 A 42.771 42.771 0 0 0 1256.808 126.303 A 26.909 26.909 0 0 0 1272.2 116.701 A 34.763 34.763 0 0 0 1277.792 105.911 Q 1280.6 97.311 1280.6 85.401 L 1280.6 1.601 L 1299 1.601 L 1299 87.601 Q 1299 105.201 1292.5 117.901 A 47.183 47.183 0 0 1 1281.262 132.393 A 44.856 44.856 0 0 1 1274.3 137.301 A 50.047 50.047 0 0 1 1257.178 143.21 A 65.631 65.631 0 0 1 1246.8 144.001 A 65.413 65.413 0 0 1 1230.789 142.152 A 44.984 44.984 0 0 1 1208.8 129.601 A 46.638 46.638 0 0 1 1197.883 110.308 Q 1195.721 103.064 1195.18 94.364 A 96.193 96.193 0 0 1 1195 88.401 Z M 460.4 135.601 L 442.6 144.001 L 425.2 106.001 Q 418.6 91.801 408.6 85.801 A 39.304 39.304 0 0 0 397.599 81.396 Q 392.682 80.2 386.929 79.901 A 75.695 75.695 0 0 0 383 79.801 L 380 79.801 L 380 141.601 L 361 141.601 L 361 2.001 A 495.801 495.801 0 0 1 376.394 0.783 A 431.558 431.558 0 0 1 381.3 0.501 A 375.882 375.882 0 0 1 393.933 0.072 A 452.536 452.536 0 0 1 402 0.001 Q 418.038 0.001 429.091 4.083 A 40.191 40.191 0 0 1 440.5 10.401 A 34.829 34.829 0 0 1 449.759 21.47 Q 453.386 28.461 453.4 37.133 A 41.617 41.617 0 0 1 453.4 37.201 A 39.76 39.76 0 0 1 452.099 47.641 A 29.344 29.344 0 0 1 444.7 60.701 Q 436 69.601 419.6 74.001 A 47.313 47.313 0 0 1 426.458 77.727 A 40.854 40.854 0 0 1 429.2 79.701 Q 433.4 83.001 437.3 88.501 Q 440.248 92.659 443.253 98.701 A 130.366 130.366 0 0 1 445.2 102.801 L 460.4 135.601 Z M 811 135.601 L 793.2 144.001 L 775.8 106.001 Q 769.2 91.801 759.2 85.801 A 39.304 39.304 0 0 0 748.199 81.396 Q 743.282 80.2 737.529 79.901 A 75.695 75.695 0 0 0 733.6 79.801 L 730.6 79.801 L 730.6 141.601 L 711.6 141.601 L 711.6 2.001 A 495.801 495.801 0 0 1 726.994 0.783 A 431.558 431.558 0 0 1 731.9 0.501 A 375.882 375.882 0 0 1 744.533 0.072 A 452.536 452.536 0 0 1 752.6 0.001 Q 768.638 0.001 779.691 4.083 A 40.191 40.191 0 0 1 791.1 10.401 A 34.829 34.829 0 0 1 800.359 21.47 Q 803.986 28.461 804 37.133 A 41.617 41.617 0 0 1 804 37.201 A 39.76 39.76 0 0 1 802.699 47.641 A 29.344 29.344 0 0 1 795.3 60.701 Q 786.6 69.601 770.2 74.001 A 47.313 47.313 0 0 1 777.058 77.727 A 40.854 40.854 0 0 1 779.8 79.701 Q 784 83.001 787.9 88.501 Q 790.848 92.659 793.853 98.701 A 130.366 130.366 0 0 1 795.8 102.801 L 811 135.601 Z M 1431.4 135.601 L 1413.6 144.001 L 1396.2 106.001 Q 1389.6 91.801 1379.6 85.801 A 39.304 39.304 0 0 0 1368.599 81.396 Q 1363.682 80.2 1357.929 79.901 A 75.695 75.695 0 0 0 1354 79.801 L 1351 79.801 L 1351 141.601 L 1332 141.601 L 1332 2.001 A 495.801 495.801 0 0 1 1347.394 0.783 A 431.558 431.558 0 0 1 1352.3 0.501 A 375.882 375.882 0 0 1 1364.933 0.072 A 452.536 452.536 0 0 1 1373 0.001 Q 1389.038 0.001 1400.091 4.083 A 40.191 40.191 0 0 1 1411.5 10.401 A 34.829 34.829 0 0 1 1420.759 21.47 Q 1424.386 28.461 1424.4 37.133 A 41.617 41.617 0 0 1 1424.4 37.201 A 39.76 39.76 0 0 1 1423.099 47.641 A 29.344 29.344 0 0 1 1415.7 60.701 Q 1407 69.601 1390.6 74.001 A 47.313 47.313 0 0 1 1397.458 77.727 A 40.854 40.854 0 0 1 1400.2 79.701 Q 1404.4 83.001 1408.3 88.501 Q 1411.248 92.659 1414.253 98.701 A 130.366 130.366 0 0 1 1416.2 102.801 L 1431.4 135.601 Z M 298 141.601 L 279 141.601 L 279 18.401 L 236 18.401 L 236 1.601 L 341 1.601 L 341 18.401 L 298 18.401 L 298 141.601 Z M 614.4 141.601 L 595.4 141.601 L 595.4 2.001 Q 603.6 1.001 613.5 0.501 A 401.613 401.613 0 0 1 631.361 0.009 A 443.908 443.908 0 0 1 634 0.001 A 91.917 91.917 0 0 1 647.279 0.909 Q 654.371 1.945 660.343 4.165 A 52.022 52.022 0 0 1 663.6 5.501 A 49.213 49.213 0 0 1 673.763 11.558 A 38.747 38.747 0 0 1 682.2 20.601 Q 688.6 30.201 688.6 42.601 A 50.516 50.516 0 0 1 687.184 54.846 A 38.536 38.536 0 0 1 681.2 68.001 A 44.625 44.625 0 0 1 666.097 81.261 A 56.131 56.131 0 0 1 660.6 83.901 Q 647.4 89.401 630 89.401 A 208.046 208.046 0 0 1 620.93 89.211 A 165.858 165.858 0 0 1 614.4 88.801 L 614.4 141.601 Z M 614.4 16.801 L 614.4 72.601 A 95.938 95.938 0 0 0 616.997 72.887 Q 619.325 73.114 622.2 73.301 Q 626.8 73.601 632.4 73.601 Q 650.2 73.601 660 65.601 A 25.793 25.793 0 0 0 669.71 46.717 A 34.64 34.64 0 0 0 669.8 44.201 A 28.904 28.904 0 0 0 668.278 34.614 A 24.271 24.271 0 0 0 660.4 23.601 A 30.925 30.925 0 0 0 650.239 18.274 Q 645.787 16.854 640.4 16.321 A 69.16 69.16 0 0 0 633.6 16.001 Q 628.2 16.001 623.4 16.201 Q 618.6 16.401 614.4 16.801 Z M 380 16.801 L 380 63.801 L 402 63.801 Q 416.4 63.801 425.4 57.401 A 20.577 20.577 0 0 0 434.212 42.353 A 29.024 29.024 0 0 0 434.4 39.001 Q 434.4 29.001 426 22.501 A 27.846 27.846 0 0 0 417.272 18.058 Q 413.414 16.837 408.754 16.341 A 63.889 63.889 0 0 0 402 16.001 Q 395.2 16.001 389.8 16.201 Q 384.4 16.401 380 16.801 Z M 730.6 16.801 L 730.6 63.801 L 752.6 63.801 Q 767 63.801 776 57.401 A 20.577 20.577 0 0 0 784.812 42.353 A 29.024 29.024 0 0 0 785 39.001 Q 785 29.001 776.6 22.501 A 27.846 27.846 0 0 0 767.872 18.058 Q 764.014 16.837 759.354 16.341 A 63.889 63.889 0 0 0 752.6 16.001 Q 745.8 16.001 740.4 16.201 Q 735 16.401 730.6 16.801 Z M 1351 16.801 L 1351 63.801 L 1373 63.801 Q 1387.4 63.801 1396.4 57.401 A 20.577 20.577 0 0 0 1405.212 42.353 A 29.024 29.024 0 0 0 1405.4 39.001 Q 1405.4 29.001 1397 22.501 A 27.846 27.846 0 0 0 1388.272 18.058 Q 1384.414 16.837 1379.754 16.341 A 63.889 63.889 0 0 0 1373 16.001 Q 1366.2 16.001 1360.8 16.201 Q 1355.4 16.401 1351 16.801 Z" vector-effect="non-scaling-stroke"/></g></svg>