<?xml version="1.0" encoding="UTF-8" standalone="no"?>
<!-- Created with Inkscape (http://www.inkscape.org/) -->

<svg
   xmlns:dc="http://purl.org/dc/elements/1.1/"
   xmlns:cc="http://creativecommons.org/ns#"
   xmlns:rdf="http://www.w3.org/1999/02/22-rdf-syntax-ns#"
   xmlns:svg="http://www.w3.org/2000/svg"
   xmlns="http://www.w3.org/2000/svg"
   xmlns:sodipodi="http://sodipodi.sourceforge.net/DTD/sodipodi-0.dtd"
   xmlns:inkscape="http://www.inkscape.org/namespaces/inkscape"
   width="327.92065mm"
   height="328.0679mm"
   viewBox="0 0 327.92068 328.06793"
   version="1.1"
   id="svg12652"
   inkscape:version="0.92.5 (2060ec1f9f, 2020-04-08)"
   sodipodi:docname="flower_three.svg">
  <defs
     id="defs12646">
    <style
       id="style13253">
      .cls-1 {
        stroke-width: 0px;
      }
    </style>
  </defs>
  <sodipodi:namedview
     id="base"
     pagecolor="#ffffff"
     bordercolor="#666666"
     borderopacity="1.0"
     inkscape:pageopacity="0.0"
     inkscape:pageshadow="2"
     inkscape:zoom="0.35"
     inkscape:cx="857.12614"
     inkscape:cy="346.05808"
     inkscape:document-units="mm"
     inkscape:current-layer="g15274"
     showgrid="false"
     inkscape:window-width="1210"
     inkscape:window-height="1016"
     inkscape:window-x="710"
     inkscape:window-y="1107"
     inkscape:window-maximized="0" />
  <metadata
     id="metadata12649">
    <rdf:RDF>
      <cc:Work
         rdf:about="">
        <dc:format>image/svg+xml</dc:format>
        <dc:type
           rdf:resource="http://purl.org/dc/dcmitype/StillImage" />
        <dc:title></dc:title>
      </cc:Work>
    </rdf:RDF>
  </metadata>
  <g
     inkscape:label="Layer 1"
     inkscape:groupmode="layer"
     id="layer1"
     transform="translate(120.94795,80.659344)">
    <g
       id="g12677"
       transform="matrix(7.1422275,0,0,7.1422275,-9.2102081,24.35058)">
      <g
         id="g12718"
         transform="matrix(0.07239319,0,0,0.07239319,-3.0905042,-3.852966)">
        <g
           id="g12759"
           transform="matrix(0.9976262,0,0,0.9976262,7.9696602,-2.3539829)">
          <g
             id="g12800"
             transform="matrix(5.3491048,0,0,5.3491048,40.611695,-289.72993)">
            <g
               id="g12782"
               transform="translate(-20.274298,50.411767)" />
            <g
               id="g12840"
               transform="matrix(0.08340627,0,0,0.08340627,-50.76575,38.206551)">
              <g
                 id="g12897"
                 transform="matrix(48.66352,0,0,48.66352,492.27015,267.37763)">
                <g
                   id="g12947"
                   transform="matrix(0.30851695,0,0,0.30851695,0.59272165,1.8170079)">
                  <g
                     id="g12988"
                     transform="matrix(0.14522106,0,0,0.14522106,-11.171931,-14.678001)">
                    <g
                       id="g13029"
                       transform="matrix(0.96423543,0,0,0.96423543,15.509735,9.0701753)">
                      <g
                         id="g13067"
                         transform="matrix(0.97526942,0,0,0.97526942,9.1915037,7.3698267)">
                        <g
                           style="clip-rule:evenodd;fill-rule:evenodd;image-rendering:optimizeQuality;shape-rendering:geometricPrecision;text-rendering:geometricPrecision"
                           id="g13108"
                           transform="matrix(17.668242,0,0,17.668242,-91.339017,-116.63537)">
                          <g
                             id="g13148"
                             transform="matrix(0.03173732,0,0,0.03173732,-14.659457,5.2852684)">
                            <g
                               id="g13188"
                               transform="translate(341.99431,-20.073086)">
                              <g
                                 id="g13232"
                                 transform="matrix(11.488495,0,0,11.488495,212.35182,-10.910326)">
                                <g
                                   id="g15049"
                                   transform="matrix(1.0354606,0,0,1.0354606,-8.751806,-1.6795511)">
                                <g
                                   id="g15099"
                                   transform="matrix(2.2940754,0,0,2.2940754,7.6398984,-0.75067886)">
                                <g
                                   id="g15140"
                                   transform="matrix(0.08645109,0,0,0.08645109,-7.1744098,-6.2327831)">
                                <g
                                   id="g15196"
                                   transform="matrix(1.096003,0,0,1.096003,7.6998232,-5.3202773)">
                                <g
                                   id="g15236"
                                   transform="matrix(0.43617686,0,0,0.43617686,-42.249017,-32.588341)">
                                <g
                                   id="g15274"
                                   transform="matrix(24.557279,0,0,24.557279,-296.9021,-35.334107)">
                                <path
                                   id="path15257"
                                   d="m 51.395694,30.83049 c 0.180842,0.160748 0.361684,0.34159 0.522433,0.522432 0.944396,0.823835 2.170103,1.306081 3.51637,1.306081 2.953752,0 5.344884,-2.391132 5.344884,-5.344884 0,-2.953751 -2.391132,-5.344883 -5.344884,-5.344883 -1.346267,0 -2.571974,0.502339 -3.496277,1.30608 -0.160748,0.180842 -0.34159,0.361684 -0.542526,0.542526 -1.185519,1.064958 -2.752815,1.707952 -4.460767,1.707952 -1.064958,0 -2.069635,-0.28131 -2.953751,-0.723368 0.321497,-0.823835 0.803742,-1.607484 1.466829,-2.290664 1.205613,-1.205613 2.772909,-1.848607 4.360299,-1.949074 0.241123,-0.02009 0.502339,-0.02009 0.743462,0 1.245799,-0.08038 2.451412,-0.602807 3.395809,-1.547203 2.089729,-2.089729 2.089729,-5.465445 0,-7.555174 -2.089729,-2.0897286 -5.465445,-2.0897286 -7.555174,0 -0.944396,0.944397 -1.466828,2.170103 -1.547203,3.415903 0.02009,0.241123 0.02009,0.502339 0,0.743461 -0.08037,1.58739 -0.743461,3.134593 -1.949074,4.3603 -0.642993,0.642993 -1.386454,1.105145 -2.170103,1.446735 -0.361683,-0.823835 -0.562619,-1.707951 -0.562619,-2.652348 0,-1.707951 0.642994,-3.275248 1.707952,-4.460767 0.160748,-0.180842 0.34159,-0.361684 0.542525,-0.522432 0.823836,-0.944397 1.306081,-2.170103 1.306081,-3.496277 0,-2.9537518 -2.391132,-5.3448838 -5.344884,-5.3448838 -2.953751,0 -5.344883,2.391132 -5.344883,5.3448838 0,1.346267 0.502339,2.571973 1.306081,3.51637 0.180842,0.160748 0.361683,0.34159 0.522432,0.522432 1.064958,1.18552 1.707951,2.752816 1.707951,4.460768 0,0.984583 -0.241122,1.92898 -0.6229,2.772909 -0.924303,-0.321497 -1.788325,-0.823835 -2.531786,-1.567297 -1.205613,-1.205612 -1.848607,-2.772909 -1.949074,-4.360299 -0.02009,-0.261216 -0.02009,-0.502339 0,-0.743461 -0.08038,-1.2458 -0.602807,-2.451413 -1.547204,-3.39581 -2.089728,-2.0897285 -5.465444,-2.0897285 -7.555173,0 -2.089729,2.089729 -2.089729,5.485538 0,7.555174 0.944397,0.944396 2.170103,1.466829 3.415903,1.547203 0.241122,-0.02009 0.502339,-0.02009 0.743461,0 1.58739,0.08037 3.134593,0.743461 4.3603,1.949074 0.723367,0.723367 1.205612,1.547203 1.527109,2.451412 -0.783648,0.321497 -1.627577,0.502339 -2.531787,0.502339 -1.707951,0 -3.275248,-0.642993 -4.460767,-1.707951 -0.180842,-0.160749 -0.361684,-0.341591 -0.542526,-0.542526 -0.944396,-0.823836 -2.170103,-1.306081 -3.496277,-1.306081 -2.953751,0 -5.344883,2.391132 -5.344883,5.344884 0,2.953751 2.391132,5.344883 5.344883,5.344883 1.346268,0 2.571974,-0.502339 3.516371,-1.306081 0.160748,-0.180841 0.34159,-0.361683 0.522432,-0.522432 1.185519,-1.064958 2.752816,-1.707951 4.460767,-1.707951 0.90421,0 1.768232,0.180842 2.551881,0.522432 -0.321497,0.90421 -0.823836,1.768232 -1.547203,2.4916 -1.205613,1.205613 -2.77291,1.8687 -4.3603,1.949074 -0.241122,0.02009 -0.502339,0.02009 -0.743461,0 -1.2458,0.08037 -2.451413,0.602806 -3.415903,1.547203 -2.089729,2.089729 -2.089729,5.465444 0,7.555173 2.089729,2.089729 5.485538,2.089729 7.555173,0 0.944397,-0.944396 1.466829,-2.170103 1.547204,-3.395809 -0.02009,-0.241123 -0.02009,-0.502339 0,-0.763555 0.08037,-1.58739 0.743461,-3.134593 1.949074,-4.360299 0.743461,-0.743462 1.627577,-1.2458 2.571973,-1.567297 0.401871,0.843929 0.6229,1.788326 0.6229,2.793003 0,1.707951 -0.642993,3.275248 -1.707951,4.460767 -0.160748,0.180842 -0.34159,0.361684 -0.522432,0.522432 -0.823836,0.944397 -1.306081,2.170103 -1.306081,3.516371 0,2.953751 2.391132,5.344883 5.344884,5.344883 2.953751,0 5.344883,-2.391132 5.344883,-5.344883 0,-1.346268 -0.502339,-2.571974 -1.306081,-3.496277 -0.180842,-0.160748 -0.361683,-0.34159 -0.542525,-0.542526 -1.064958,-1.185519 -1.707952,-2.752816 -1.707952,-4.460767 0,-0.944397 0.200936,-1.828513 0.562619,-2.632255 0.763555,0.321497 1.507016,0.803742 2.129916,1.426642 1.205613,1.205613 1.8687,2.77291 1.949074,4.3603 0.02009,0.241122 0.02009,0.502338 0,0.743461 0.08038,1.2458 0.602807,2.451413 1.547203,3.415903 2.089729,2.089729 5.465445,2.089729 7.555174,0 2.089729,-2.089729 2.089729,-5.485538 0,-7.555174 -0.944397,-0.944396 -2.170103,-1.466829 -3.395809,-1.547203 -0.241123,0.02009 -0.502339,0.02009 -0.743462,0 -1.58739,-0.08037 -3.134593,-0.743461 -4.360299,-1.949074 -0.663087,-0.663087 -1.145332,-1.426641 -1.466829,-2.250477 0.884116,-0.442058 1.888793,-0.703274 2.933658,-0.703274 1.748138,-0.06028 3.315435,0.582713 4.48086,1.647671 z"
                                   inkscape:connector-curvature="0"
                                   style="stroke-width:2.00935459" />
                                </g>
                                </g>
                                </g>
                                </g>
                                </g>
                                </g>
                              </g>
                            </g>
                          </g>
                        </g>
                      </g>
                    </g>
                  </g>
                </g>
              </g>
            </g>
          </g>
        </g>
      </g>
    </g>
  </g>
</svg>
