<?xml version="1.0" encoding="UTF-8" standalone="no"?>
<!-- Created with Inkscape (http://www.inkscape.org/) -->

<svg
   xmlns:dc="http://purl.org/dc/elements/1.1/"
   xmlns:cc="http://creativecommons.org/ns#"
   xmlns:rdf="http://www.w3.org/1999/02/22-rdf-syntax-ns#"
   xmlns:svg="http://www.w3.org/2000/svg"
   xmlns="http://www.w3.org/2000/svg"
   xmlns:sodipodi="http://sodipodi.sourceforge.net/DTD/sodipodi-0.dtd"
   xmlns:inkscape="http://www.inkscape.org/namespaces/inkscape"
   width="235.61517mm"
   height="235.61517mm"
   viewBox="0 0 235.61519 235.61518"
   version="1.1"
   id="svg12652"
   inkscape:version="0.92.5 (2060ec1f9f, 2020-04-08)"
   sodipodi:docname="flower_two.svg">
  <defs
     id="defs12646" />
  <sodipodi:namedview
     id="base"
     pagecolor="#ffffff"
     bordercolor="#666666"
     borderopacity="1.0"
     inkscape:pageopacity="0.0"
     inkscape:pageshadow="2"
     inkscape:zoom="0.35"
     inkscape:cx="593.06854"
     inkscape:cy="302.67928"
     inkscape:document-units="mm"
     inkscape:current-layer="g13029"
     showgrid="false"
     inkscape:window-width="1210"
     inkscape:window-height="1016"
     inkscape:window-x="710"
     inkscape:window-y="1107"
     inkscape:window-maximized="0" />
  <metadata
     id="metadata12649">
    <rdf:RDF>
      <cc:Work
         rdf:about="">
        <dc:format>image/svg+xml</dc:format>
        <dc:type
           rdf:resource="http://purl.org/dc/dcmitype/StillImage" />
        <dc:title></dc:title>
      </cc:Work>
    </rdf:RDF>
  </metadata>
  <g
     inkscape:label="Layer 1"
     inkscape:groupmode="layer"
     id="layer1"
     transform="translate(51.082721,6.6979083)">
    <g
       id="g12677"
       transform="matrix(7.1422275,0,0,7.1422275,-9.2102081,24.35058)">
      <g
         id="g12718"
         transform="matrix(0.07239319,0,0,0.07239319,-3.0905042,-3.852966)">
        <g
           id="g12759"
           transform="matrix(0.9976262,0,0,0.9976262,7.9696602,-2.3539829)">
          <g
             id="g12800"
             transform="matrix(5.3491048,0,0,5.3491048,40.611695,-289.72993)">
            <g
               id="g12782"
               transform="translate(-20.274298,50.411767)" />
            <g
               id="g12840"
               transform="matrix(0.08340627,0,0,0.08340627,-50.76575,38.206551)">
              <g
                 id="g12897"
                 transform="matrix(48.66352,0,0,48.66352,492.27015,267.37763)">
                <g
                   id="g12947"
                   transform="matrix(0.30851695,0,0,0.30851695,0.59272165,1.8170079)">
                  <g
                     id="g12988"
                     transform="matrix(0.14522106,0,0,0.14522106,-11.171931,-14.678001)">
                    <g
                       id="g13029"
                       transform="matrix(0.96423543,0,0,0.96423543,15.509735,9.0701753)">
                      <g
                         id="g13011">
                        <path
                           id="path13009"
                           d="m 499.6,14.4 v -2 h -2 c -65.1,0 -126.2,25.3 -172.2,71.3 -38.5,38.5 -62.5,87.7 -69.3,140.9 C 249.3,171.4 225.3,122.3 186.8,83.7 140.8,37.7 79.6,12.4 14.6,12.4 h -2 v 2 c 0,65.1 25.3,126.2 71.3,172.2 38.5,38.5 87.7,62.5 140.9,69.3 -53.2,6.8 -102.3,30.8 -140.9,69.3 -46,46 -71.3,107.2 -71.3,172.2 v 2 h 2 c 65.1,0 126.2,-25.3 172.2,-71.3 38.5,-38.5 62.5,-87.7 69.3,-140.9 6.8,53.2 30.8,102.3 69.3,140.9 46,46 107.2,71.3 172.2,71.3 h 2 v -2 c 0,-65.1 -25.3,-126.2 -71.3,-172.2 -38.5,-38.5 -87.7,-62.5 -140.9,-69.3 53.2,-6.8 102.3,-30.8 140.9,-69.3 45.9,-45.9 71.3,-107.1 71.3,-172.2 z m -315.8,411 C 139,470.2 79.6,495 16.4,495.6 16.9,432.4 41.8,373 86.6,328.2 131.4,283.4 190.8,258.6 254,258 253.5,321.3 228.6,380.6 183.8,425.4 Z M 86.6,183.8 C 41.8,139.1 16.9,79.7 16.4,16.4 79.6,16.9 139,41.8 183.8,86.6 228.6,131.4 253.4,190.8 254,254 190.7,253.5 131.4,228.6 86.6,183.8 Z M 425.4,328.2 C 470.2,373 495,432.4 495.6,495.6 432.4,495.1 373,470.2 328.2,425.4 283.4,380.6 258.5,321.3 258,258 c 63.3,0.5 122.6,25.4 167.4,70.2 z M 258,254 C 258.5,190.8 283.4,131.4 328.2,86.6 373,41.8 432.4,17 495.6,16.4 495.1,79.6 470.2,139 425.4,183.8 380.6,228.6 321.3,253.5 258,254 Z"
                           inkscape:connector-curvature="0" />
                      </g>
                    </g>
                  </g>
                </g>
              </g>
            </g>
          </g>
        </g>
      </g>
    </g>
  </g>
</svg>
