<?xml version="1.0" encoding="UTF-8" standalone="no"?>
<!-- Created with Inkscape (http://www.inkscape.org/) -->

<svg
   xmlns:dc="http://purl.org/dc/elements/1.1/"
   xmlns:cc="http://creativecommons.org/ns#"
   xmlns:rdf="http://www.w3.org/1999/02/22-rdf-syntax-ns#"
   xmlns:svg="http://www.w3.org/2000/svg"
   xmlns="http://www.w3.org/2000/svg"
   xmlns:sodipodi="http://sodipodi.sourceforge.net/DTD/sodipodi-0.dtd"
   xmlns:inkscape="http://www.inkscape.org/namespaces/inkscape"
   width="242.14668mm"
   height="242.14668mm"
   viewBox="0 0 242.1467 242.14669"
   version="1.1"
   id="svg12652"
   inkscape:version="0.92.5 (2060ec1f9f, 2020-04-08)"
   sodipodi:docname="flower.svg">
  <defs
     id="defs12646" />
  <sodipodi:namedview
     id="base"
     pagecolor="#ffffff"
     bordercolor="#666666"
     borderopacity="1.0"
     inkscape:pageopacity="0.0"
     inkscape:pageshadow="2"
     inkscape:zoom="0.35"
     inkscape:cx="617.64411"
     inkscape:cy="315.36742"
     inkscape:document-units="mm"
     inkscape:current-layer="g12988"
     showgrid="false"
     inkscape:window-width="1210"
     inkscape:window-height="1016"
     inkscape:window-x="710"
     inkscape:window-y="1107"
     inkscape:window-maximized="0" />
  <metadata
     id="metadata12649">
    <rdf:RDF>
      <cc:Work
         rdf:about="">
        <dc:format>image/svg+xml</dc:format>
        <dc:type
           rdf:resource="http://purl.org/dc/dcmitype/StillImage" />
        <dc:title></dc:title>
      </cc:Work>
    </rdf:RDF>
  </metadata>
  <g
     inkscape:label="Layer 1"
     inkscape:groupmode="layer"
     id="layer1"
     transform="translate(57.585008,9.8723552)">
    <g
       id="g12677"
       transform="matrix(7.1422275,0,0,7.1422275,-9.2102081,24.35058)">
      <g
         id="g12718"
         transform="matrix(0.07239319,0,0,0.07239319,-3.0905042,-3.852966)">
        <g
           id="g12759"
           transform="matrix(0.9976262,0,0,0.9976262,7.9696602,-2.3539829)">
          <g
             id="g12800"
             transform="matrix(5.3491048,0,0,5.3491048,40.611695,-289.72993)">
            <g
               id="g12782"
               transform="translate(-20.274298,50.411767)" />
            <g
               id="g12840"
               transform="matrix(0.08340627,0,0,0.08340627,-50.76575,38.206551)">
              <g
                 id="g12897"
                 transform="matrix(48.66352,0,0,48.66352,492.27015,267.37763)">
                <g
                   id="g12947"
                   transform="matrix(0.30851695,0,0,0.30851695,0.59272165,1.8170079)">
                  <g
                     id="g12988"
                     transform="matrix(0.14522106,0,0,0.14522106,-11.171931,-14.678001)">
                    <g
                       id="g12970">
                      <path
                         id="path12968"
                         d="M 335,292.8 260.5,256 335,219.2 C 388.8,192.6 437.6,157.6 480.1,115.1 491.2,104 497.3,89.2 497.3,73.5 497.3,41.1 470.9,14.7 438.5,14.7 422.8,14.7 408,20.8 396.9,31.9 354.5,74.3 319.4,123.2 292.8,177 L 256,251.5 219.2,177 C 192.6,123.2 157.6,74.4 115.1,31.9 104,20.8 89.2,14.7 73.5,14.7 c -32.4,0 -58.8,26.4 -58.8,58.8 0,15.7 6.1,30.5 17.2,41.6 42.4,42.4 91.3,77.5 145.1,104.1 L 251.5,256 177,292.8 C 123.2,319.4 74.4,354.4 31.9,396.9 20.8,408 14.7,422.8 14.7,438.5 c 0,32.4 26.4,58.8 58.8,58.8 15.7,0 30.5,-6.1 41.6,-17.2 42.4,-42.4 77.5,-91.3 104.1,-145.1 L 256,260.5 292.8,335 c 26.6,53.8 61.6,102.6 104.1,145.1 11.1,11.1 25.9,17.2 41.6,17.2 32.4,0 58.8,-26.4 58.8,-58.8 0,-15.7 -6.1,-30.5 -17.2,-41.6 C 437.6,354.4 388.8,319.4 335,292.8 Z M 296.4,178.7 c 26.4,-53.4 61.2,-101.9 103.3,-144 10.4,-10.4 24.1,-16.1 38.8,-16.1 30.2,0 54.8,24.6 54.8,54.8 0,14.6 -5.7,28.4 -16.1,38.8 -42.1,42.1 -90.6,76.9 -144,103.3 l -72.8,36 z M 34.7,112.3 C 24.3,101.9 18.6,88.2 18.6,73.5 c 0,-30.2 24.6,-54.8 54.8,-54.8 14.6,0 28.4,5.7 38.8,16.1 42.1,42.1 76.9,90.6 103.3,144 l 36,72.8 -72.8,-36 C 125.3,189.2 76.9,154.4 34.7,112.3 Z m 180.9,221 c -26.4,53.4 -61.2,101.9 -103.3,144 -10.4,10.4 -24.1,16.1 -38.8,16.1 -30.2,0 -54.8,-24.6 -54.8,-54.8 0,-14.6 5.7,-28.4 16.1,-38.8 42.1,-42.1 90.6,-76.9 144,-103.3 l 72.8,-36 z m 222.9,160 c -14.6,0 -28.4,-5.7 -38.8,-16.1 -42.1,-42.1 -76.9,-90.6 -103.3,-144 l -36,-72.8 72.8,36 c 53.4,26.4 101.9,61.2 144,103.3 10.4,10.4 16.1,24.1 16.1,38.8 0,30.2 -24.6,54.8 -54.8,54.8 z"
                         inkscape:connector-curvature="0" />
                    </g>
                  </g>
                </g>
              </g>
            </g>
          </g>
        </g>
      </g>
    </g>
  </g>
</svg>
