<?xml version="1.0" encoding="UTF-8" standalone="no"?>
<!-- Created with Inkscape (http://www.inkscape.org/) -->

<svg
   xmlns:dc="http://purl.org/dc/elements/1.1/"
   xmlns:cc="http://creativecommons.org/ns#"
   xmlns:rdf="http://www.w3.org/1999/02/22-rdf-syntax-ns#"
   xmlns:svg="http://www.w3.org/2000/svg"
   xmlns="http://www.w3.org/2000/svg"
   xmlns:sodipodi="http://sodipodi.sourceforge.net/DTD/sodipodi-0.dtd"
   xmlns:inkscape="http://www.inkscape.org/namespaces/inkscape"
   width="231.20398mm"
   height="193.50446mm"
   viewBox="0 0 231.204 193.50447"
   version="1.1"
   id="svg12652"
   inkscape:version="0.92.5 (2060ec1f9f, 2020-04-08)"
   sodipodi:docname="folder.svg">
  <defs
     id="defs12646" />
  <sodipodi:namedview
     id="base"
     pagecolor="#ffffff"
     bordercolor="#666666"
     borderopacity="1.0"
     inkscape:pageopacity="0.0"
     inkscape:pageshadow="2"
     inkscape:zoom="0.35"
     inkscape:cx="532.24064"
     inkscape:cy="270.59627"
     inkscape:document-units="mm"
     inkscape:current-layer="g13232"
     showgrid="false"
     inkscape:window-width="1210"
     inkscape:window-height="1016"
     inkscape:window-x="710"
     inkscape:window-y="1107"
     inkscape:window-maximized="0" />
  <metadata
     id="metadata12649">
    <rdf:RDF>
      <cc:Work
         rdf:about="">
        <dc:format>image/svg+xml</dc:format>
        <dc:type
           rdf:resource="http://purl.org/dc/dcmitype/StillImage" />
        <dc:title></dc:title>
      </cc:Work>
    </rdf:RDF>
  </metadata>
  <g
     inkscape:label="Layer 1"
     inkscape:groupmode="layer"
     id="layer1"
     transform="translate(34.988665,-26.92421)">
    <g
       id="g12677"
       transform="matrix(7.1422275,0,0,7.1422275,-9.2102081,24.35058)">
      <g
         id="g12718"
         transform="matrix(0.07239319,0,0,0.07239319,-3.0905042,-3.852966)">
        <g
           id="g12759"
           transform="matrix(0.9976262,0,0,0.9976262,7.9696602,-2.3539829)">
          <g
             id="g12800"
             transform="matrix(5.3491048,0,0,5.3491048,40.611695,-289.72993)">
            <g
               id="g12782"
               transform="translate(-20.274298,50.411767)" />
            <g
               id="g12840"
               transform="matrix(0.08340627,0,0,0.08340627,-50.76575,38.206551)">
              <g
                 id="g12897"
                 transform="matrix(48.66352,0,0,48.66352,492.27015,267.37763)">
                <g
                   id="g12947"
                   transform="matrix(0.30851695,0,0,0.30851695,0.59272165,1.8170079)">
                  <g
                     id="g12988"
                     transform="matrix(0.14522106,0,0,0.14522106,-11.171931,-14.678001)">
                    <g
                       id="g13029"
                       transform="matrix(0.96423543,0,0,0.96423543,15.509735,9.0701753)">
                      <g
                         id="g13067"
                         transform="matrix(0.97526942,0,0,0.97526942,9.1915037,7.3698267)">
                        <g
                           style="clip-rule:evenodd;fill-rule:evenodd;image-rendering:optimizeQuality;shape-rendering:geometricPrecision;text-rendering:geometricPrecision"
                           id="g13108"
                           transform="matrix(17.668242,0,0,17.668242,-91.339017,-116.63537)">
                          <g
                             id="g13148"
                             transform="matrix(0.03173732,0,0,0.03173732,-14.659457,5.2852684)">
                            <g
                               id="g13188"
                               transform="translate(341.99431,-20.073086)">
                              <g
                                 id="g13232"
                                 transform="matrix(11.488495,0,0,11.488495,212.35182,-10.910326)">
                                <g
                                   id="g13213"
                                   style="fill-rule:evenodd">
                                <path
                                   id="path13209"
                                   d="M 78.82,81.828 H 16.586 c -2.543,0 -4.6172,-2.0742 -4.6172,-4.6172 v -43.781 -0.08203 -7.6484 c 0,-0.52734 0.42578,-0.97656 0.97656,-0.97656 h 30.09 c 0.52734,0 0.97656,0.42578 0.97656,0.97656 v 6.7734 h 34.852 c 2.543,0 4.6172,2.0742 4.6172,4.6172 v 40.121 c -0.01953,2.543 -2.0938,4.6172 -4.6602,4.6172 z M 13.898,33.488 v 43.699 c 0,1.4844 1.1992,2.6875 2.6875,2.6875 h 62.234 c 1.4844,0 2.6875,-1.1992 2.6875,-2.6875 V 37.066 c 0,-1.4844 -1.1992,-2.6875 -2.6875,-2.6875 h -35.809 c -0.52734,0 -0.97656,-0.42578 -0.97656,-0.97656 v -6.7734 h -28.137 v 6.7734 0.08203 z"
                                   inkscape:connector-curvature="0" />
                                <path
                                   id="path13211"
                                   d="m 87.059,71.637 c -0.52734,0 -0.97656,-0.42578 -0.97656,-0.97656 v -40.121 c 0,-1.4844 -1.1992,-2.6875 -2.6875,-2.6875 h -36.52 c -0.52734,0 -0.97656,-0.42578 -0.97656,-0.97656 v -6.7539 h -32.043 c -0.52734,0 -0.97656,-0.42578 -0.97656,-0.97656 0,-0.55078 0.42578,-0.97656 0.97656,-0.97656 h 33.039 c 0.52734,0 0.97656,0.42578 0.97656,0.97656 v 6.7734 h 35.543 c 2.543,0 4.6172,2.0742 4.6172,4.6172 v 40.121 c 0,0.52734 -0.44922,0.97656 -0.97656,0.97656 z"
                                   inkscape:connector-curvature="0" />
                                </g>
                              </g>
                            </g>
                          </g>
                        </g>
                      </g>
                    </g>
                  </g>
                </g>
              </g>
            </g>
          </g>
        </g>
      </g>
    </g>
  </g>
</svg>
