<?xml version="1.0" encoding="UTF-8" standalone="no"?>
<!-- Created with Inkscape (http://www.inkscape.org/) -->

<svg
   xmlns:dc="http://purl.org/dc/elements/1.1/"
   xmlns:cc="http://creativecommons.org/ns#"
   xmlns:rdf="http://www.w3.org/1999/02/22-rdf-syntax-ns#"
   xmlns:svg="http://www.w3.org/2000/svg"
   xmlns="http://www.w3.org/2000/svg"
   xmlns:sodipodi="http://sodipodi.sourceforge.net/DTD/sodipodi-0.dtd"
   xmlns:inkscape="http://www.inkscape.org/namespaces/inkscape"
   width="195.69771mm"
   height="72.062286mm"
   viewBox="0 0 195.69771 72.062286"
   version="1.1"
   id="svg11471"
   inkscape:export-filename="/home/dci-student/Downloads/lines_one.png"
   inkscape:export-xdpi="96"
   inkscape:export-ydpi="96"
   inkscape:version="0.92.5 (2060ec1f9f, 2020-04-08)"
   sodipodi:docname="lines.svg">
  <defs
     id="defs11465">
    <clipPath
       id="clip63">
      <path
         inkscape:connector-curvature="0"
         id="path8755"
         d="M 439.39062,162.87109 H 472 V 199 h -32.60938 z m 0,0" />
    </clipPath>
    <clipPath
       id="clip62">
      <path
         inkscape:connector-curvature="0"
         id="path8752"
         d="m 469,162.87109 h 36 V 199 h -36 z m 0,0" />
    </clipPath>
    <clipPath
       id="clip61">
      <path
         inkscape:connector-curvature="0"
         id="path8749"
         d="m 536,162.87109 h 1 V 199 h -1 z m 0,0" />
    </clipPath>
    <clipPath
       id="clip60">
      <path
         inkscape:connector-curvature="0"
         id="path8746"
         d="m 569,162.87109 h 36 V 199 h -36 z m 0,0" />
    </clipPath>
    <clipPath
       id="clip59">
      <path
         inkscape:connector-curvature="0"
         id="path8743"
         d="m 601,162.87109 h 33.11328 V 199 H 601 Z m 0,0" />
    </clipPath>
    <clipPath
       id="clip58">
      <path
         inkscape:connector-curvature="0"
         id="path8740"
         d="m 439.39062,194 h 194.72266 v 2 H 439.39062 Z m 0,0" />
    </clipPath>
    <clipPath
       id="clip57">
      <path
         inkscape:connector-curvature="0"
         id="path8737"
         d="m 439.39062,190 h 194.72266 v 2 H 439.39062 Z m 0,0" />
    </clipPath>
    <clipPath
       id="clip56">
      <path
         inkscape:connector-curvature="0"
         id="path8734"
         d="m 439.39062,185 h 194.72266 v 2 H 439.39062 Z m 0,0" />
    </clipPath>
    <clipPath
       id="clip55">
      <path
         inkscape:connector-curvature="0"
         id="path8731"
         d="m 439.39062,179 h 194.72266 v 1 H 439.39062 Z m 0,0" />
    </clipPath>
    <clipPath
       id="clip54">
      <path
         inkscape:connector-curvature="0"
         id="path8728"
         d="m 439.39062,171 h 194.72266 v 1 H 439.39062 Z m 0,0" />
    </clipPath>
    <clipPath
       id="clip53">
      <path
         inkscape:connector-curvature="0"
         id="path8725"
         d="M 439.39062,162.87109 H 634.11328 V 199 H 439.39062 Z m 0,0" />
    </clipPath>
    <clipPath
       id="clip52">
      <path
         inkscape:connector-curvature="0"
         id="path8722"
         d="M 439.39062,237 H 472 v 39.46094 h -32.60938 z m 0,0" />
    </clipPath>
    <clipPath
       id="clip51">
      <path
         inkscape:connector-curvature="0"
         id="path8719"
         d="m 469,237 h 36 v 39.46094 h -36 z m 0,0" />
    </clipPath>
    <clipPath
       id="clip50">
      <path
         inkscape:connector-curvature="0"
         id="path8716"
         d="m 536,238 h 1 v 38.46094 h -1 z m 0,0" />
    </clipPath>
    <clipPath
       id="clip49">
      <path
         inkscape:connector-curvature="0"
         id="path8713"
         d="m 569,237 h 36 v 39.46094 h -36 z m 0,0" />
    </clipPath>
    <clipPath
       id="clip48">
      <path
         inkscape:connector-curvature="0"
         id="path8710"
         d="m 601,237 h 33.11328 v 39.46094 H 601 Z m 0,0" />
    </clipPath>
    <clipPath
       id="clip47">
      <path
         inkscape:connector-curvature="0"
         id="path8707"
         d="m 439.39062,241 h 194.72266 v 1 H 439.39062 Z m 0,0" />
    </clipPath>
    <clipPath
       id="clip46">
      <path
         inkscape:connector-curvature="0"
         id="path8704"
         d="m 439.39062,245 h 194.72266 v 2 H 439.39062 Z m 0,0" />
    </clipPath>
    <clipPath
       id="clip45">
      <path
         inkscape:connector-curvature="0"
         id="path8701"
         d="m 439.39062,251 h 194.72266 v 1 H 439.39062 Z m 0,0" />
    </clipPath>
    <clipPath
       id="clip44">
      <path
         inkscape:connector-curvature="0"
         id="path8698"
         d="m 439.39062,258 h 194.72266 v 1 H 439.39062 Z m 0,0" />
    </clipPath>
    <clipPath
       id="clip43">
      <path
         inkscape:connector-curvature="0"
         id="path8695"
         d="m 439.39062,266 h 194.72266 v 2 H 439.39062 Z m 0,0" />
    </clipPath>
    <clipPath
       id="clip42">
      <path
         inkscape:connector-curvature="0"
         id="path8692"
         d="m 439.39062,237 h 194.72266 v 39.46094 H 439.39062 Z m 0,0" />
    </clipPath>
    <clipPath
       id="clip41">
      <path
         inkscape:connector-curvature="0"
         id="path8689"
         d="m 439.39062,135 h 194.72266 v 1.16016 H 439.39062 Z m 0,0" />
    </clipPath>
    <clipPath
       id="clip40">
      <path
         inkscape:connector-curvature="0"
         id="path8686"
         d="m 439.39062,133 h 194.72266 v 3.16016 H 439.39062 Z m 0,0" />
    </clipPath>
    <clipPath
       id="clip39">
      <path
         inkscape:connector-curvature="0"
         id="path8683"
         d="m 439.39062,131 h 194.72266 v 5.16016 H 439.39062 Z m 0,0" />
    </clipPath>
    <clipPath
       id="clip38">
      <path
         inkscape:connector-curvature="0"
         id="path8680"
         d="m 439.39062,130 h 194.72266 v 6.16016 H 439.39062 Z m 0,0" />
    </clipPath>
    <clipPath
       id="clip37">
      <path
         inkscape:connector-curvature="0"
         id="path8677"
         d="m 439.39062,125 h 194.72266 v 10 H 439.39062 Z m 0,0" />
    </clipPath>
    <clipPath
       id="clip36">
      <path
         inkscape:connector-curvature="0"
         id="path8674"
         d="m 439.39062,119 h 194.72266 v 13 H 439.39062 Z m 0,0" />
    </clipPath>
    <clipPath
       id="clip35">
      <path
         inkscape:connector-curvature="0"
         id="path8671"
         d="m 439.39062,115 h 194.72266 v 14 H 439.39062 Z m 0,0" />
    </clipPath>
    <clipPath
       id="clip34">
      <path
         inkscape:connector-curvature="0"
         id="path8668"
         d="m 439.39062,112 h 194.72266 v 14 H 439.39062 Z m 0,0" />
    </clipPath>
    <clipPath
       id="clip33">
      <path
         inkscape:connector-curvature="0"
         id="path8665"
         d="m 439.39062,109 h 194.72266 v 15 H 439.39062 Z m 0,0" />
    </clipPath>
    <clipPath
       id="clip32">
      <path
         inkscape:connector-curvature="0"
         id="path8662"
         d="m 439.39062,107 h 194.72266 v 15 H 439.39062 Z m 0,0" />
    </clipPath>
    <clipPath
       id="clip31">
      <path
         inkscape:connector-curvature="0"
         id="path8659"
         d="m 439.39062,104 h 194.72266 v 17 H 439.39062 Z m 0,0" />
    </clipPath>
    <clipPath
       id="clip30">
      <path
         inkscape:connector-curvature="0"
         id="path8656"
         d="m 439.39062,102 h 194.72266 v 17 H 439.39062 Z m 0,0" />
    </clipPath>
    <clipPath
       id="clip29">
      <path
         inkscape:connector-curvature="0"
         id="path8653"
         d="m 439.39062,99 h 194.72266 v 18 H 439.39062 Z m 0,0" />
    </clipPath>
    <clipPath
       id="clip28">
      <path
         inkscape:connector-curvature="0"
         id="path8650"
         d="m 439.39062,96 h 194.72266 v 18 H 439.39062 Z m 0,0" />
    </clipPath>
    <clipPath
       id="clip27">
      <path
         inkscape:connector-curvature="0"
         id="path8647"
         d="m 439.39062,93 h 194.72266 v 16 H 439.39062 Z m 0,0" />
    </clipPath>
    <clipPath
       id="clip26">
      <path
         inkscape:connector-curvature="0"
         id="path8644"
         d="m 439.39062,91 h 194.72266 v 14 H 439.39062 Z m 0,0" />
    </clipPath>
    <clipPath
       id="clip25">
      <path
         inkscape:connector-curvature="0"
         id="path8641"
         d="m 439.39062,90 h 194.72266 v 13 H 439.39062 Z m 0,0" />
    </clipPath>
    <clipPath
       id="clip24">
      <path
         inkscape:connector-curvature="0"
         id="path8638"
         d="m 439.39062,88 h 194.72266 v 15 H 439.39062 Z m 0,0" />
    </clipPath>
    <clipPath
       id="clip23">
      <path
         inkscape:connector-curvature="0"
         id="path8635"
         d="m 439.39062,82 h 194.72266 v 20 H 439.39062 Z m 0,0" />
    </clipPath>
    <clipPath
       id="clip22">
      <path
         inkscape:connector-curvature="0"
         id="path8632"
         d="m 439.39062,77 h 194.72266 v 23 H 439.39062 Z m 0,0" />
    </clipPath>
    <clipPath
       id="clip21">
      <path
         inkscape:connector-curvature="0"
         id="path8629"
         d="M 439.39062,74 H 634.11328 V 97 H 439.39062 Z m 0,0" />
    </clipPath>
    <clipPath
       id="clip20">
      <path
         inkscape:connector-curvature="0"
         id="path8626"
         d="M 439.39062,72 H 634.11328 V 92 H 439.39062 Z m 0,0" />
    </clipPath>
    <clipPath
       id="clip19">
      <path
         inkscape:connector-curvature="0"
         id="path8623"
         d="M 439.39062,71 H 634.11328 V 86 H 439.39062 Z m 0,0" />
    </clipPath>
    <clipPath
       id="clip18">
      <path
         inkscape:connector-curvature="0"
         id="path8620"
         d="M 439.39062,67 H 634.11328 V 80 H 439.39062 Z m 0,0" />
    </clipPath>
    <clipPath
       id="clip17">
      <path
         inkscape:connector-curvature="0"
         id="path8617"
         d="M 439.39062,62 H 634.11328 V 75 H 439.39062 Z m 0,0" />
    </clipPath>
    <clipPath
       id="clip16">
      <path
         inkscape:connector-curvature="0"
         id="path8614"
         d="M 439.39062,57 H 634.11328 V 73 H 439.39062 Z m 0,0" />
    </clipPath>
    <clipPath
       id="clip15">
      <path
         inkscape:connector-curvature="0"
         id="path8611"
         d="M 439.39062,52 H 634.11328 V 70 H 439.39062 Z m 0,0" />
    </clipPath>
    <clipPath
       id="clip14">
      <path
         inkscape:connector-curvature="0"
         id="path8608"
         d="M 439.39062,49 H 634.11328 V 66 H 439.39062 Z m 0,0" />
    </clipPath>
    <clipPath
       id="clip13">
      <path
         inkscape:connector-curvature="0"
         id="path8605"
         d="M 439.39062,47 H 634.11328 V 61 H 439.39062 Z m 0,0" />
    </clipPath>
    <clipPath
       id="clip12">
      <path
         inkscape:connector-curvature="0"
         id="path8602"
         d="m 439.39062,46 h 194.72266 v 9 H 439.39062 Z m 0,0" />
    </clipPath>
    <clipPath
       id="clip11">
      <path
         inkscape:connector-curvature="0"
         id="path8599"
         d="m 439.39062,45 h 194.72266 v 5 H 439.39062 Z m 0,0" />
    </clipPath>
    <clipPath
       id="clip10">
      <path
         inkscape:connector-curvature="0"
         id="path8596"
         d="m 439.39062,39 h 194.72266 v 8 H 439.39062 Z m 0,0" />
    </clipPath>
    <clipPath
       id="clip9">
      <path
         inkscape:connector-curvature="0"
         id="path8593"
         d="m 439.39062,34 h 194.72266 v 9 H 439.39062 Z m 0,0" />
    </clipPath>
    <clipPath
       id="clip8">
      <path
         inkscape:connector-curvature="0"
         id="path8590"
         d="M 439.39062,29 H 634.11328 V 40 H 439.39062 Z m 0,0" />
    </clipPath>
    <clipPath
       id="clip7">
      <path
         inkscape:connector-curvature="0"
         id="path8587"
         d="M 439.39062,27 H 634.11328 V 37 H 439.39062 Z m 0,0" />
    </clipPath>
    <clipPath
       id="clip6">
      <path
         inkscape:connector-curvature="0"
         id="path8584"
         d="M 439.39062,25 H 634.11328 V 35 H 439.39062 Z m 0,0" />
    </clipPath>
    <clipPath
       id="clip5">
      <path
         inkscape:connector-curvature="0"
         id="path8581"
         d="M 439.39062,23 H 634.11328 V 34 H 439.39062 Z m 0,0" />
    </clipPath>
    <clipPath
       id="clip4">
      <path
         inkscape:connector-curvature="0"
         id="path8578"
         d="M 439.39062,22.570312 H 634.11328 V 32 H 439.39062 Z m 0,0" />
    </clipPath>
    <clipPath
       id="clip3">
      <path
         inkscape:connector-curvature="0"
         id="path8575"
         d="M 439.39062,22.570312 H 634.11328 V 31 H 439.39062 Z m 0,0" />
    </clipPath>
    <clipPath
       id="clip2">
      <path
         inkscape:connector-curvature="0"
         id="path8572"
         d="M 439.39062,22.570312 H 634.11328 V 29 H 439.39062 Z m 0,0" />
    </clipPath>
    <clipPath
       id="clip1">
      <path
         inkscape:connector-curvature="0"
         id="path8569"
         d="M 439.39062,22.570312 H 634.11328 V 26 H 439.39062 Z m 0,0" />
    </clipPath>
  </defs>
  <sodipodi:namedview
     id="base"
     pagecolor="#ffffff"
     bordercolor="#666666"
     borderopacity="1.0"
     inkscape:pageopacity="0.0"
     inkscape:pageshadow="2"
     inkscape:zoom="0.98994949"
     inkscape:cx="342.79041"
     inkscape:cy="156.75203"
     inkscape:document-units="mm"
     inkscape:current-layer="layer1"
     showgrid="false"
     inkscape:window-width="1920"
     inkscape:window-height="1016"
     inkscape:window-x="0"
     inkscape:window-y="1107"
     inkscape:window-maximized="1" />
  <metadata
     id="metadata11468">
    <rdf:RDF>
      <cc:Work
         rdf:about="">
        <dc:format>image/svg+xml</dc:format>
        <dc:type
           rdf:resource="http://purl.org/dc/dcmitype/StillImage" />
        <dc:title></dc:title>
      </cc:Work>
    </rdf:RDF>
  </metadata>
  <g
     inkscape:label="Layer 1"
     inkscape:groupmode="layer"
     id="layer1"
     transform="translate(-7.188067,-85.861135)">
    <g
       transform="matrix(1.0024333,0,0,0.63162735,-433.02114,71.763021)"
       id="g9518"
       clip-path="url(#clip1)"
       style="clip-rule:nonzero;fill:#000000">
      <path
         id="path9516"
         d="m 412.52344,25.886719 c 18.91406,-0.207031 36.58203,-8.839844 55.49218,-9.128907 52.05469,0.125 116.72266,-0.113281 169.0625,0.08984 v 0.02344 c -50.21093,0.160156 -118.85156,0.03906 -169.05468,0.07422 -18.85938,0.351563 -36.62891,8.863282 -55.5,8.941407"
         style="fill:#000000;fill-opacity:1;fill-rule:nonzero;stroke:none"
         inkscape:connector-curvature="0" />
    </g>
    <g
       transform="matrix(1.0024333,0,0,0.63162735,-433.02114,71.763021)"
       id="g9522"
       clip-path="url(#clip2)"
       style="clip-rule:nonzero;fill:#000000">
      <path
         id="path9520"
         d="m 412.52344,28.609375 c 18.93359,-0.195313 36.53515,-8.863281 55.48828,-9.199219 9.39844,-0.203125 18.78906,0.210938 28.17969,0.371094 28.17578,0.765625 56.35156,-0.02734 84.53125,-0.3125 18.79296,-0.339844 37.5664,0.839844 56.35546,0.644531 v 0.02344 c -18.78906,0.261719 -37.57031,-0.730469 -56.35546,-0.425781 -32.78125,0.519531 -65.82032,0.828124 -98.6211,-0.105469 -4.69531,-0.05078 -9.39062,-0.171875 -14.08203,-0.0078 -18.85937,0.390625 -36.62109,8.945313 -55.49609,9.011719"
         style="fill:#000000;fill-opacity:1;fill-rule:nonzero;stroke:none"
         inkscape:connector-curvature="0" />
    </g>
    <g
       transform="matrix(1.0024333,0,0,0.63162735,-433.02114,71.763021)"
       id="g9526"
       clip-path="url(#clip3)"
       style="clip-rule:nonzero;fill:#000000">
      <path
         id="path9524"
         d="m 412.52344,30.519531 c 18.94922,-0.21875 36.54297,-8.910156 55.5039,-9.363281 18.8125,-0.527344 37.51172,2.523438 56.33594,2.15625 28.19141,0.01172 56.375,-3.453125 84.55078,-1.167969 9.36328,0.632813 18.82031,1.257813 28.16406,1.261719 -9.40625,0.113281 -18.79687,-0.539062 -28.17578,-1.097656 -18.76562,-1.359375 -37.57812,-0.453125 -56.34765,0.414062 -18.77344,1.007813 -37.61328,1.0625 -56.36328,-0.386718 -9.3711,-0.65625 -18.76563,-1.40625 -28.15625,-0.988282 -18.85938,0.523438 -36.65625,9.078125 -55.51172,9.171875"
         style="fill:#000000;fill-opacity:1;fill-rule:nonzero;stroke:none"
         inkscape:connector-curvature="0" />
    </g>
    <g
       transform="matrix(1.0024333,0,0,0.63162735,-433.02114,71.763021)"
       id="g9530"
       clip-path="url(#clip4)"
       style="clip-rule:nonzero;fill:#000000">
      <path
         id="path9528"
         d="m 412.52344,31.953125 c 18.98437,-0.210937 36.57422,-9.082031 55.57422,-9.46875 18.8789,-0.40625 37.4375,4.292969 56.30468,4.101563 28.19922,0.01172 56.41016,-6.304688 84.57813,-2.625 9.32812,1.15625 18.73047,2.613281 28.09765,2.710937 -9.43359,0.01953 -18.77343,-1.460937 -28.11718,-2.546875 -28.1836,-3.519531 -56.33203,2.710938 -84.5586,2.613281 -18.85547,0.07813 -37.43359,-4.542969 -56.29687,-4.0625 -18.90625,0.4375 -36.65235,9.195313 -55.58203,9.277344"
         style="fill:#000000;fill-opacity:1;fill-rule:nonzero;stroke:none"
         inkscape:connector-curvature="0" />
    </g>
    <g
       transform="matrix(1.0024333,0,0,0.63162735,-433.02114,71.763021)"
       id="g9534"
       clip-path="url(#clip5)"
       style="clip-rule:nonzero;fill:#000000">
      <path
         id="path9532"
         d="m 412.52344,33.253906 c 19.03906,-0.199218 36.69922,-9.3125 55.72656,-9.585937 18.96875,-0.203125 37.3125,6.101562 56.26172,6.175781 4.72265,0.03906 9.4375,-0.273438 14.14062,-0.679688 14.10547,-1.28125 28.1875,-2.886718 42.28907,-4.214843 9.3789,-0.855469 18.9375,-1.535157 28.26953,0.25 4.66015,0.789062 9.17578,2.234375 13.8125,3.148437 4.61328,0.957032 9.39453,1.449219 14.05468,1.589844 -7.09765,-0.05469 -14.13281,-1.28125 -20.97656,-3.089844 -11.45703,-3.191406 -23.41406,-2.859375 -35.13672,-1.65625 -9.40234,0.886719 -18.79297,1.886719 -28.1914,2.824219 -9.39844,0.914063 -18.80469,2.042969 -28.26172,1.976563 -18.9375,-0.179688 -37.3086,-6.40625 -56.25781,-6.136719 -18.96875,0.355469 -36.73829,9.316406 -55.73047,9.398437"
         style="fill:#000000;fill-opacity:1;fill-rule:nonzero;stroke:none"
         inkscape:connector-curvature="0" />
    </g>
    <g
       transform="matrix(1.0024333,0,0,0.63162735,-433.02114,71.763021)"
       id="g9538"
       clip-path="url(#clip6)"
       style="clip-rule:nonzero;fill:#000000">
      <path
         id="path9536"
         d="m 412.52344,34.757812 c 9.51562,-0.144531 18.80078,-2.464843 27.96093,-4.835937 22.83594,-6.378906 33.16016,-6.113281 56.125,-0.925781 13.85547,3.234375 28.08594,5.324218 42.28125,3.269531 9.54688,-1.050781 32.53907,-3.914063 42.37891,-5.082031 11.65625,-1.332032 23.94531,-3.269532 35.24219,0.917968 6.53906,2.792969 13.36719,5.074219 20.5664,5.078126 -7.13671,0.117187 -14.07812,-2.222657 -20.60937,-4.957032 -11.29688,-4.121094 -23.53125,-2.09375 -35.16797,-0.796875 0,0 -28.25391,3.402344 -28.25391,3.402344 -9.41796,1.058594 -18.84375,2.523437 -28.34375,2.425781 -21.38281,-0.394531 -41.8164,-10.144531 -63.32031,-7.5625 -16.44531,2.023438 -32.19531,8.96875 -48.85937,9.066406"
         style="fill:#000000;fill-opacity:1;fill-rule:nonzero;stroke:none"
         inkscape:connector-curvature="0" />
    </g>
    <g
       transform="matrix(1.0024333,0,0,0.63162735,-433.02114,71.763021)"
       id="g9542"
       clip-path="url(#clip7)"
       style="clip-rule:nonzero;fill:#000000">
      <path
         id="path9540"
         d="m 412.52344,36.804688 c 14.39843,-0.210938 28,-5.433594 41.97265,-8.246094 14.11328,-3.355469 28.59766,-0.519532 42.35157,3.085937 9.21875,2.300781 18.55078,4.636719 28.10156,4.734375 4.76172,0.05469 9.51172,-0.386718 14.23437,-0.949218 9.57422,-1.171876 32.63282,-4.347657 42.5,-5.644532 12.30469,-1.316406 27.28516,-5.03125 38.58985,1.5 4.92578,3.429688 10.875,5.105469 16.80468,5.1875 -4.76171,-0.06641 -9.57031,-0.984375 -13.78125,-3.273437 -2.08593,-1.152344 -4.04296,-2.527344 -6.27734,-3.386719 -6.67969,-2.714844 -14.09766,-2.097656 -21.12891,-1.542969 -4.73828,0.453125 -9.45312,1.132813 -14.17578,1.757813 -10.02343,1.300781 -32.80859,4.453125 -42.50781,5.597656 -4.73047,0.546875 -9.48828,0.976562 -14.26172,0.90625 -9.57422,-0.113281 -18.89062,-2.539062 -28.12109,-4.792969 -13.77344,-3.578125 -28.19141,-6.300781 -42.28906,-2.972656 -13.96094,2.722656 -27.67969,7.976563 -42.01172,8.039063"
         style="fill:#000000;fill-opacity:1;fill-rule:nonzero;stroke:none"
         inkscape:connector-curvature="0" />
    </g>
    <g
       transform="matrix(1.0024333,0,0,0.63162735,-433.02114,71.763021)"
       id="g9546"
       clip-path="url(#clip8)"
       style="clip-rule:nonzero;fill:#000000">
      <path
         id="path9544"
         d="m 412.52344,39.710938 c 14.41406,-0.277344 28.05859,-5.421876 42.0664,-8.222657 14.14063,-3.382812 28.65235,-0.503906 42.39453,3.269531 9.20704,2.414063 18.54688,4.84375 28.1211,4.875 4.76562,0.02734 9.52734,-0.4375 14.25781,-1.011718 9.57813,-1.203125 32.69141,-4.421875 42.56641,-5.746094 9.43359,-1.25 18.94922,-2.859375 28.51562,-2.121094 2.38281,0.222656 4.75,0.742188 6.95313,1.683594 2.23437,0.894531 4.14843,2.375 6.0664,3.78125 3.87891,2.945312 8.95703,3.398438 13.61328,3.519531 -4.72656,-0.02734 -9.7539,-0.535156 -13.66796,-3.441406 -1.92579,-1.398437 -3.82813,-2.855469 -6.0625,-3.738281 -2.19532,-0.925782 -4.54688,-1.429688 -6.91407,-1.636719 -9.53906,-0.6875 -19.02734,0.96875 -28.47265,2.195313 -10.02344,1.328124 -32.86719,4.523437 -42.57422,5.699218 -4.73828,0.5625 -9.50391,1.011719 -14.28516,0.964844 -9.59765,-0.04297 -18.92187,-2.5625 -28.14062,-4.929688 -11.48828,-2.964843 -23.35547,-5.792968 -35.27344,-4.300781 -16.55078,2.046875 -32.40234,8.988281 -49.16406,9.160157"
         style="fill:#000000;fill-opacity:1;fill-rule:nonzero;stroke:none"
         inkscape:connector-curvature="0" />
    </g>
    <g
       transform="matrix(1.0024333,0,0,0.63162735,-433.02114,71.763021)"
       id="g9550"
       clip-path="url(#clip9)"
       style="clip-rule:nonzero;fill:#000000">
      <path
         id="path9548"
         d="m 412.52344,42.980469 c 19.03515,-0.550781 37.13672,-7.949219 56.13672,-8.648438 14.32812,-0.277343 28.05859,4.335938 42.08203,6.496094 4.67578,0.699219 9.39843,1.34375 14.13281,1.25 4.73047,-0.144531 9.44922,-0.667969 14.16797,-1.0625 9.57422,-0.796875 32.58984,-3.167969 42.45312,-4.113281 0,0 14.16016,-1.253906 14.16016,-1.253906 7.03906,-0.699219 14.37109,-1.042969 21.10937,1.527343 2.25,0.769531 4.3125,1.972657 6.48829,2.902344 4.35546,1.878906 9.09375,2.738281 13.82421,2.902344 -5.87109,-0.04687 -11.84765,-1.550781 -17.08203,-4.320313 -7.54297,-3.804687 -16.11718,-3.71875 -24.32031,-2.777344 -23.48828,1.921876 -47.30078,4.917969 -70.79687,6.34375 -9.50391,0.01953 -18.85157,-2.101562 -28.10938,-4.011718 -9.25391,-1.949219 -18.61328,-3.90625 -28.10547,-3.695313 -18.95312,0.757813 -37.17969,8.050781 -56.14062,8.460938"
         style="fill:#000000;fill-opacity:1;fill-rule:nonzero;stroke:none"
         inkscape:connector-curvature="0" />
    </g>
    <g
       transform="matrix(1.0024333,0,0,0.63162735,-433.02114,71.763021)"
       id="g9554"
       clip-path="url(#clip10)"
       style="clip-rule:nonzero;fill:#000000">
      <path
         id="path9552"
         d="m 412.52344,46.246094 c 18.84765,-0.480469 37.21875,-5.40625 56.02343,-6.371094 14.14844,-0.53125 28.09766,2.222656 42.14454,3.339844 14.07421,1.445312 28.16796,-0.183594 42.2539,-0.535156 9.82422,-0.378907 32.75391,-1.175782 42.27735,-1.585938 9.52343,-0.746094 18.71484,1.117188 27.875,3.484375 4.59765,0.964844 9.28125,1.527344 13.98046,1.667969 -4.64062,-0.03906 -9.40625,-0.65625 -14,-1.574219 -9.15625,-2.316406 -18.34375,-4.136719 -27.84375,-3.339844 -9.34375,0.421875 -60.10546,2.246094 -70.46484,2.65625 -18.82812,0.109375 -37.37891,-4.609375 -56.21484,-3.925781 -18.75391,1.042969 -37.25,5.824219 -56.03125,6.183594"
         style="fill:#000000;fill-opacity:1;fill-rule:nonzero;stroke:none"
         inkscape:connector-curvature="0" />
    </g>
    <g
       transform="matrix(1.0024333,0,0,0.63162735,-433.02114,71.763021)"
       id="g9558"
       clip-path="url(#clip11)"
       style="clip-rule:nonzero;fill:#000000">
      <path
         id="path9556"
         d="m 412.52344,49.511719 c 18.74609,-0.167969 37.34375,-2.835938 56.07422,-3.527344 14.04687,-0.414063 28.08984,-0.425781 42.13671,-0.816406 28.10938,-0.363281 56.16016,1.839843 84.25,2.34375 14.05469,0.08984 28.04297,1.839843 42.09375,2 v 0.02344 c -9.37109,-0.03906 -18.71484,-0.839844 -28.0625,-1.34375 -28.08593,-0.679687 -56.15234,-2.128906 -84.23437,-2.863281 -18.72266,-0.222656 -37.46094,0.421875 -56.17578,0.84375 -18.69141,0.753906 -37.39844,3.292969 -56.08203,3.339844"
         style="fill:#000000;fill-opacity:1;fill-rule:nonzero;stroke:none"
         inkscape:connector-curvature="0" />
    </g>
    <g
       transform="matrix(1.0024333,0,0,0.63162735,-433.02114,71.763021)"
       id="g9562"
       clip-path="url(#clip12)"
       style="clip-rule:nonzero;fill:#000000">
      <path
         id="path9560"
         d="m 412.52344,52.777344 c 23.49609,-0.0078 47.00781,-0.601563 70.49609,-0.90625 7.09375,-0.292969 13.8125,-2.671875 20.69141,-4.167969 6.91406,-1.453125 14.03515,-1.726563 21.0625,-1.0625 18.70312,1.976563 37.25781,5.148437 55.95312,7.121094 4.67578,0.445312 9.3711,0.59375 14.07031,0.433593 4.69922,-0.101562 9.39454,-0.273437 14.09375,-0.460937 9.375,-0.355469 18.84766,-0.878906 28.1875,-0.929687 -9.40234,0.171874 -18.78906,0.667968 -28.18359,1.09375 -4.69531,0.210937 -9.39062,0.410156 -14.09375,0.535156 -4.69922,0.183594 -9.41406,0.01172 -14.09766,-0.429688 -18.70703,-1.980468 -37.25781,-5.15625 -55.9414,-7.214844 -7.01563,-0.6875 -14.125,-0.433593 -21.03516,0.992188 -6.8789,1.496094 -13.59765,3.921875 -20.69531,4.230469 -23.47656,0.433593 -47.06641,0.929687 -70.50781,0.765625"
         style="fill:#000000;fill-opacity:1;fill-rule:nonzero;stroke:none"
         inkscape:connector-curvature="0" />
    </g>
    <g
       transform="matrix(1.0024333,0,0,0.63162735,-433.02114,71.763021)"
       id="g9566"
       clip-path="url(#clip13)"
       style="clip-rule:nonzero;fill:#000000">
      <path
         id="path9564"
         d="m 412.52344,56.046875 56.99609,1.644531 c 7.06641,0.132813 14.36719,1 21.19141,-1.320312 3.3789,-1.152344 6.32812,-3.238282 9.43359,-4.960938 3.14453,-1.683594 6.58594,-2.828125 10.14063,-3.234375 9.51562,-1.101562 18.9375,1.480469 28.17578,3.441407 13.5,2.796874 28.21484,7.003906 41.84375,8.640624 9.47656,0.8125 18.97265,-0.675781 28.38672,-1.640624 9.41796,-1.082032 18.9414,-2.359376 28.38671,-2.546876 -9.5039,0.3125 -18.9375,1.554688 -28.36718,2.710938 -9.42188,1.019531 -18.9375,2.558594 -28.42969,1.722656 -13.625,-1.644531 -28.37109,-5.859375 -41.85938,-8.695312 -9.22265,-1.984375 -18.61718,-4.597656 -28.125,-3.53125 -2.35937,0.257812 -4.67578,0.863281 -6.88671,1.707031 -4.46485,1.667969 -8.12891,4.964844 -12.66407,6.5 -6.82812,2.351563 -14.16406,1.507813 -21.23047,1.398437 0,-0.02734 -57.04296,-1.765624 -56.99218,-1.835937"
         style="fill:#000000;fill-opacity:1;fill-rule:nonzero;stroke:none"
         inkscape:connector-curvature="0" />
    </g>
    <g
       transform="matrix(1.0024333,0,0,0.63162735,-433.02114,71.763021)"
       id="g9570"
       clip-path="url(#clip14)"
       style="clip-rule:nonzero;fill:#000000">
      <path
         id="path9568"
         d="m 412.52344,59.3125 c 24.03906,0.246094 48.05468,3.542969 72.07812,3.570312 4.875,-0.238281 9.41406,-2.371093 12.64844,-6.035156 1.6875,-1.699218 3.40234,-3.453125 5.55078,-4.585937 6.46484,-3.59375 14.24609,-2.628907 21.17188,-1.078125 9.36328,2.265625 18.5664,5.113281 27.76562,7.933594 9.21094,2.667968 18.42578,5.828124 28.03516,6.554687 9.62109,0.378906 19.18359,-1.417969 28.65234,-2.910156 9.47266,-1.550781 19.07422,-3.277344 28.65234,-3.425781 -9.63671,0.273437 -19.14453,1.964843 -28.625,3.589843 -9.47656,1.542969 -19.05078,3.394531 -28.6914,2.988281 -4.82031,-0.328124 -9.5586,-1.355468 -14.20703,-2.582031 -13.95703,-3.710937 -27.58594,-8.589843 -41.61719,-12.003906 -6.89453,-1.566406 -14.64844,-2.554687 -21.09766,1 -2.14453,1.121094 -3.83593,2.886719 -5.52343,4.585937 -3.21875,3.683594 -7.82032,5.859376 -12.70313,6.109376 C 460.58984,63.125 436.5,59.722656 412.52344,59.3125"
         style="fill:#000000;fill-opacity:1;fill-rule:nonzero;stroke:none"
         inkscape:connector-curvature="0" />
    </g>
    <g
       transform="matrix(1.0024333,0,0,0.63162735,-433.02114,71.763021)"
       id="g9574"
       clip-path="url(#clip15)"
       style="clip-rule:nonzero;fill:#000000">
      <path
         id="path9572"
         d="m 412.52344,62.578125 c 24.1289,0.117187 48.18359,3.875 72.29687,3.910156 2.39063,-0.195312 4.79688,-0.667969 6.96094,-1.730469 2.21094,-1 3.92578,-2.785156 5.51953,-4.574218 1.59375,-1.796875 3.21875,-3.660156 5.34375,-4.855469 6.41797,-3.757813 14.28125,-2.699219 21.20313,-1.113281 9.38671,2.320312 18.54296,5.429687 27.71093,8.453125 9.16407,2.894531 18.41016,6.148437 28.07422,6.683593 4.67969,0.230469 9.76172,-0.378906 14.41797,-0.902343 14.34375,-1.785157 28.57813,-5.523438 43.04297,-5.742188 -14.52734,0.371094 -28.65625,4.09375 -43.01172,5.976563 -4.69141,0.546875 -9.75391,1.140625 -14.46094,0.910156 -9.69922,-0.542969 -18.94922,-3.800781 -28.13281,-6.707031 -9.16797,-3.027344 -18.30859,-6.183594 -27.67578,-8.527344 -6.89063,-1.601563 -14.72266,-2.683594 -21.125,1.039063 -2.125,1.179687 -3.72656,3.046874 -5.31641,4.847656 -1.58984,1.796875 -3.30859,3.601562 -5.53515,4.617187 -2.17969,1.082031 -4.60157,1.566407 -7.00391,1.769531 -24.10937,0.08984 -48.24609,-3.769531 -72.30859,-4.054687"
         style="fill:#000000;fill-opacity:1;fill-rule:nonzero;stroke:none"
         inkscape:connector-curvature="0" />
    </g>
    <g
       transform="matrix(1.0024333,0,0,0.63162735,-433.02114,71.763021)"
       id="g9578"
       clip-path="url(#clip16)"
       style="clip-rule:nonzero;fill:#000000">
      <path
         id="path9576"
         d="m 412.52344,65.84375 c 23.90625,0.242188 47.80859,2.785156 71.67968,2.601562 2.375,-0.214843 4.73438,-0.695312 6.95704,-1.566406 4.5,-1.734375 7.79687,-5.546875 12.19921,-7.46875 2.17969,-0.996094 4.51172,-1.640625 6.88282,-1.976562 4.76562,-0.597656 9.59765,-0.09766 14.28125,0.855468 9.37109,1.984376 18.5,4.894532 27.66015,7.640626 9.15235,2.625 18.3711,5.660156 27.94922,6.042968 9.55078,-0.01172 19.07813,-1.296875 28.57813,-2.238281 9.49609,-1.007813 19.09375,-2.132813 28.59375,-2.417969 -9.5625,0.40625 -19.07032,1.503906 -28.57422,2.582032 -9.50781,0.992187 -19.03125,2.332031 -28.60938,2.320312 -4.79687,-0.164062 -9.53125,-1.066406 -14.17578,-2.210938 -13.92969,-3.453124 -27.42187,-8.542968 -41.45312,-11.570312 -4.66797,-0.96875 -9.48438,-1.484375 -14.23438,-0.902344 -2.36719,0.328125 -4.6914,0.960938 -6.86328,1.945313 -4.41016,1.917969 -7.67969,5.761719 -12.19141,7.507812 -2.23046,0.886719 -4.60156,1.378907 -6.98828,1.601563 -23.875,0.308594 -47.84375,-2.335938 -71.6914,-2.746094"
         style="fill:#000000;fill-opacity:1;fill-rule:nonzero;stroke:none"
         inkscape:connector-curvature="0" />
    </g>
    <g
       transform="matrix(1.0024333,0,0,0.63162735,-433.02114,71.763021)"
       id="g9582"
       clip-path="url(#clip17)"
       style="clip-rule:nonzero;fill:#000000">
      <path
         id="path9580"
         d="m 412.52344,69.113281 56.875,0.546875 c 7.08203,0.07031 14.28125,0.5 21.20312,-1.277344 6.83594,-1.90625 13.26172,-5.316406 20.42188,-5.984374 4.71093,-0.628907 9.5,-0.402344 14.18359,0.328124 14.05859,2.292969 27.60938,6.796876 41.55078,9.628907 4.63672,0.925781 9.33985,1.617187 14.07422,1.710937 l 56.85938,-1.035156 c 0.0547,0.07031 -28.42969,0.667969 -28.42969,0.695312 -14.16797,-0.02344 -28.57422,1.925782 -42.55078,-1.140624 C 552.76953,69.761719 539.21875,65.21875 525.1875,62.875 c -4.67578,-0.742188 -9.44531,-0.988281 -14.14844,-0.375 -7.17187,0.628906 -13.57422,4.066406 -20.40625,6 -6.92578,1.804688 -14.15234,1.398438 -21.23437,1.347656 0,-0.02344 -56.92578,-0.664062 -56.875,-0.734375"
         style="fill:#000000;fill-opacity:1;fill-rule:nonzero;stroke:none"
         inkscape:connector-curvature="0" />
    </g>
    <g
       transform="matrix(1.0024333,0,0,0.63162735,-433.02114,71.763021)"
       id="g9586"
       clip-path="url(#clip18)"
       style="clip-rule:nonzero;fill:#000000">
      <path
         id="path9584"
         d="m 412.52344,72.378906 c 23.60547,-0.214844 47.16797,-1.976562 70.78515,-2.066406 14.11328,-0.761719 28.13672,-4.023438 42.34375,-2.667969 9.42188,0.765625 18.67578,2.816407 27.94922,4.570313 9.26172,1.78125 18.59766,3.394531 28.03906,3.660156 18.91407,0.105469 37.63282,3.402344 56.53516,3.480469 -9.38672,0.08594 -18.89062,-0.789063 -28.27734,-1.566407 -9.41016,-0.816406 -18.82032,-1.554687 -28.26563,-1.671874 -18.96484,-0.480469 -37.1875,-6.585938 -55.99219,-8.324219 -14.1875,-1.414063 -28.22656,1.824219 -42.32812,2.664062 -23.59375,0.214844 -47.23828,1.878907 -70.78906,1.921875"
         style="fill:#000000;fill-opacity:1;fill-rule:nonzero;stroke:none"
         inkscape:connector-curvature="0" />
    </g>
    <g
       transform="matrix(1.0024333,0,0,0.63162735,-433.02114,71.763021)"
       id="g9590"
       clip-path="url(#clip19)"
       style="clip-rule:nonzero;fill:#000000">
      <path
         id="path9588"
         d="m 412.52344,75.644531 c 18.95703,-0.351562 37.69531,-3.628906 56.625,-4.394531 9.47265,-0.324219 18.9414,0.199219 28.39453,0.628906 14.17969,0.75 28.42578,0.257813 42.55859,1.820313 8.11719,0.988281 20.14844,2.703125 28.19922,3.363281 4.71094,0.582031 9.43359,0.53125 14.17188,0.65625 19.01171,0.804688 37.1914,7.386719 56.1914,8 l -0.004,0.02734 c -19.00391,-0.550782 -37.25,-6.957032 -56.19532,-7.785156 -4.73047,-0.125 -9.48047,-0.07813 -14.18359,-0.664063 -8.01172,-0.652344 -20.10938,-2.398437 -28.19922,-3.402344 -14.125,-1.585937 -28.36328,-1.210937 -42.54297,-1.921875 -9.45703,-0.394531 -18.92187,-0.886718 -28.38281,-0.53125 -18.89063,0.828125 -37.74219,3.972656 -56.63281,4.203125"
         style="fill:#000000;fill-opacity:1;fill-rule:nonzero;stroke:none"
         inkscape:connector-curvature="0" />
    </g>
    <g
       transform="matrix(1.0024333,0,0,0.63162735,-433.02114,71.763021)"
       id="g9594"
       clip-path="url(#clip20)"
       style="clip-rule:nonzero;fill:#000000">
      <path
         id="path9592"
         d="m 412.52344,78.910156 c 19.09375,-0.480468 37.67968,-5.902344 56.75,-6.589844 19.12109,-0.257812 37.76562,5.183594 56.85937,5.40625 11.82813,-0.08984 23.875,0.714844 35.6875,1.511719 4.1211,0.132813 10.1875,0.542969 14.27344,0.460938 21.77734,-0.980469 41.46484,10.871093 62.97656,11.890625 v 0.02344 C 617.52734,90.679688 597.80469,79.011719 576.09766,79.9375 c -4.06641,0.08203 -10.14844,-0.332031 -14.28907,-0.46875 -11.82812,-0.789062 -23.83984,-1.640625 -35.67968,-1.589844 -19.07813,-0.332031 -37.7461,-5.695312 -56.85157,-5.367187 -19.03125,0.738281 -37.73047,6.054687 -56.7539,6.398437"
         style="fill:#000000;fill-opacity:1;fill-rule:nonzero;stroke:none"
         inkscape:connector-curvature="0" />
    </g>
    <g
       transform="matrix(1.0024333,0,0,0.63162735,-433.02114,71.763021)"
       id="g9598"
       clip-path="url(#clip21)"
       style="clip-rule:nonzero;fill:#000000">
      <path
         id="path9596"
         d="m 412.52344,82.179688 c 19.24609,-0.332032 37.63672,-7.683594 56.87109,-7.949219 19.30469,0.0078 37.64063,7.410156 56.87891,7.792969 4.78515,0.128906 9.57812,-0.03906 14.37109,-0.0625 9.58203,-0.01953 19.16406,0.371093 28.74219,0.183593 4.78906,-0.08594 9.59375,-0.21875 14.3789,0.199219 9.6211,0.792969 18.73047,4.171875 27.72657,7.378906 8.97265,3.234375 18.25781,6.308594 27.82422,6.714844 -9.63672,-0.292969 -18.875,-3.390625 -27.87891,-6.558594 -9.01563,-3.164062 -18.125,-6.480468 -27.69531,-7.292968 -4.76563,-0.417969 -9.5625,-0.289063 -14.35157,-0.203126 -9.58203,0.179688 -19.16406,-0.203124 -28.74609,-0.226562 -4.78906,0.0078 -9.58203,0.164062 -14.375,0.01953 -19.25,-0.5 -37.60937,-7.816406 -56.875,-7.753906 -19.19531,0.324219 -37.69922,7.5625 -56.87109,7.757813"
         style="fill:#000000;fill-opacity:1;fill-rule:nonzero;stroke:none"
         inkscape:connector-curvature="0" />
    </g>
    <g
       transform="matrix(1.0024333,0,0,0.63162735,-433.02114,71.763021)"
       id="g9602"
       clip-path="url(#clip22)"
       style="clip-rule:nonzero;fill:#000000">
      <path
         id="path9600"
         d="m 412.52344,85.445312 c 19.23828,-0.394531 37.64062,-7.667968 56.875,-7.871093 9.61718,0.03906 19.08593,1.863281 28.47265,3.722656 9.39063,1.851563 18.83594,3.703125 28.42188,3.996094 4.78515,0.148437 9.57422,-0.02344 14.36719,-0.05469 9.58203,-0.02344 19.16406,0.367188 28.74218,0.195313 4.78907,-0.08594 9.58985,-0.214844 14.37891,0.15625 14.49609,1.121094 27.52734,8.09375 41.38281,11.800781 4.6211,1.242187 9.36328,2.117187 14.15235,2.289063 -4.73438,-0.07031 -9.5586,-1 -14.17579,-2.195313 -13.84765,-3.648437 -26.94921,-10.507813 -41.3789,-11.648437 -9.55469,-0.601563 -19.16016,0.132812 -28.73047,-0.226563 -9.58594,-0.261719 -19.16016,-0.02344 -28.74219,-0.167969 -21.57031,-0.699218 -42.35547,-9.503906 -64.05469,-7.324218 -16.65234,1.722656 -32.94531,7.019531 -49.71093,7.328124"
         style="fill:#000000;fill-opacity:1;fill-rule:nonzero;stroke:none"
         inkscape:connector-curvature="0" />
    </g>
    <g
       transform="matrix(1.0024333,0,0,0.63162735,-433.02114,71.763021)"
       id="g9606"
       clip-path="url(#clip23)"
       style="clip-rule:nonzero;fill:#000000">
      <path
         id="path9604"
         d="m 412.52344,88.710938 c 19.07422,-0.5625 37.69922,-5.816407 56.78515,-6.105469 19.07813,0.191406 37.84375,4.378906 56.90625,4.960937 4.75782,0.160156 9.51953,0.07031 14.28125,0.195313 9.36719,0.34375 19.16797,1.269531 28.52735,1.59375 4.76172,0.273437 9.50781,0.261719 14.27734,0.246093 19.28125,0.640626 36.58594,10.859378 55.76953,11.785158 v 0.0273 c -19.19922,-0.86328 -36.60156,-10.910154 -55.77344,-11.57031 -4.75781,0.01563 -9.52734,0.02344 -14.28125,-0.253906 -9.35937,-0.332032 -19.16015,-1.25 -28.52343,-1.628906 -4.75782,-0.144532 -9.52344,-0.07031 -14.28516,-0.246094 -19.04297,-0.695313 -37.83203,-4.796875 -56.89844,-4.921875 -19.04687,0.34375 -37.78125,5.492187 -56.78515,5.917969"
         style="fill:#000000;fill-opacity:1;fill-rule:nonzero;stroke:none"
         inkscape:connector-curvature="0" />
    </g>
    <g
       transform="matrix(1.0024333,0,0,0.63162735,-433.02114,71.763021)"
       id="g9610"
       clip-path="url(#clip24)"
       style="clip-rule:nonzero;fill:#000000">
      <path
         id="path9608"
         d="m 412.52344,91.976562 c 18.9414,-0.355468 37.74609,-3.109374 56.6914,-3.210937 8.10547,0.07031 20.13672,0.230469 28.39063,0.210937 14.1914,0.09766 28.41406,-0.3125 42.57422,0.882813 9.42578,0.867187 18.78906,2.285156 28.20312,3.285156 2.37891,0.207031 8.26563,0.78125 10.59766,0.949219 3.54297,0.1875 7.09375,0.09375 10.64062,0.285156 7.10157,0.402344 14.10547,1.765625 21.04297,3.238282 9.24219,1.96875 18.51953,4.105472 28,4.437502 -9.42578,-0.20313 -18.79687,-2.378909 -28.03125,-4.277346 -6.94531,-1.445313 -13.93359,-2.742188 -21.02344,-3.152344 -3.53906,-0.191406 -7.09765,-0.101562 -10.64062,-0.289062 -2.30469,-0.167969 -8.21094,-0.746094 -10.61328,-0.953126 -14.03516,-1.546874 -28.21094,-3.902343 -42.35938,-4.109374 -18.92187,-0.421876 -37.85937,-0.01953 -56.78125,-0.316407 -18.91015,0.195313 -37.82031,2.773438 -56.6914,3.019531"
         style="fill:#000000;fill-opacity:1;fill-rule:nonzero;stroke:none"
         inkscape:connector-curvature="0" />
    </g>
    <g
       transform="matrix(1.0024333,0,0,0.63162735,-433.02114,71.763021)"
       id="g9614"
       clip-path="url(#clip25)"
       style="clip-rule:nonzero;fill:#000000">
      <path
         id="path9612"
         d="m 412.52344,95.242188 c 23.58593,-0.316407 47.26562,1.136718 70.79297,-0.628907 13.6875,-1.410156 28.58203,-3.960937 42.28906,-4.0625 18.95312,0.34375 37.26953,6.074219 56.05078,7.96875 9.39453,1 18.875,0.652344 28.26953,1.714849 9.38672,0.88281 18.85938,1.90234 28.25,2.01171 -9.45312,0.008 -18.86328,-1.03515 -28.26562,-1.84765 -9.40625,-1.015628 -18.87891,-0.609378 -28.27735,-1.636721 -9.40234,-1.007813 -18.68359,-2.851563 -27.96875,-4.554688 -9.28125,-1.660156 -18.60937,-3.40625 -28.05859,-3.503906 -9.44922,-0.01953 -18.83985,1.226563 -28.20703,2.355469 -8.19922,1.027344 -20.01953,2.582031 -28.20703,2.53125 -16.53125,0.128906 -39.99219,-0.203125 -56.66797,-0.347656"
         style="fill:#000000;fill-opacity:1;fill-rule:nonzero;stroke:none"
         inkscape:connector-curvature="0" />
    </g>
    <g
       transform="matrix(1.0024333,0,0,0.63162735,-433.02114,71.763021)"
       id="g9618"
       clip-path="url(#clip26)"
       style="clip-rule:nonzero;fill:#000000">
      <path
         id="path9616"
         d="m 412.52344,98.511719 c 18.97265,0.382812 37.80078,3.503911 56.7539,3.617191 19.00391,-1.03516 36.81641,-9.476566 55.86719,-10.210941 9.52344,-0.04297 18.80859,2.453125 28.0625,4.414062 13.86328,2.964844 27.62109,7.257809 41.85547,7.816409 4.21484,0.0664 9.96875,-0.3086 14.21094,-0.45703 9.45703,-0.41797 19,-1.05078 28.42187,-1.23828 -9.48047,0.30859 -18.94531,0.91406 -28.41406,1.40234 -4.30469,0.17969 -10,0.5625 -14.22266,0.53125 -14.25781,-0.52734 -28.03125,-4.867189 -41.90234,-7.832032 -9.23828,-1.957032 -18.50781,-4.503907 -28.00781,-4.484376 -21.37891,0.65625 -41.39063,11.550778 -62.98047,10.148438 -16.5625,-0.82812 -33.10547,-3.210938 -49.64453,-3.707031"
         style="fill:#000000;fill-opacity:1;fill-rule:nonzero;stroke:none"
         inkscape:connector-curvature="0" />
    </g>
    <g
       transform="matrix(1.0024333,0,0,0.63162735,-433.02114,71.763021)"
       id="g9622"
       clip-path="url(#clip27)"
       style="clip-rule:nonzero;fill:#000000">
      <path
         id="path9620"
         d="m 412.52344,101.77734 c 14.375,0.45313 28.42187,3.82032 42.65625,5.52344 4.73437,0.50781 9.51172,1.17188 14.27734,0.82813 4.75781,-0.41797 9.42969,-1.54297 14.00781,-2.89844 9.16797,-2.72656 18.00782,-6.457032 27.20703,-9.093751 4.59766,-1.28125 9.3086,-2.328125 14.10547,-2.5 4.80078,-0.140625 9.5625,0.695312 14.22657,1.714843 14,3.152344 27.75,7.300778 41.6914,10.667968 9.25,2.4336 18.86328,3.67578 28.34375,1.87891 9.39844,-1.60547 18.70313,-4.55469 28.26563,-4.64844 -9.62891,0.22266 -18.83203,3.13672 -28.23828,4.8125 -9.48438,1.85156 -19.17188,0.65625 -28.42969,-1.80859 C 566.69531,102.875 552.94531,98.75 538.96094,95.542969 c -4.65625,-1.03125 -9.39844,-1.878907 -14.17969,-1.753907 -4.77344,0.152344 -9.48438,1.179688 -14.08203,2.445313 -9.21485,2.585937 -18.03125,6.378905 -27.19531,9.132815 -4.57813,1.375 -9.25391,2.51562 -14.03125,2.95312 -4.78516,0.35157 -9.57032,-0.27343 -14.32032,-0.80859 -14.21093,-1.79297 -28.32422,-5.15234 -42.6289,-5.73438"
         style="fill:#000000;fill-opacity:1;fill-rule:nonzero;stroke:none"
         inkscape:connector-curvature="0" />
    </g>
    <g
       transform="matrix(1.0024333,0,0,0.63162735,-433.02114,71.763021)"
       id="g9626"
       clip-path="url(#clip28)"
       style="clip-rule:nonzero;fill:#000000">
      <path
         id="path9624"
         d="m 412.52344,105.04297 c 19.32031,0.23828 37.73828,8.70312 57.10547,7.87891 9.6289,-0.97266 18.55468,-5.09766 27.38281,-8.8125 14.9414,-6.445318 25.49219,-10.60938 41.91015,-6.242192 14.06641,3.355472 27.82032,7.871092 41.80079,11.535152 9.23437,2.46875 18.92968,4.60547 28.46484,2.65625 4.77734,-0.8164 9.15625,-2.91796 13.70312,-4.49218 4.5625,-1.49219 9.44532,-2.38282 14.20313,-2.39453 -4.81641,0.11718 -9.61328,0.94921 -14.17578,2.48437 -4.53125,1.59766 -8.91797,3.72656 -13.69922,4.5625 -9.55469,2.01172 -19.3125,-0.082 -28.5625,-2.58203 -13.97656,-3.67969 -27.72656,-8.17188 -41.77734,-11.578126 -16.27735,-4.394532 -27.00782,-0.3125 -41.83204,6.140626 -8.82812,3.74609 -17.74609,7.90625 -27.40234,8.91016 -19.37891,0.89453 -37.84766,-7.70704 -57.12109,-8.06641"
         style="fill:#000000;fill-opacity:1;fill-rule:nonzero;stroke:none"
         inkscape:connector-curvature="0" />
    </g>
    <g
       transform="matrix(1.0024333,0,0,0.63162735,-433.02114,71.763021)"
       id="g9630"
       clip-path="url(#clip29)"
       style="clip-rule:nonzero;fill:#000000">
      <path
         id="path9628"
         d="m 412.52344,108.30859 c 14.51562,0.3125 28.47265,4.76563 42.75781,6.80079 4.76172,0.62109 9.57422,1.28515 14.37109,0.8789 4.79297,-0.4375 9.44922,-1.79687 13.99219,-3.36328 9.09766,-3.16797 17.78516,-7.41406 26.90625,-10.52734 4.55859,-1.54297 9.28516,-2.718754 14.11328,-2.945316 4.83203,-0.1875 9.64453,0.5625 14.33985,1.632816 14.08203,3.28515 27.73046,8.13672 41.6914,11.85156 9.22656,2.49219 18.94922,4.46875 28.46485,2.50391 4.76953,-0.83985 9.14843,-2.94141 13.70703,-4.47657 4.57031,-1.46484 9.45312,-2.34765 14.21093,-2.32812 -4.8164,0.082 -9.61328,0.91015 -14.17968,2.42187 -4.55078,1.55469 -8.92969,3.6836 -13.70313,4.54688 -9.53515,2.02344 -19.32031,0.0898 -28.5625,-2.4336 -13.96484,-3.73046 -27.60937,-8.55859 -41.67578,-11.89453 -4.67969,-1.082029 -9.47266,-1.843748 -14.28516,-1.671872 -4.80859,0.207031 -9.53125,1.367192 -14.08984,2.890622 -9.13672,3.0625 -17.79687,7.3711 -26.89062,10.56641 -6.78516,2.4375 -14,4.16016 -21.25391,3.37891 -16.82031,-1.33204 -33.04297,-7.32813 -49.91406,-7.83204"
         style="fill:#000000;fill-opacity:1;fill-rule:nonzero;stroke:none"
         inkscape:connector-curvature="0" />
    </g>
    <g
       transform="matrix(1.0024333,0,0,0.63162735,-433.02114,71.763021)"
       id="g9634"
       clip-path="url(#clip30)"
       style="clip-rule:nonzero;fill:#000000">
      <path
         id="path9632"
         d="m 412.52344,111.57813 c 19.1914,0.34765 37.89843,6.61718 57.10937,6.15625 14.35547,-1.5625 27.60547,-7.9375 41.28906,-12.14844 9.08594,-3.04688 18.84766,-4.76953 28.32032,-2.5586 14.10937,2.94532 27.46484,8.58594 41.33593,12.35157 9.19922,2.63672 18.92579,3.84375 28.36719,1.77343 4.72266,-0.87109 9.23438,-2.55468 13.89453,-3.67578 4.66407,-1.13281 9.4375,-1.8164 14.23828,-1.89843 -7.15234,0.19531 -14.30078,1.73828 -21.125,3.97265 -6.88281,2.07031 -14.10156,3.35156 -21.30468,2.7461 -14.39453,-1.37891 -27.82813,-7.28125 -41.5625,-11.36719 -9.10547,-2.70703 -18.54688,-5.70703 -28.15235,-4.48828 -21.34765,2.71875 -40.52734,16.67187 -62.48437,15.4375 -16.73828,-1.17969 -33.17188,-5.73828 -49.92578,-6.30078"
         style="fill:#000000;fill-opacity:1;fill-rule:nonzero;stroke:none"
         inkscape:connector-curvature="0" />
    </g>
    <g
       transform="matrix(1.0024333,0,0,0.63162735,-433.02114,71.763021)"
       id="g9638"
       clip-path="url(#clip31)"
       style="clip-rule:nonzero;fill:#000000">
      <path
         id="path9636"
         d="m 412.52344,114.84375 c 19.10547,0.23047 38.0039,4.03906 57.09375,3.84375 4.76172,-0.28906 9.45312,-1.24219 14.09765,-2.31641 13.95703,-3.1875 27.45313,-8.24218 41.55078,-10.82031 9.45704,-1.97265 19.17969,-0.43359 28.19141,2.75391 19.92188,6.9414 33.25781,14.76562 55.29688,10.4375 9.35156,-1.67969 18.80078,-3.96875 28.32421,-3.875 -9.59765,0.0352 -18.92578,2.28515 -28.29687,4.03906 -28.98438,5.88672 -43.26953,-9.70703 -69.26563,-13.75781 -9.52343,-1.21094 -19.01171,1.36328 -28.16015,3.76562 -13.82813,3.57813 -27.41016,8.73438 -41.72656,9.96485 -19.09766,0.34375 -38.06641,-3.73828 -57.10547,-4.03516"
         style="fill:#000000;fill-opacity:1;fill-rule:nonzero;stroke:none"
         inkscape:connector-curvature="0" />
    </g>
    <g
       transform="matrix(1.0024333,0,0,0.63162735,-433.02114,71.763021)"
       id="g9642"
       clip-path="url(#clip32)"
       style="clip-rule:nonzero;fill:#000000">
      <path
         id="path9640"
         d="m 412.52344,118.10938 c 19.02734,-0.17969 38.04297,1.57812 57.0625,1.01953 19.05859,-0.95313 37.34375,-7.14063 56.05468,-10.39844 17.3086,-3.25391 25.78125,-1.35938 41.36329,6.37891 15.11718,7.64843 25.30078,7.08203 41.63671,5.3164 9.4336,-0.98828 18.97266,-2.36719 28.4375,-2.28906 -14.30078,0.0547 -28.37109,3.10156 -42.64843,3.59375 -4.75782,0.24219 -9.56641,-0.16016 -14.19532,-1.32031 -9.30468,-2.26172 -17.39843,-7.70703 -26.42578,-10.70703 -13.75,-4.86719 -28.37109,-0.81641 -42.125,2.01953 -13.49218,2.8789 -28.30468,7.01172 -42.08984,7.59375 -19.01172,0.61718 -38.10156,-1.26172 -57.07031,-1.20703"
         style="fill:#000000;fill-opacity:1;fill-rule:nonzero;stroke:none"
         inkscape:connector-curvature="0" />
    </g>
    <g
       transform="matrix(1.0024333,0,0,0.63162735,-433.02114,71.763021)"
       id="g9646"
       clip-path="url(#clip33)"
       style="clip-rule:nonzero;fill:#000000">
      <path
         id="path9644"
         d="m 412.52344,121.375 c 11.1875,-0.51562 61.25781,-1.00391 71.25,-2.64062 18.87109,-2.39063 37.40625,-7.125 56.37109,-8.75782 7.07031,-0.63281 14.54297,-0.20312 20.875,3.33985 4.20703,2.21484 8,5.16797 12.33203,7.13281 6.55078,3.04687 13.90235,2.83203 20.97266,2.65625 4.75,-0.11719 9.5,-0.37109 14.24609,-0.64063 9.47656,-0.52343 19.0586,-1.23437 28.50781,-1.0625 -9.51562,-0.0508 -19.00781,0.62891 -28.49609,1.22657 -9.47656,0.39843 -19.0625,1.58203 -28.50391,0.14843 -4.74218,-0.78125 -9.0664,-3.01171 -13.05859,-5.59765 -9.02344,-6.1836 -15.95312,-7.98438 -26.85937,-7.00781 -18.96485,1.57421 -37.51954,6.20312 -56.36719,8.70703 -14.17188,1.76953 -28.4961,1.41797 -42.74219,1.89062 -0.004,-0.0273 -28.57422,0.67969 -28.52734,0.60547"
         style="fill:#000000;fill-opacity:1;fill-rule:nonzero;stroke:none"
         inkscape:connector-curvature="0" />
    </g>
    <g
       transform="matrix(1.0024333,0,0,0.63162735,-433.02114,71.763021)"
       id="g9650"
       clip-path="url(#clip34)"
       style="clip-rule:nonzero;fill:#000000">
      <path
         id="path9648"
         d="m 412.52344,124.64453 c 19.05859,-0.5 37.99218,-3.125 57.0664,-3.52344 4.75782,-0.17968 9.51953,-0.39843 14.25782,-0.85937 16.46875,-1.625 40.21875,-5.85547 56.70312,-7.32422 7.01953,-0.36719 14.64453,-1.58594 21.14453,1.77344 2.13281,1.13281 3.89063,2.80078 5.64453,4.39844 3.35938,3.4375 7.75782,5.60937 12.58594,5.875 4.17969,0.36718 10.03906,0.14843 14.27344,0.17968 14.29297,-0.125 28.58203,-0.71875 42.8789,-0.51953 -9.46875,-0.0117 -19.07031,0.17969 -28.58593,0.45313 -7.14453,0.17968 -14.29297,0.36718 -21.4375,0.34375 -4.73438,-0.0312 -9.69922,0.10547 -14.08985,-1.94922 -4.41797,-1.98828 -7.16015,-6.32422 -11.3789,-8.57813 -6.44922,-3.33203 -14.04297,-2.11328 -21.01953,-1.78125 -18.98438,1.70703 -37.75391,5.23438 -56.70313,7.27344 -14.24609,1.21875 -28.55859,1.24219 -42.80078,2.58594 -9.48438,0.70312 -19.07031,1.52344 -28.53906,1.65234"
         style="fill:#000000;fill-opacity:1;fill-rule:nonzero;stroke:none"
         inkscape:connector-curvature="0" />
    </g>
    <g
       transform="matrix(1.0024333,0,0,0.63162735,-433.02114,71.763021)"
       id="g9654"
       clip-path="url(#clip35)"
       style="clip-rule:nonzero;fill:#000000">
      <path
         id="path9652"
         d="m 412.52344,127.91016 c 14.35937,-0.17578 28.54297,-2.60157 42.82812,-3.78907 9.52735,-0.8125 19.10547,-0.71484 28.63281,-1.53125 4.75391,-0.46875 9.4961,-1.07031 14.2461,-1.59765 16.82812,-1.72266 40.33984,-5.59375 57.0664,-5.50391 14.96094,0.35547 9.19141,12.14063 24.4375,12.29297 -0.004,0.0273 57.39454,0.082 57.34375,0.15234 l -28.67578,0.0859 c -9.55859,0.008 -19.11328,0.10156 -28.67968,0.008 -3.54297,-0.10546 -7.39063,-0.7539 -10.07422,-3.28515 -2.5586,-2.46485 -4.02344,-6.08594 -7.44532,-7.55469 -2.14453,-1.03125 -4.54687,-1.37109 -6.91796,-1.47266 -9.54688,-0.0937 -19.07813,0.96875 -28.5625,2.0586 -9.92579,1.14844 -33.09375,3.88281 -42.72657,4.95703 -9.52343,0.83984 -19.10156,0.80859 -28.6289,1.60156 -14.26953,1.10156 -28.55078,3.54297 -42.84375,3.57813"
         style="fill:#000000;fill-opacity:1;fill-rule:nonzero;stroke:none"
         inkscape:connector-curvature="0" />
    </g>
    <g
       transform="matrix(1.0024333,0,0,0.63162735,-433.02114,71.763021)"
       id="g9658"
       clip-path="url(#clip36)"
       style="clip-rule:nonzero;fill:#000000">
      <path
         id="path9656"
         d="m 412.52344,131.17578 c 14.28906,0.0508 28.32031,-2.98437 42.50781,-4.23828 4.73047,-0.48828 9.49609,-0.44141 14.23828,-0.59375 22.07813,-1.31641 48.86719,-4.30469 70.97656,-6.08594 8.08985,-0.39843 17.24219,-2.35547 24.32032,2.69141 2.83203,2.125 5.20312,4.94531 8.61718,6.16797 4.44532,1.76172 9.32032,1.55468 14.02344,1.53125 5.03125,-0.0469 16.25391,0.17187 21.375,0.25 9.48438,0.20312 19.05859,0.32031 28.49609,0.30078 -13.67578,0.19531 -28.98046,-0.19141 -42.74609,-0.28906 l -7.12109,-0.0117 c -5.85157,0.0508 -12.25,0.25781 -17.27735,-3.23828 -1.96484,-1.35157 -3.58593,-3.125 -5.5039,-4.51953 -4.89453,-3.58204 -11.25391,-3.58985 -17.0586,-3.16016 -29.90625,1.95312 -62.40625,6.13672 -92.32031,7.16797 -14.17187,1.16797 -28.30469,4.21875 -42.52734,4.02734"
         style="fill:#000000;fill-opacity:1;fill-rule:nonzero;stroke:none"
         inkscape:connector-curvature="0" />
    </g>
    <g
       transform="matrix(1.0024333,0,0,0.63162735,-433.02114,71.763021)"
       id="g9662"
       clip-path="url(#clip37)"
       style="clip-rule:nonzero;fill:#000000">
      <path
         id="path9660"
         d="m 412.52344,134.44141 c 14.1914,0.0625 27.91406,-4.11329 41.96875,-5.44532 4.69531,-0.44531 9.40234,-0.58593 14.10937,-0.72656 16.26563,-0.34375 39.9375,-1.35156 56.45313,-1.96875 l 14.10937,-0.57031 c 4.69531,-0.13672 9.42188,-0.60156 14.1211,-0.008 7.11718,0.58593 13.57421,3.82812 20.41406,5.53906 6.88281,1.75 14.01562,1.28906 21.05078,1.51172 4.70703,0.14453 9.41016,0.39062 14.10937,0.65234 9.38282,0.55469 18.86329,1.05859 28.21875,1.04297 -9.41796,0.13281 -18.82812,-0.39453 -28.22656,-0.875 -4.70312,-0.24219 -9.40625,-0.46484 -14.10937,-0.58203 -7.05078,-0.19531 -14.19532,0.23047 -21.09766,-1.51953 -6.84375,-1.70703 -13.27734,-4.95313 -20.38281,-5.54297 -4.67188,-0.58984 -9.38672,-0.14063 -14.08985,-0.0195 l -14.11328,0.51953 c -22.16406,0.99219 -48.58593,1.4375 -70.54687,2.76172 -14.03516,1.23828 -27.86328,5.43359 -41.98828,5.23047"
         style="fill:#000000;fill-opacity:1;fill-rule:nonzero;stroke:none"
         inkscape:connector-curvature="0" />
    </g>
    <g
       transform="matrix(1.0024333,0,0,0.63162735,-433.02114,71.763021)"
       id="g9666"
       clip-path="url(#clip38)"
       style="clip-rule:nonzero;fill:#000000">
      <path
         id="path9664"
         d="m 412.52344,137.71094 c 14.3164,0.30468 27.46093,-6.09375 41.55468,-7.25782 23.46875,-0.94531 46.96094,1.4961 70.44141,1.61329 18.79297,0.10937 37.57031,0.97265 56.33984,1.82421 9.39844,0.20704 18.80469,0.375 28.13672,1.57813 9.32032,1.05078 18.73828,2.19141 28.08203,2.26562 -9.40625,0.043 -18.76171,-1.12109 -28.09765,-2.10156 -9.34375,-1.15234 -18.73047,-1.25781 -28.12891,-1.49609 -18.77734,-0.85938 -37.53906,-1.73047 -56.33594,-1.91797 -18.78906,-0.44922 -37.55859,-1.36328 -56.34765,-1.82031 -9.38672,-0.29688 -18.82813,0.1875 -27.92969,2.66015 -9.04687,2.36719 -18.32812,4.82813 -27.71484,4.65235"
         style="fill:#000000;fill-opacity:1;fill-rule:nonzero;stroke:none"
         inkscape:connector-curvature="0" />
    </g>
    <g
       transform="matrix(1.0024333,0,0,0.63162735,-433.02114,71.763021)"
       id="g9670"
       clip-path="url(#clip39)"
       style="clip-rule:nonzero;fill:#000000">
      <path
         id="path9668"
         d="m 412.52344,140.97656 c 4.72656,-0.0703 9.42968,-0.83203 13.96484,-2.15625 6.78125,-2.00781 13.19922,-5.30469 20.25391,-6.42187 7.03125,-1.17188 14.1914,-0.52735 21.22656,0.21093 9.39453,1.02344 18.77344,2.21094 28.16406,3.3125 13.65235,1.48829 28.64063,3.83204 42.32422,3.84766 23.53516,-0.45703 47.10938,-7.60937 70.58203,-2.6875 9.26563,1.82422 18.55078,3.83203 28.03906,3.89453 -9.42187,0.0625 -18.8164,-1.98047 -28.0664,-3.73047 -23.48828,-4.78125 -47.00781,2.3125 -70.55469,2.72266 -14.19922,-0.082 -28.24609,-2.45703 -42.33594,-3.95313 -9.39062,-1.0664 -18.77343,-2.22265 -28.17187,-3.21484 -7.03125,-0.71094 -14.16016,-1.33984 -21.17578,-0.22266 -7.05078,1.08594 -13.46485,4.34766 -20.26172,6.32813 -4.53125,1.27734 -9.32031,2.10156 -13.98828,2.07031"
         style="fill:#000000;fill-opacity:1;fill-rule:nonzero;stroke:none"
         inkscape:connector-curvature="0" />
    </g>
    <g
       transform="matrix(1.0024333,0,0,0.63162735,-433.02114,71.763021)"
       id="g9674"
       clip-path="url(#clip40)"
       style="clip-rule:nonzero;fill:#000000">
      <path
         id="path9672"
         d="m 412.52344,144.24219 c 4.77734,-0.10547 9.53515,-1.125 13.91406,-3.03907 4.35547,-1.94921 8.375,-4.65234 12.9375,-6.16796 9.23047,-3.17188 19.07812,-0.92579 28.38281,0.6914 9.41406,1.67969 18.76563,3.6836 28.12891,5.60547 11.70312,2.26953 23.41015,5.10938 35.35547,5.57422 7.18359,0.008 14.23437,-1.55859 21.25781,-2.91406 8.21094,-1.66407 19.97656,-4.15235 28.11719,-5.66016 9.3789,-1.875 19.14843,-2.35547 28.47656,0.10156 4.66797,1.07032 9.16016,2.75391 13.8125,3.83985 4.62891,1.15625 9.45312,1.80468 14.17187,1.99218 -9.66796,0.004 -18.80078,-3.29296 -28.02343,-5.67187 -9.32813,-2.40234 -19.01953,-1.87109 -28.39453,-0.0234 -8.08204,1.4961 -19.92188,3.9961 -28.11719,5.64844 -7.02344,1.35937 -14.10547,2.89062 -21.30078,2.85937 -11.96485,-0.48437 -23.65625,-3.42578 -35.375,-5.65234 -9.3711,-1.89062 -18.72657,-3.86328 -28.14063,-5.51172 -9.29687,-1.55859 -19.09375,-3.84765 -28.30469,-0.73437 -4.55859,1.48828 -8.58593,4.17187 -12.95312,6.10547 -4.37891,1.87109 -9.22656,2.95312 -13.94531,2.95703"
         style="fill:#000000;fill-opacity:1;fill-rule:nonzero;stroke:none"
         inkscape:connector-curvature="0" />
    </g>
    <g
       transform="matrix(1.0024333,0,0,0.63162735,-433.02114,71.763021)"
       id="g9678"
       clip-path="url(#clip41)"
       style="clip-rule:nonzero;fill:#000000">
      <path
         id="path9676"
         d="m 412.52344,147.50781 c 4.83203,-0.10156 9.67578,-1.29687 13.79297,-3.875 2.04296,-1.28515 3.91796,-2.83594 5.96875,-4.1289 8.26171,-5.85547 18.89062,-4.17579 28.11328,-1.95704 11.80859,2.65235 23.42968,6.05079 35.10547,9.21094 13.88671,3.5625 28.33593,8.52344 42.72656,5.01953 14.14062,-3.01953 28.1875,-7.22656 42.25,-10.55078 9.34375,-2.32422 19.27344,-3.92578 28.71875,-1.21094 4.71484,1.16797 9.0625,3.39844 13.65625,4.91797 4.58203,1.53125 9.38281,2.45703 14.22265,2.57422 -4.78515,-0.0156 -9.66796,-1 -14.2539,-2.48437 -4.60156,-1.4961 -8.95313,-3.70313 -13.66797,-4.84766 -9.43359,-2.65625 -19.28906,-1.00781 -28.62109,1.28906 -14.0586,3.30469 -28.11329,7.53516 -42.26563,10.50391 -14.42187,3.48437 -28.88672,-1.58984 -42.78906,-5.12109 -9.35547,-2.48829 -18.66016,-5.15235 -28.0625,-7.44532 -11.375,-2.51562 -24.53125,-7.05859 -35.06641,0.19922 -2.05078,1.28516 -3.92969,2.82031 -5.98828,4.10547 -4.12109,2.53906 -9.0625,3.80078 -13.83984,3.80078"
         style="fill:#000000;fill-opacity:1;fill-rule:nonzero;stroke:none"
         inkscape:connector-curvature="0" />
    </g>
    <path
       id="path9680"
       d="M 7.689283,157.6076 H 202.38456 V 86.176949 H 7.689283 Z m 195.196487,0.31582 H 7.188067 V 85.861135 H 202.88577 v 72.062285"
       style="fill:#000000;fill-opacity:1;fill-rule:nonzero;stroke:none;stroke-width:0.79571617"
       inkscape:connector-curvature="0" />
  </g>
</svg>
