<?xml version="1.0" encoding="UTF-8" standalone="no"?>
<!-- Created with Inkscape (http://www.inkscape.org/) -->

<svg
   xmlns:dc="http://purl.org/dc/elements/1.1/"
   xmlns:cc="http://creativecommons.org/ns#"
   xmlns:rdf="http://www.w3.org/1999/02/22-rdf-syntax-ns#"
   xmlns:svg="http://www.w3.org/2000/svg"
   xmlns="http://www.w3.org/2000/svg"
   xmlns:sodipodi="http://sodipodi.sourceforge.net/DTD/sodipodi-0.dtd"
   xmlns:inkscape="http://www.inkscape.org/namespaces/inkscape"
   width="555.99048mm"
   height="324.92578mm"
   viewBox="0 0 555.99047 324.92578"
   version="1.1"
   id="svg18734"
   inkscape:version="0.92.5 (2060ec1f9f, 2020-04-08)"
   sodipodi:docname="lines_two.svg">
  <defs
     id="defs18728">
    <clipPath
       id="clip63">
      <path
         inkscape:connector-curvature="0"
         id="path19127"
         d="M 439.39062,162.87109 H 472 V 199 h -32.60938 z m 0,0" />
    </clipPath>
    <clipPath
       id="clip62">
      <path
         inkscape:connector-curvature="0"
         id="path19124"
         d="m 469,162.87109 h 36 V 199 h -36 z m 0,0" />
    </clipPath>
    <clipPath
       id="clip61">
      <path
         inkscape:connector-curvature="0"
         id="path19121"
         d="m 536,162.87109 h 1 V 199 h -1 z m 0,0" />
    </clipPath>
    <clipPath
       id="clip60">
      <path
         inkscape:connector-curvature="0"
         id="path19118"
         d="m 569,162.87109 h 36 V 199 h -36 z m 0,0" />
    </clipPath>
    <clipPath
       id="clip59">
      <path
         inkscape:connector-curvature="0"
         id="path19115"
         d="m 601,162.87109 h 33.11328 V 199 H 601 Z m 0,0" />
    </clipPath>
    <clipPath
       id="clip58">
      <path
         inkscape:connector-curvature="0"
         id="path19112"
         d="m 439.39062,194 h 194.72266 v 2 H 439.39062 Z m 0,0" />
    </clipPath>
    <clipPath
       id="clip57">
      <path
         inkscape:connector-curvature="0"
         id="path19109"
         d="m 439.39062,190 h 194.72266 v 2 H 439.39062 Z m 0,0" />
    </clipPath>
    <clipPath
       id="clip56">
      <path
         inkscape:connector-curvature="0"
         id="path19106"
         d="m 439.39062,185 h 194.72266 v 2 H 439.39062 Z m 0,0" />
    </clipPath>
    <clipPath
       id="clip55">
      <path
         inkscape:connector-curvature="0"
         id="path19103"
         d="m 439.39062,179 h 194.72266 v 1 H 439.39062 Z m 0,0" />
    </clipPath>
    <clipPath
       id="clip54">
      <path
         inkscape:connector-curvature="0"
         id="path19100"
         d="m 439.39062,171 h 194.72266 v 1 H 439.39062 Z m 0,0" />
    </clipPath>
    <clipPath
       id="clip53">
      <path
         inkscape:connector-curvature="0"
         id="path19097"
         d="M 439.39062,162.87109 H 634.11328 V 199 H 439.39062 Z m 0,0" />
    </clipPath>
    <clipPath
       id="clip52">
      <path
         inkscape:connector-curvature="0"
         id="path19094"
         d="M 439.39062,237 H 472 v 39.46094 h -32.60938 z m 0,0" />
    </clipPath>
    <clipPath
       id="clip51">
      <path
         inkscape:connector-curvature="0"
         id="path19091"
         d="m 469,237 h 36 v 39.46094 h -36 z m 0,0" />
    </clipPath>
    <clipPath
       id="clip50">
      <path
         inkscape:connector-curvature="0"
         id="path19088"
         d="m 536,238 h 1 v 38.46094 h -1 z m 0,0" />
    </clipPath>
    <clipPath
       id="clip49">
      <path
         inkscape:connector-curvature="0"
         id="path19085"
         d="m 569,237 h 36 v 39.46094 h -36 z m 0,0" />
    </clipPath>
    <clipPath
       id="clip48">
      <path
         inkscape:connector-curvature="0"
         id="path19082"
         d="m 601,237 h 33.11328 v 39.46094 H 601 Z m 0,0" />
    </clipPath>
    <clipPath
       id="clip47">
      <path
         inkscape:connector-curvature="0"
         id="path19079"
         d="m 439.39062,241 h 194.72266 v 1 H 439.39062 Z m 0,0" />
    </clipPath>
    <clipPath
       id="clip46">
      <path
         inkscape:connector-curvature="0"
         id="path19076"
         d="m 439.39062,245 h 194.72266 v 2 H 439.39062 Z m 0,0" />
    </clipPath>
    <clipPath
       id="clip45">
      <path
         inkscape:connector-curvature="0"
         id="path19073"
         d="m 439.39062,251 h 194.72266 v 1 H 439.39062 Z m 0,0" />
    </clipPath>
    <clipPath
       id="clip44">
      <path
         inkscape:connector-curvature="0"
         id="path19070"
         d="m 439.39062,258 h 194.72266 v 1 H 439.39062 Z m 0,0" />
    </clipPath>
    <clipPath
       id="clip43">
      <path
         inkscape:connector-curvature="0"
         id="path19067"
         d="m 439.39062,266 h 194.72266 v 2 H 439.39062 Z m 0,0" />
    </clipPath>
    <clipPath
       id="clip42">
      <path
         inkscape:connector-curvature="0"
         id="path19064"
         d="m 439.39062,237 h 194.72266 v 39.46094 H 439.39062 Z m 0,0" />
    </clipPath>
  </defs>
  <sodipodi:namedview
     id="base"
     pagecolor="#ffffff"
     bordercolor="#666666"
     borderopacity="1.0"
     inkscape:pageopacity="0.0"
     inkscape:pageshadow="2"
     inkscape:zoom="0.35"
     inkscape:cx="913.4204"
     inkscape:cy="774.99109"
     inkscape:document-units="mm"
     inkscape:current-layer="layer1"
     showgrid="false"
     inkscape:window-width="1920"
     inkscape:window-height="1016"
     inkscape:window-x="0"
     inkscape:window-y="1107"
     inkscape:window-maximized="1" />
  <metadata
     id="metadata18731">
    <rdf:RDF>
      <cc:Work
         rdf:about="">
        <dc:format>image/svg+xml</dc:format>
        <dc:type
           rdf:resource="http://purl.org/dc/dcmitype/StillImage" />
        <dc:title></dc:title>
      </cc:Work>
    </rdf:RDF>
  </metadata>
  <g
     inkscape:label="Layer 1"
     inkscape:groupmode="layer"
     id="layer1"
     transform="translate(135.84248,-28.957281)">
    <path
       id="path20140"
       d="M -134.41849,352.45907 H 418.72403 V 30.381275 h -553.14252 z m 554.56651,1.424 h -555.9905 V 28.957281 h 555.9905 V 353.88307"
       style="fill:#000000;fill-opacity:1;fill-rule:nonzero;stroke:none;stroke-width:2.84798145"
       inkscape:connector-curvature="0" />
    <g
       transform="matrix(2.8479813,0,0,2.8479813,-1386.5067,-434.18453)"
       id="g20146"
       clip-path="url(#clip42)"
       style="clip-rule:nonzero;fill:#000000">
      <path
         id="path20144"
         d="M 336.08594,278.85547 H 737.41797 L 634.47266,238.33203 H 439.02734 Z m 403.96484,0.5 H 333.44922 l 105.53125,-41.52344 h 195.58594 l 0.0469,0.0195 105.4375,41.50391"
         style="fill:#000000;fill-opacity:1;fill-rule:nonzero;stroke:none"
         inkscape:connector-curvature="0" />
    </g>
    <g
       transform="matrix(2.8479813,0,0,2.8479813,-1386.5067,-434.18453)"
       id="g20150"
       clip-path="url(#clip43)"
       style="clip-rule:nonzero;fill:#000000">
      <path
         id="path20148"
         d="M 708.26562,267.35937 H 365.23828 v -0.5 h 343.02734 v 0.5"
         style="fill:#000000;fill-opacity:1;fill-rule:nonzero;stroke:none"
         inkscape:connector-curvature="0" />
    </g>
    <g
       transform="matrix(2.8479813,0,0,2.8479813,-1386.5067,-434.18453)"
       id="g20154"
       clip-path="url(#clip44)"
       style="clip-rule:nonzero;fill:#000000">
      <path
         id="path20152"
         d="m 685.78125,258.51172 h -298.0625 v -0.5 h 298.0625 v 0.5"
         style="fill:#000000;fill-opacity:1;fill-rule:nonzero;stroke:none"
         inkscape:connector-curvature="0" />
    </g>
    <g
       transform="matrix(2.8479813,0,0,2.8479813,-1386.5067,-434.18453)"
       id="g20158"
       clip-path="url(#clip45)"
       style="clip-rule:nonzero;fill:#000000">
      <path
         id="path20156"
         d="M 668.51172,251.71094 H 404.99219 v -0.5 h 263.51953 v 0.5"
         style="fill:#000000;fill-opacity:1;fill-rule:nonzero;stroke:none"
         inkscape:connector-curvature="0" />
    </g>
    <g
       transform="matrix(2.8479813,0,0,2.8479813,-1386.5067,-434.18453)"
       id="g20162"
       clip-path="url(#clip46)"
       style="clip-rule:nonzero;fill:#000000">
      <path
         id="path20160"
         d="M 654.82812,246.32812 H 418.67578 v -0.5 h 236.15234 v 0.5"
         style="fill:#000000;fill-opacity:1;fill-rule:nonzero;stroke:none"
         inkscape:connector-curvature="0" />
    </g>
    <g
       transform="matrix(2.8479813,0,0,2.8479813,-1386.5067,-434.18453)"
       id="g20166"
       clip-path="url(#clip47)"
       style="clip-rule:nonzero;fill:#000000">
      <path
         id="path20164"
         d="M 643.71875,241.95312 H 429.78516 v -0.5 h 213.93359 v 0.5"
         style="fill:#000000;fill-opacity:1;fill-rule:nonzero;stroke:none"
         inkscape:connector-curvature="0" />
    </g>
    <g
       transform="matrix(2.8479813,0,0,2.8479813,-1386.5067,-434.18453)"
       id="g20170"
       clip-path="url(#clip48)"
       style="clip-rule:nonzero;fill:#000000">
      <path
         id="path20168"
         d="m 671.28125,279.32031 -69.47656,-41.02344 0.2539,-0.42968 69.47657,41.02343 -0.25391,0.42969"
         style="fill:#000000;fill-opacity:1;fill-rule:nonzero;stroke:none"
         inkscape:connector-curvature="0" />
    </g>
    <g
       transform="matrix(2.8479813,0,0,2.8479813,-1386.5067,-434.18453)"
       id="g20174"
       clip-path="url(#clip49)"
       style="clip-rule:nonzero;fill:#000000">
      <path
         id="path20172"
         d="m 603.88672,279.26562 -34.73828,-41.01953 0.38281,-0.32422 34.73828,41.01954 -0.38281,0.32421"
         style="fill:#000000;fill-opacity:1;fill-rule:nonzero;stroke:none"
         inkscape:connector-curvature="0" />
    </g>
    <g
       transform="matrix(2.8479813,0,0,2.8479813,-1386.5067,-434.18453)"
       id="g20178"
       clip-path="url(#clip50)"
       style="clip-rule:nonzero;fill:#000000">
      <path
         id="path20176"
         d="m 537,279.10547 h -0.5 v -41.02344 h 0.5 v 41.02344"
         style="fill:#000000;fill-opacity:1;fill-rule:nonzero;stroke:none"
         inkscape:connector-curvature="0" />
    </g>
    <g
       transform="matrix(2.8479813,0,0,2.8479813,-1386.5067,-434.18453)"
       id="g20182"
       clip-path="url(#clip51)"
       style="clip-rule:nonzero;fill:#000000">
      <path
         id="path20180"
         d="m 469.61328,279.26562 -0.38281,-0.32421 34.73828,-41.01954 0.38281,0.32422 -34.73828,41.01953"
         style="fill:#000000;fill-opacity:1;fill-rule:nonzero;stroke:none"
         inkscape:connector-curvature="0" />
    </g>
    <g
       transform="matrix(2.8479813,0,0,2.8479813,-1386.5067,-434.18453)"
       id="g20186"
       clip-path="url(#clip52)"
       style="clip-rule:nonzero;fill:#000000">
      <path
         id="path20184"
         d="m 402.22266,279.32031 -0.25391,-0.42969 69.47656,-41.02343 0.25391,0.42968 -69.47656,41.02344"
         style="fill:#000000;fill-opacity:1;fill-rule:nonzero;stroke:none"
         inkscape:connector-curvature="0" />
    </g>
    <g
       transform="matrix(2.8479813,0,0,2.8479813,-1386.5067,-434.18453)"
       id="g20190"
       clip-path="url(#clip53)"
       style="clip-rule:nonzero;fill:#000000">
      <path
         id="path20188"
         d="M 439.02734,198.16797 H 634.47656 L 737.31641,160.70703 H 336.18359 Z m 195.53516,0.5 -195.66406,-0.0156 -105.54688,-38.44531 H 740.15234 L 634.5625,198.66797"
         style="fill:#000000;fill-opacity:1;fill-rule:nonzero;stroke:none"
         inkscape:connector-curvature="0" />
    </g>
    <g
       transform="matrix(2.8479813,0,0,2.8479813,-1386.5067,-434.18453)"
       id="g20194"
       clip-path="url(#clip54)"
       style="clip-rule:nonzero;fill:#000000">
      <path
         id="path20192"
         d="M 708.26562,171.80859 H 365.23828 v -0.5 h 343.02734 v 0.5"
         style="fill:#000000;fill-opacity:1;fill-rule:nonzero;stroke:none"
         inkscape:connector-curvature="0" />
    </g>
    <g
       transform="matrix(2.8479813,0,0,2.8479813,-1386.5067,-434.18453)"
       id="g20198"
       clip-path="url(#clip55)"
       style="clip-rule:nonzero;fill:#000000">
      <path
         id="path20196"
         d="m 685.78125,179.99609 h -298.0625 v -0.5 h 298.0625 v 0.5"
         style="fill:#000000;fill-opacity:1;fill-rule:nonzero;stroke:none"
         inkscape:connector-curvature="0" />
    </g>
    <g
       transform="matrix(2.8479813,0,0,2.8479813,-1386.5067,-434.18453)"
       id="g20202"
       clip-path="url(#clip56)"
       style="clip-rule:nonzero;fill:#000000">
      <path
         id="path20200"
         d="M 668.51172,186.28516 H 404.99219 v -0.5 h 263.51953 v 0.5"
         style="fill:#000000;fill-opacity:1;fill-rule:nonzero;stroke:none"
         inkscape:connector-curvature="0" />
    </g>
    <g
       transform="matrix(2.8479813,0,0,2.8479813,-1386.5067,-434.18453)"
       id="g20206"
       clip-path="url(#clip57)"
       style="clip-rule:nonzero;fill:#000000">
      <path
         id="path20204"
         d="M 654.82812,191.26953 H 418.67578 v -0.5 h 236.15234 v 0.5"
         style="fill:#000000;fill-opacity:1;fill-rule:nonzero;stroke:none"
         inkscape:connector-curvature="0" />
    </g>
    <g
       transform="matrix(2.8479813,0,0,2.8479813,-1386.5067,-434.18453)"
       id="g20210"
       clip-path="url(#clip58)"
       style="clip-rule:nonzero;fill:#000000">
      <path
         id="path20208"
         d="M 643.71875,195.31641 H 429.78516 v -0.5 h 213.93359 v 0.5"
         style="fill:#000000;fill-opacity:1;fill-rule:nonzero;stroke:none"
         inkscape:connector-curvature="0" />
    </g>
    <g
       transform="matrix(2.8479813,0,0,2.8479813,-1386.5067,-434.18453)"
       id="g20214"
       clip-path="url(#clip59)"
       style="clip-rule:nonzero;fill:#000000">
      <path
         id="path20212"
         d="m 602.05078,198.63672 -0.23828,-0.4375 69.47266,-37.96094 0.24218,0.4375 -69.47656,37.96094"
         style="fill:#000000;fill-opacity:1;fill-rule:nonzero;stroke:none"
         inkscape:connector-curvature="0" />
    </g>
    <g
       transform="matrix(2.8479813,0,0,2.8479813,-1386.5067,-434.18453)"
       id="g20218"
       clip-path="url(#clip60)"
       style="clip-rule:nonzero;fill:#000000">
      <path
         id="path20216"
         d="m 569.52734,198.58594 -0.37109,-0.33985 34.73828,-37.95703 0.36719,0.33985 -34.73438,37.95703"
         style="fill:#000000;fill-opacity:1;fill-rule:nonzero;stroke:none"
         inkscape:connector-curvature="0" />
    </g>
    <g
       transform="matrix(2.8479813,0,0,2.8479813,-1386.5067,-434.18453)"
       id="g20222"
       clip-path="url(#clip61)"
       style="clip-rule:nonzero;fill:#000000">
      <path
         id="path20220"
         d="m 537,198.41797 h -0.5 v -37.96094 h 0.5 v 37.96094"
         style="fill:#000000;fill-opacity:1;fill-rule:nonzero;stroke:none"
         inkscape:connector-curvature="0" />
    </g>
    <g
       transform="matrix(2.8479813,0,0,2.8479813,-1386.5067,-434.18453)"
       id="g20226"
       clip-path="url(#clip62)"
       style="clip-rule:nonzero;fill:#000000">
      <path
         id="path20224"
         d="m 503.97656,198.58594 -34.73828,-37.95703 0.37109,-0.33985 34.73829,37.95703 -0.3711,0.33985"
         style="fill:#000000;fill-opacity:1;fill-rule:nonzero;stroke:none"
         inkscape:connector-curvature="0" />
    </g>
    <g
       transform="matrix(2.8479813,0,0,2.8479813,-1386.5067,-434.18453)"
       id="g20230"
       clip-path="url(#clip63)"
       style="clip-rule:nonzero;fill:#000000">
      <path
         id="path20228"
         d="m 471.45312,198.63672 -69.47656,-37.96094 0.23828,-0.4375 69.47657,37.96094 -0.23829,0.4375"
         style="fill:#000000;fill-opacity:1;fill-rule:nonzero;stroke:none"
         inkscape:connector-curvature="0" />
    </g>
  </g>
</svg>
