<?xml version="1.0" encoding="UTF-8" standalone="no"?>
<!-- Created with Inkscape (http://www.inkscape.org/) -->

<svg
   xmlns:dc="http://purl.org/dc/elements/1.1/"
   xmlns:cc="http://creativecommons.org/ns#"
   xmlns:rdf="http://www.w3.org/1999/02/22-rdf-syntax-ns#"
   xmlns:svg="http://www.w3.org/2000/svg"
   xmlns="http://www.w3.org/2000/svg"
   xmlns:sodipodi="http://sodipodi.sourceforge.net/DTD/sodipodi-0.dtd"
   xmlns:inkscape="http://www.inkscape.org/namespaces/inkscape"
   width="416.45425mm"
   height="416.49924mm"
   viewBox="0 0 416.45425 416.49924"
   version="1.1"
   id="svg18734"
   inkscape:version="0.92.5 (2060ec1f9f, 2020-04-08)"
   sodipodi:docname="mash.svg">
  <defs
     id="defs18728" />
  <sodipodi:namedview
     id="base"
     pagecolor="#ffffff"
     bordercolor="#666666"
     borderopacity="1.0"
     inkscape:pageopacity="0.0"
     inkscape:pageshadow="2"
     inkscape:zoom="0.35"
     inkscape:cx="752.72968"
     inkscape:cy="855.42847"
     inkscape:document-units="mm"
     inkscape:current-layer="layer1"
     showgrid="false"
     inkscape:window-width="1920"
     inkscape:window-height="1016"
     inkscape:window-x="0"
     inkscape:window-y="1107"
     inkscape:window-maximized="1" />
  <metadata
     id="metadata18731">
    <rdf:RDF>
      <cc:Work
         rdf:about="">
        <dc:format>image/svg+xml</dc:format>
        <dc:type
           rdf:resource="http://purl.org/dc/dcmitype/StillImage" />
        <dc:title></dc:title>
      </cc:Work>
    </rdf:RDF>
  </metadata>
  <g
     inkscape:label="Layer 1"
     inkscape:groupmode="layer"
     id="layer1"
     transform="translate(93.326395,41.333777)">
    <path
       id="path16966"
       d="m -92.91495,-40.465943 c 0,0 103.90784,0 207.81567,0 5.19444,0 10.38887,0 15.57687,0 10.4017,-0.03211 20.59769,-0.04496 30.6394,-0.04496 10.17027,0 20.18626,0.01352 30.08655,0.04496 4.87298,0 9.68169,0 14.40681,0 66.19038,0 117.10605,0 117.10605,0 v -0.822874 c 0,0 -50.91567,0 -117.10605,0 -4.72512,0 -9.53383,0 -14.40039,0 -9.90671,-0.03212 -19.91626,-0.04496 -30.09297,-0.04496 -10.04171,0 -20.2377,0.01352 -30.64584,0.04496 -5.18156,0 -10.37599,0 -15.57043,0 -51.950695,0 -103.90783,0 -142.87245,0 -19.479107,0 -35.718137,0 -47.07773,0 -5.683024,0 -10.150998,0 -13.191793,0 -3.047218,0 -4.667274,0 -4.673697,0 v 0.822874"
       style="clip-rule:evenodd;fill:#000000;fill-opacity:1;fill-rule:nonzero;stroke:none;stroke-width:1.64575934;image-rendering:optimizeQuality;shape-rendering:geometricPrecision;text-rendering:geometricPrecision"
       inkscape:connector-curvature="0" />
    <path
       id="path16968"
       d="m -92.91495,-18.588918 c 0.0068,0 1.317887,0 3.799389,0 17.376917,0 91.9375008,0 172.946156,0 2.88009,0 5.76659,0 8.65952,0 2.27578,0 4.55799,0 6.83376,0 h 0.0193 c 19.704115,-0.919304 39.176785,-1.382168 58.835885,-1.382168 19.54983,0 39.28608,0.456424 59.63307,1.362882 h 0.0135 c 4.01796,0.01927 7.9588,0.01927 11.82247,0.01927 54.08505,0 93.06897,0 93.06897,0 v -0.822875 c 0,0 -38.98392,0 -93.06897,0 -3.86367,0 -7.80451,0 -11.81605,-0.01927 v 0.411445 l 0.0135,-0.411445 c -20.35342,-0.906458 -40.10253,-1.362882 -59.66522,-1.362882 -19.67195,0 -39.1575,0.462864 -58.874475,1.382168 l 0.0193,0.411445 v -0.411445 c -2.2822,0 -4.55798,0 -6.83374,0 -2.88653,0 -5.77946,0 -8.6531,0 -46.29341,0 -90.4781902,0 -123.091216,0 -16.309751,0 -29.726537,0 -39.061085,0 -4.667274,0 -8.318796,0 -10.800298,0 -2.481485,0 -3.792965,0 -3.799388,0 v 0.822891"
       style="clip-rule:evenodd;fill:#000000;fill-opacity:1;fill-rule:nonzero;stroke:none;stroke-width:1.64575934;image-rendering:optimizeQuality;shape-rendering:geometricPrecision;text-rendering:geometricPrecision"
       inkscape:connector-curvature="0" />
    <path
       id="path16970"
       d="m -92.91495,3.2881234 c 0.0068,0 1.176462,0 3.400806,0 15.544716,0 82.4679688,0 158.005769,0 5.07868,0.01927 10.19597,0.03211 15.37112,0.08367 h 0.007 c 33.178725,-0.02569 67.206085,-1.690777 100.712725,-1.690777 16.27758,0 32.43302,0.392176 48.3056,1.555775 h 0.0257 c 4.39085,0.04496 8.6531,0.05138 12.7932,0.05138 45.57984,0 77.00997,0 77.00997,0 v -0.822891 c 0,0 -31.43013,0 -77.00997,0 -4.1401,0 -8.40235,-0.0068 -12.78033,-0.05138 l -0.007,0.411445 0.0257,-0.411445 c -15.89833,-1.1636 -32.07304,-1.55575897 -48.3635,-1.55575897 -33.53233,0 -67.55969,1.66505097 -100.712735,1.69075997 v 0.411445 -0.411445 c -5.17514,-0.05138 -10.29243,-0.0644 -15.37115,-0.08367 -43.16904,0 -83.522287,0 -113.081655,0 -14.779685,0 -26.859316,0 -35.248817,0 -4.191548,0 -7.463791,0 -9.681711,0 -2.224345,0 -3.394383,0 -3.400789,0 v 0.822891"
       style="clip-rule:evenodd;fill:#000000;fill-opacity:1;fill-rule:nonzero;stroke:none;stroke-width:1.64575934;image-rendering:optimizeQuality;shape-rendering:geometricPrecision;text-rendering:geometricPrecision"
       inkscape:connector-curvature="0" />
    <path
       id="path16972"
       d="m -92.91495,25.158708 c 0.01352,0 3.657947,0 10.27956,0 19.858404,0 66.434681,0 121.233325,0 4.86657,0 9.80385,0 14.79255,0 5.11727,0.01352 10.21528,0.14773 15.29398,0.372857 h 0.0193 c 41.028265,-0.19286 82.705835,-1.13145 123.669805,-1.13145 17.91691,0 35.69883,0.180014 53.23002,0.681432 h 0.007 c 6.21017,0.07082 12.13747,0.08367 17.74978,0.08367 1.31146,0 2.60364,0 3.87653,-0.0068 33.65449,0 55.48009,0 55.48009,0 v -0.822739 c 0,0 -21.8256,0 -55.48009,0 -1.27289,0.0068 -2.56507,0.0068 -3.87653,0.0068 -5.61231,0 -11.53318,-0.01352 -17.74334,-0.08367 v 0.411428 l 0.007,-0.411428 C 228.0859,23.757373 210.29756,23.57736 192.3742,23.57736 c -40.97682,0 -82.65439,0.938589 -123.676235,1.131466 v 0.411429 l 0.0193,-0.411429 c -5.08514,-0.225009 -10.19599,-0.36001 -15.32613,-0.372873 -4.98869,0 -9.92597,0 -14.79256,0 -36.5345562,0 -69.411179,0 -93.152538,0 -11.873891,0 -21.465597,0 -28.080771,0 -6.621614,0 -10.266697,0 -10.27956,0 v 0.82289"
       style="clip-rule:evenodd;fill:#000000;fill-opacity:1;fill-rule:nonzero;stroke:none;stroke-width:1.64575934;image-rendering:optimizeQuality;shape-rendering:geometricPrecision;text-rendering:geometricPrecision"
       inkscape:connector-curvature="0" />
    <path
       id="path16974"
       d="m -92.91495,47.035731 c 0.01352,0 3.657947,0 10.27956,0 19.858404,0 66.434681,0 121.233325,0 4.86657,0 9.80385,0 14.79255,0 h 0.045 c 3.7801,-0.45002 7.52163,-0.6493 11.23745,-0.6493 0.41787,0 0.84216,0 1.26005,0.007 l 0.007,-0.41144 -0.0135,0.41144 c 28.78793,0.79074 54.355065,6.26805 83.618725,9.92599 l 0.0514,-0.405 -0.0644,0.405 c 7.09732,1.06075 14.12396,1.51077 21.10557,1.51077 29.10294,-0.007 57.45372,-7.7338 87.16739,-10.78746 l -0.0385,-0.41143 v 0.41143 c 7.79808,-0.007 15.07543,-0.007 21.72274,-0.007 26.60216,0 43.22691,0 43.22691,0 v -0.82287 c 0,0 -16.62475,0 -43.22691,0 -6.64731,0 -13.92466,0 -21.72274,0.007 h -0.0257 l -0.0193,0.007 c -29.80368,3.06652 -58.12874,10.78101 -87.08381,10.78101 -6.94947,0 -13.9311,-0.44357 -20.98344,-1.50432 h -0.0135 c -29.21177,-3.65157 -54.811035,-9.1353 -83.695395,-9.93246 h -0.007 c -0.41788,-0.007 -0.84217,-0.007 -1.26648,-0.007 -3.74152,0 -7.52164,0.19928 -11.33387,0.65572 l 0.0514,0.40502 v -0.41144 c -4.98869,0 -9.92597,0 -14.79256,0 -36.5345522,0 -69.411176,0 -93.152535,0 -11.873891,0 -21.465596,0 -28.080771,0 -6.621613,0 -10.266714,0 -10.27956,0 v 0.82289"
       style="clip-rule:evenodd;fill:#000000;fill-opacity:1;fill-rule:nonzero;stroke:none;stroke-width:1.64575934;image-rendering:optimizeQuality;shape-rendering:geometricPrecision;text-rendering:geometricPrecision"
       inkscape:connector-curvature="0" />
    <path
       id="path16976"
       d="m -92.91495,68.912771 c 0.01352,0 3.657947,0 10.27956,0 19.858404,0 66.434681,0 121.233325,0 4.86657,0 9.80385,0 14.79255,0 h 0.0321 c 2.50079,-0.19287 4.98871,-0.28288 7.46378,-0.28288 1.67789,0 3.35581,0.0385 5.02728,0.12204 4.13369,0.19287 8.22235,0.6043 12.24676,1.02859 h 0.0321 c 42.005445,1.13791 78.539995,24.89213 118.893255,26.7436 h 0.0193 c 11.08317,0 20.75202,-4.61584 30.15727,-10.11885 9.41167,-5.51585 18.59193,-11.91888 28.68507,-15.60899 l -0.1413,-0.38572 0.13488,0.38572 c 3.65796,-1.29218 7.39949,-2.19864 11.30174,-2.5715 1.2536,-0.11578 2.52651,-0.18001 3.81867,-0.18001 2.70009,0 5.47086,0.27002 8.34452,0.85502 l 0.0385,0.0135 h 0.0451 c 6.65376,0 12.67748,0 17.97477,0 15.8983,0 25.25212,0 25.25212,0 v -0.82287 c 0,0 -9.35382,0 -25.25212,0 -5.29729,0 -11.32101,0 -17.97477,0 v 0.41143 l 0.0837,-0.40502 c -2.92508,-0.59787 -5.76015,-0.87431 -8.51167,-0.87431 -1.31789,0 -2.61649,0.0644 -3.90225,0.18643 -3.97296,0.37288 -7.78521,1.30504 -11.48817,2.61009 l -0.007,0.007 c -10.22814,3.74153 -19.44053,10.18313 -28.81365,15.66685 -9.37955,5.49015 -18.90051,10.00956 -29.74581,10.00956 v 0.41143 l 0.0193,-0.41143 c -40.05109,-1.8001 -76.61139,-25.56075 -118.912525,-26.74365 l -0.0135,0.41145 0.0451,-0.40501 c -4.0244,-0.43073 -8.13238,-0.83575 -12.29176,-1.03504 -1.68434,-0.0837 -3.36867,-0.12203 -5.06587,-0.12203 -2.49435,0 -5.00156,0.0901 -7.52806,0.28288 l 0.0321,0.41143 v -0.41143 c -4.98872,0 -9.92599,0 -14.79257,0 -36.5345682,0 -69.411192,0 -93.152551,0 -11.873891,0 -21.46558,0 -28.080771,0 -6.621614,0 -10.266697,0 -10.27956,0 v 0.82287"
       style="clip-rule:evenodd;fill:#000000;fill-opacity:1;fill-rule:nonzero;stroke:none;stroke-width:1.64575934;image-rendering:optimizeQuality;shape-rendering:geometricPrecision;text-rendering:geometricPrecision"
       inkscape:connector-curvature="0" />
    <path
       id="path16978"
       d="m -92.91495,90.789801 c 0.01352,0 3.657947,0 10.27956,0 19.858404,0 66.434681,0 121.233325,0 4.86657,0 9.80385,0 14.79255,0 h 0.0193 c 2.02507,-0.0901 4.0437,-0.13488 6.04304,-0.13488 3.87653,0 7.70807,0.16074 11.50103,0.45645 5.74731,0.45643 11.39817,1.15716 16.90118,1.8579 h 0.0257 c 26.865735,1.71646 50.574965,12.651759 74.335605,23.619209 l 0.007,0.007 c 9.60455,4.1144 18.8748,5.84374 27.87505,5.84374 27.15503,-0.0135 51.77713,-15.69257 75.9235,-28.749349 l -0.19285,-0.36002 0.14131,0.38574 c 4.873,-1.80005 9.86813,-3.11795 15.06897,-3.69653 1.90293,-0.20573 3.82512,-0.315 5.7859,-0.315 3.41365,0 6.92375,0.33428 10.56243,1.07359 l 0.0385,0.0135 h 0.0385 c 7.95237,0 14.26539,0 18.58551,0 4.32655,0 6.66661,0 6.66661,0 v -0.82289 c 0,0 -2.34006,0 -6.66661,0 -4.32012,0 -10.63314,0 -18.58551,0 v 0.41145 l 0.0837,-0.40503 c -3.69008,-0.75215 -7.25803,-1.09287 -10.72314,-1.09287 -1.98649,0 -3.94725,0.10936 -5.87586,0.32142 -5.28445,0.58502 -10.34386,1.92221 -15.2683,3.74153 l -0.0514,0.0257 c -24.1785,13.088929 -48.70419,28.652919 -75.53134,28.646499 -8.89739,0 -18.04549,-1.71005 -27.55362,-5.77944 l -0.16058,0.37928 0.17359,-0.37286 C 138.8035,104.88297 114.99786,93.883371 87.932845,92.147621 l -0.0257,0.41143 0.0514,-0.40501 c -5.50301,-0.70073 -11.16673,-1.40789 -16.93975,-1.85791 -3.81223,-0.30213 -7.66307,-0.46286 -11.56531,-0.46286 -2.0122,0 -4.03726,0.045 -6.08159,0.13488 l 0.0193,0.41145 v -0.41145 c -4.98872,0 -9.92599,0 -14.79257,0 -36.5345522,0 -69.411175,0 -93.152534,0 -11.873891,0 -21.465597,0 -28.080771,0 -6.621614,0 -10.266714,0 -10.27956,0 v 0.82288"
       style="clip-rule:evenodd;fill:#000000;fill-opacity:1;fill-rule:nonzero;stroke:none;stroke-width:1.64575934;image-rendering:optimizeQuality;shape-rendering:geometricPrecision;text-rendering:geometricPrecision"
       inkscape:connector-curvature="0" />
    <path
       id="path16980"
       d="m -92.91495,112.66038 c 0.0068,0 1.04146,0 3.015087,0 13.821807,0 73.461299,0 143.290348,0 4.98227,0 10.02242,0.007 15.10114,0.0135 v -0.41145 l -0.0837,0.40501 c 6.00443,1.24076 11.9703,2.39795 17.91689,3.45226 h 0.0135 l 0.0135,0.007 c 39.196065,4.64156 78.938565,20.1027 118.700385,20.10914 11.27602,0 22.55203,-1.2472 33.8152,-4.33942 5.61874,-1.54933 11.21816,-3.54867 16.78546,-6.07516 5.5673,-2.53294 11.10246,-5.59302 16.60546,-9.26383 l -0.23143,-0.34073 0.21214,0.35359 c 5.71516,-3.42653 10.65886,-3.95369 15.85973,-3.95369 2.33364,0 4.71868,0.10294 7.22591,0.10294 0.7136,0 1.44646,-0.007 2.18577,-0.0257 l -0.0135,-0.41144 v 0.41144 c 7.92021,-0.0321 14.23323,-0.0321 18.55336,-0.0321 4.32655,0 6.66661,0 6.66661,0 v -0.82287 c 0,0 -2.34006,0 -6.66661,0 -4.32013,0 -10.63315,0 -18.55336,0.0321 h -0.0135 c -0.73288,0.0193 -1.4529,0.0257 -2.16006,0.0257 -2.48794,0 -4.86655,-0.10277 -7.2259,-0.10277 -5.24587,-0.007 -10.41458,0.54645 -16.28402,4.0694 l -0.0135,0.0135 c -5.46442,3.63868 -10.96099,6.67947 -16.48973,9.1931 -5.5287,2.51365 -11.08315,4.50014 -16.6633,6.03018 -11.1796,3.07294 -22.3849,4.3137 -33.59665,4.3137 -39.54963,0.007 -79.26644,-15.429 -118.603925,-20.10272 l -0.045,0.40503 0.0708,-0.40503 c -5.94019,-1.0543 -11.89962,-2.20504 -17.89764,-3.45222 l -0.0385,-0.007 h -0.0385 c -5.08512,-0.007 -10.12527,-0.0135 -15.10754,-0.0135 -39.903249,0 -76.47639,0 -103.078547,0 -13.301071,0 -24.107793,0 -31.584431,0 -3.741529,0 -6.653745,0 -8.627371,0 -1.973644,0 -3.008663,0 -3.015086,0 v 0.82289"
       style="clip-rule:evenodd;fill:#000000;fill-opacity:1;fill-rule:nonzero;stroke:none;stroke-width:1.64575934;image-rendering:optimizeQuality;shape-rendering:geometricPrecision;text-rendering:geometricPrecision"
       inkscape:connector-curvature="0" />
    <path
       id="path16982"
       d="m -92.91495,134.5374 c 0.0068,0 1.317887,0 3.799389,0 17.376917,0 91.9375008,0 172.946156,0 5.143,0 10.331,0.0257 15.75687,0.32144 l 0.0257,-0.41143 -0.12846,0.39214 c 31.378695,10.31814 63.516015,14.70898 95.582615,14.70898 7.86878,0 15.73115,-0.26359 23.5742,-0.77145 h 0.007 c 6.59589,-0.57216 13.18538,-1.32433 19.77482,-2.23719 19.76198,-2.73866 39.49823,-6.91735 59.22805,-11.93819 l -0.10277,-0.39858 0.007,0.41143 c 7.86234,-0.0772 14.17538,-0.0772 18.49549,-0.0772 4.32657,0 6.66661,0 6.66661,0 v -0.82289 c 0,0 -2.34004,0 -6.66661,0 -4.32011,0 -10.63957,0 -18.50835,0.0772 h -0.0451 l -0.0514,0.0135 c -19.7041,5.01442 -39.41464,9.18668 -59.13804,11.9189 -6.57661,0.91288 -13.15323,1.66503 -19.72983,2.23721 l 0.0385,0.41144 -0.0257,-0.41144 c -7.83021,0.50143 -15.6733,0.76501 -23.52279,0.76501 -31.98945,0 -64.04319,-4.37798 -95.325455,-14.67041 l -0.0514,-0.0135 -0.0514,-0.007 c -5.46442,-0.29573 -10.65886,-0.32144 -15.80186,-0.32144 -46.29341,0 -90.4781902,0 -123.091216,0 -16.30975,0 -29.726536,0 -39.061084,0 -4.667274,0 -8.318797,0 -10.800298,0 -2.481485,0 -3.792965,0 -3.799388,0 v 0.82288"
       style="clip-rule:evenodd;fill:#000000;fill-opacity:1;fill-rule:nonzero;stroke:none;stroke-width:1.64575934;image-rendering:optimizeQuality;shape-rendering:geometricPrecision;text-rendering:geometricPrecision"
       inkscape:connector-curvature="0" />
    <path
       id="path16984"
       d="m -92.91495,156.41444 c 0.0068,0 1.465752,0 4.22368,0 19.299109,0 101.863509,0 188.021575,0 5.181585,0 10.382425,0.007 15.679715,0.10936 l 0.007,-0.41144 -0.058,0.40502 c 29.93868,4.53226 58.89376,11.13458 89.41745,11.13458 8.42166,0 16.96547,-0.50145 25.67643,-1.69076 h 0.007 c 21.71631,-3.34294 40.32111,-9.7074 61.28525,-9.7074 2.01864,0 4.06297,0.0644 6.13303,0.18644 h 0.0257 c 5.26514,-0.0257 9.83598,-0.0257 13.57107,-0.0257 7.48308,0 11.64248,0 11.64248,0 v -0.82287 c 0,0 -4.1594,0 -11.64248,0 -3.73509,0 -8.31235,0 -13.57751,0.0257 l 0.007,0.41145 0.0257,-0.40501 c -2.08936,-0.12846 -4.14655,-0.19286 -6.18447,-0.19286 -21.13772,0.007 -39.78751,6.39017 -61.4074,9.71383 l 0.058,0.41143 -0.0514,-0.41143 c -8.67238,1.18289 -17.17762,1.68434 -25.56713,1.68434 -30.40153,0 -59.31162,-6.58305 -89.29529,-11.12174 l -0.0257,-0.007 h -0.0321 c -5.30369,-0.10294 -10.51098,-0.10936 -15.692545,-0.10936 -49.23135,0 -97.2926622,0 -133.049353,0 -35.750269,0 -59.195914,0 -59.195914,0 v 0.82289"
       style="clip-rule:evenodd;fill:#000000;fill-opacity:1;fill-rule:nonzero;stroke:none;stroke-width:1.64575934;image-rendering:optimizeQuality;shape-rendering:geometricPrecision;text-rendering:geometricPrecision"
       inkscape:connector-curvature="0" />
    <path
       id="path16986"
       d="m -92.91495,178.28503 c 0.0068,0 1.131467,0 3.265804,0 6.415891,0 21.915596,0 43.336181,0 5.715157,0 11.841759,0.007 18.296223,0.0135 v -0.41143 l -0.0068,0.41143 c 4.320109,0.0708 8.685214,0.13488 13.076061,0.18644 4.39083,0.0514 8.8073698,0.0901 13.2303488,0.10936 8.023085,0.058 16.1040272,0.0965 24.1913872,0.0965 13.64822,0 27.33503,-0.10294 40.88683,-0.3986 l -0.0135,-0.41143 v 0.41143 c 4.23654,0 8.49879,0 12.7932,-0.007 12.78036,0 25.772855,0 38.758925,0 5.19443,0 10.38885,0 15.60255,0.0193 v -0.41177 l -0.045,0.41145 c 23.80564,2.71292 47.43773,3.80581 70.94123,3.80581 27.86218,0 55.54437,-1.53005 83.12369,-3.70296 l -0.0321,-0.41143 0.007,0.41143 c 7.78523,-0.11578 14.67684,-0.12204 20.35984,-0.12204 11.35959,0 17.85905,0 17.85905,0 v -0.82289 c 0,0 -6.49946,0 -17.85905,0 -5.683,0 -12.58105,0.007 -20.37271,0.12204 h -0.0257 c -27.56645,2.17291 -55.22936,3.70296 -83.05941,3.70296 -23.47779,0 -47.07771,-1.08647 -70.8448,-3.79941 l -0.0255,-0.007 h -0.0193 c -5.2137,-0.0193 -10.41454,-0.0193 -15.60898,-0.0193 -12.98607,0 -25.978575,0 -38.758925,0 -4.2944,0.007 -8.55665,0.007 -12.79319,0.007 h -0.007 c -13.53895,0.29571 -27.22575,0.39858 -40.86755,0.39858 -8.087362,0 -16.1618642,-0.0385 -24.1849492,-0.0965 -4.422979,-0.0193 -8.8330958,-0.058 -13.2239428,-0.10936 -4.39083,-0.0514 -8.749529,-0.11578 -13.076061,-0.18643 h -0.0068 c -6.454447,-0.007 -12.581049,-0.0135 -18.296223,-0.0135 -14.278249,0 -25.927131,0 -34.008074,0 -4.043665,0 -7.18733,0 -9.328107,0 -2.134337,0 -3.259381,0 -3.265787,0 v 0.8229"
       style="clip-rule:evenodd;fill:#000000;fill-opacity:1;fill-rule:nonzero;stroke:none;stroke-width:1.64575934;image-rendering:optimizeQuality;shape-rendering:geometricPrecision;text-rendering:geometricPrecision"
       inkscape:connector-curvature="0" />
    <path
       id="path16988"
       d="m -92.91495,200.16207 c 0.0068,0 1.04146,0 3.015087,0 1.973626,0 4.885842,0 8.627371,0 3.735108,0 8.312375,0 13.609663,0 v -0.41145 l -0.0068,0.41145 c 6.37732,0.0644 12.722491,0.0965 19.048376,0.0965 h 0.02569 c 17.447606,-1.00939 34.625208,-1.35012 51.6871108,-1.35012 33.6159172,0 66.7561172,1.30504 100.5005922,1.30504 3.76081,0 7.53449,-0.0135 11.31459,-0.0514 h -0.007 c 6.49304,0 12.98606,0 19.45981,0 6.46732,0 12.90893,0 19.33124,0.0193 v -0.41145 0.41145 c 19.27981,0.25714 39.15751,0.37928 59.09306,0.37928 19.27979,0 38.61105,-0.11562 57.53729,-0.34715 7.92663,-0.0514 15.19111,-0.0514 21.607,-0.0514 19.24125,0 30.78727,0 30.78727,0 v -0.82288 c 0,0 -11.54602,0 -30.78727,0 -6.41589,0 -13.68679,0 -21.61344,0.0514 -18.92624,0.23143 -38.25747,0.34713 -57.53085,0.34713 -19.93555,0 -39.80039,-0.12204 -59.08664,-0.37928 -6.42873,-0.0193 -12.87034,-0.0193 -19.33766,-0.0193 -6.47375,0 -12.96677,0 -19.45981,0 -3.78012,0.0385 -7.54735,0.0514 -11.30817,0.0514 -33.718775,0 -66.865385,-1.30504 -100.5005902,-1.30504 -17.0683428,0 -34.2716538,0.34073 -51.7321388,1.35004 l 0.01927,0.41144 v -0.41144 c -6.325886,0 -12.671057,-0.0321 -19.035531,-0.0965 h -0.0068 c -5.297288,0 -9.874555,0 -13.609646,0 -3.741546,0 -6.653762,0 -8.627388,0 -1.973627,0 -3.008663,0 -3.015086,0 v 0.8229"
       style="clip-rule:evenodd;fill:#000000;fill-opacity:1;fill-rule:nonzero;stroke:none;stroke-width:1.64575934;image-rendering:optimizeQuality;shape-rendering:geometricPrecision;text-rendering:geometricPrecision"
       inkscape:connector-curvature="0" />
    <path
       id="path16990"
       d="m -92.91495,222.03909 c 0.0068,0 1.626479,0 4.654411,0 3.027949,0.007 7.463774,0.007 13.08894,0.0193 h 0.01352 c 5.663722,-0.12846 11.314581,-0.29571 16.926885,-0.59144 h 0.02569 l 0.02569,-0.007 c 23.284919,-4.26867 46.396263,-5.74727 69.449767,-5.74727 39.70395,0 79.23432,4.37154 119.182517,6.32588 h 0.0257 c 5.17514,0 10.35029,0 15.49329,0 9.25738,0 18.43122,0 27.44431,0 4.50655,0 8.97454,0 13.39108,0 v -0.41144 l -0.007,0.41144 c 9.71383,0.28929 20.04482,0.43072 30.45298,0.43072 10.42742,0 20.91913,-0.14131 30.93513,-0.43072 l -0.0135,-0.41144 v 0.41144 c 7.3802,0 14.36183,0 20.88701,0 32.61303,0 53.65432,0 53.65432,0 v -0.82289 c 0,0 -21.04129,0 -53.65432,0 -6.52518,0 -13.50681,0 -20.88701,0 h -0.007 c -10.00955,0.28931 -20.49484,0.43072 -30.91584,0.43072 -10.39528,0 -20.72629,-0.14131 -30.43369,-0.43072 h -0.0135 c -4.41654,0 -8.88454,0 -13.39108,0 -9.01311,0 -18.18693,0 -27.44434,0 -5.14298,0 -10.31813,0 -15.49326,0 v 0.41145 l 0.0193,-0.41145 c -39.916087,-1.94791 -79.465747,-6.32588 -119.227533,-6.32588 -23.085652,0 -46.248431,1.47859 -69.597631,5.76017 l 0.07725,0.405 -0.02569,-0.41144 c -5.599423,0.29573 -11.243876,0.46286 -16.901175,0.59144 l 0.0068,0.41143 v -0.41143 c -11.243876,-0.0193 -17.736928,-0.0193 -17.743334,-0.0193 v 0.82287"
       style="clip-rule:evenodd;fill:#000000;fill-opacity:1;fill-rule:nonzero;stroke:none;stroke-width:1.64575934;image-rendering:optimizeQuality;shape-rendering:geometricPrecision;text-rendering:geometricPrecision"
       inkscape:connector-curvature="0" />
    <path
       id="path16992"
       d="m -92.91495,243.9161 c 0.0068,0 1.04146,0 3.002224,0 1.960763,0 4.84727,0.007 8.530942,0.0135 h 0.03211 c 6.473766,-0.48858 12.941076,-1.08647 19.331259,-2.02506 l 0.03854,-0.007 0.03212,-0.0135 c 27.122879,-9.26364 55.0043668,-13.05017 83.239426,-13.05017 36.013839,0 72.586989,6.16518 108.825819,14.97256 l 0.045,0.0135 h 0.0451 c 5.43229,0.0772 10.62028,0.0901 15.76328,0.0965 92.5804,0 176.74553,0 176.74553,0 v -0.82287 c 0,0 -84.16513,0 -176.74553,0 -5.143,-0.007 -10.33099,-0.0193 -15.75044,-0.0965 l -0.007,0.41145 0.0965,-0.40501 c -36.277415,-8.81381 -72.914855,-14.99183 -109.0187,-14.99183 -28.3057802,0 -56.283681,3.79297 -83.50299,13.09535 l 0.134884,0.38574 -0.0644,-0.40503 c -6.358034,0.93861 -12.806075,1.53648 -19.266962,2.01864 l 0.03211,0.41145 v -0.41145 c -7.380206,-0.0135 -11.533182,-0.0135 -11.539605,-0.0135 v 0.82287"
       style="clip-rule:evenodd;fill:#000000;fill-opacity:1;fill-rule:nonzero;stroke:none;stroke-width:1.64575934;image-rendering:optimizeQuality;shape-rendering:geometricPrecision;text-rendering:geometricPrecision"
       inkscape:connector-curvature="0" />
    <path
       id="path16994"
       d="m -92.91495,265.78672 c 0.0068,0 1.04146,0 3.002224,0.007 1.95434,0 4.827984,0.007 8.505233,0.0193 v -0.41144 l -0.05138,0.40502 c 2.661498,0.34072 5.284425,0.5143 7.868796,0.5143 2.886491,0 5.728003,-0.21859 8.51808,-0.64932 h 0.02569 c 21.163464,-4.73843 37.608182,-19.35741 59.4144858,-24.79612 l -0.102938,-0.39858 0.09651,0.39858 c 8.170932,-1.88362 16.1232962,-2.68721 23.9277952,-2.68721 37.402433,-0.007 71.455523,18.41835 109.487984,23.86992 l 0.058,-0.41143 -0.0708,0.41143 c 6.28731,1.08003 12.26608,2.32079 18.1098,3.7094 l 0.045,0.0135 h 0.0514 c 5.143,0.007 10.26029,0.007 15.33899,0.007 86.33166,0 161.40655,0 161.40655,0 v -0.82289 c 0,0 -75.07489,0 -161.40655,0 -5.0787,0 -10.19599,0 -15.33899,-0.007 v 0.41145 l 0.0901,-0.39859 c -5.85658,-1.39503 -11.85462,-2.64221 -18.15478,-3.72866 h -0.0135 C 90.053145,255.84222 55.967925,237.37886 18.289047,237.36602 c -7.862357,0 -15.8790192,0.81001 -24.1142322,2.70649 v 0.007 h -0.0068 c -22.0505988,5.5223 -38.5017568,20.14127 -59.3951808,24.78924 l 0.09009,0.3986 -0.0644,-0.405 c -2.745082,0.42429 -5.541583,0.63643 -8.389518,0.63643 -2.545783,0 -5.136577,-0.17357 -7.765927,-0.50787 h -0.05138 c -7.348058,-0.0257 -11.501033,-0.0257 -11.507456,-0.0257 v 0.82289"
       style="clip-rule:evenodd;fill:#000000;fill-opacity:1;fill-rule:nonzero;stroke:none;stroke-width:1.64575934;image-rendering:optimizeQuality;shape-rendering:geometricPrecision;text-rendering:geometricPrecision"
       inkscape:connector-curvature="0" />
    <path
       id="path16996"
       d="m -92.91495,287.66375 c 0.0068,0 1.04146,0 3.008647,0 1.973626,0 4.872996,0 8.588799,0.007 v -0.41145 l -0.01927,0.41145 c 3.818692,0.18001 7.714509,0.43073 11.578179,0.52714 l 0.0068,-0.41143 -0.05798,0.40503 c 1.690759,0.25714 3.317238,0.37285 4.892282,0.37285 11.308158,0 19.7041,-6.19088 27.791482,-13.15322 8.093772,-6.96875 15.911134,-14.72827 26.042847,-18.09692 l 0.01352,-0.007 0.0068,-0.007 c 7.2516118,-2.89938 14.8054098,-4.06297 22.423455,-4.06297 11.423899,0 23.008499,2.62292 33.956659,5.908 l 0.11561,-0.39859 -0.12846,0.39216 c 27.38648,9.12883 52.99861,20.10912 82.60298,23.9471 l 0.0514,-0.41144 -0.0837,0.405 c 6.21659,1.33717 12.11174,2.7965 17.95548,4.34582 l 0.0385,0.007 0.0451,0.007 c 5.19443,0.20572 10.31813,0.21215 15.39683,0.22501 86.33167,0 161.40656,0 161.40656,0 v -0.82287 c 0,0 -75.07488,0 -161.40656,0 -5.0787,-0.0135 -10.18955,-0.0193 -15.36468,-0.22501 l -0.0135,0.41143 0.10294,-0.39859 c -5.85014,-1.54933 -11.75817,-3.01508 -17.98761,-4.35225 l -0.0193,-0.007 h -0.0135 C 98.552965,278.45135 72.998695,267.5032 45.560805,258.35509 h -0.007 c -10.98671,-3.29794 -22.64205,-5.94017 -34.194509,-5.94017 -7.7016292,0 -15.3582802,1.17647 -22.725625,4.12727 l 0.154153,0.3793 -0.134884,-0.39216 c -10.369568,3.4651 -18.251227,11.32102 -26.31929,18.25765 -8.068063,6.94946 -16.271162,12.96034 -27.251458,12.9539 -1.530049,0 -3.117939,-0.11561 -4.770127,-0.36643 h -0.05138 c -3.83796,-0.0965 -7.733794,-0.34715 -11.558892,-0.52716 h -0.01352 c -7.444503,-0.007 -11.603885,-0.007 -11.603885,-0.007 v 0.82289"
       style="clip-rule:evenodd;fill:#000000;fill-opacity:1;fill-rule:nonzero;stroke:none;stroke-width:1.64575934;image-rendering:optimizeQuality;shape-rendering:geometricPrecision;text-rendering:geometricPrecision"
       inkscape:connector-curvature="0" />
    <path
       id="path16998"
       d="m -92.91495,309.54075 c 0.0068,0 1.04146,0 3.015087,0 1.973626,0 4.885842,0 8.627371,0 3.735108,0 8.312375,0 13.564651,-0.0135 h 0.05138 l 0.05138,-0.0135 c 2.931502,-0.77788 6.18446,-0.92573 9.508121,-0.92573 2.082903,0 4.191531,0.058 6.27445,0.058 3.310817,0 6.550912,-0.1479 9.49526,-0.94503 2.950805,-0.79074 5.605881,-2.25007 7.67592,-4.84085 l -0.321422,-0.25716 0.315016,0.27001 c 15.90471,-18.43763 33.95663776,-24.62209 53.088581,-24.62853 35.6024,-0.0135 74.87561,21.56845 109.950855,25.895 l 0.0514,-0.41145 -0.10936,0.39858 c 5.83086,1.51721 11.65532,3.23367 17.49262,5.13658 l 0.0514,0.0193 h 0.058 c 5.18157,0.22501 10.30527,0.23787 15.37755,0.25714 86.33809,0 161.41299,0 161.41299,0 v -0.82287 c 0,0 -75.0749,0 -161.40657,0 -5.0787,-0.0193 -10.18955,-0.0321 -15.3454,-0.25716 l -0.0193,0.41144 0.12846,-0.39214 c -5.85658,-1.90933 -11.69389,-3.62581 -17.53763,-5.14942 l -0.0257,-0.007 -0.0321,-0.007 C 93.634255,299.0532 54.348185,277.43332 18.430766,277.42047 c -19.31195624,-0.007 -37.672459,6.29374 -53.712189,24.91782 h -0.0068 l -0.0068,0.007 c -1.947917,2.43649 -4.416556,3.79937 -7.245205,4.55796 -2.82221,0.76503 -5.998007,0.91934 -9.283097,0.91934 -2.070057,0 -4.178685,-0.058 -6.27445,-0.058 -3.349388,0 -6.66661,0.14773 -9.720268,0.95145 l 0.109361,0.39859 v -0.41145 c -5.252277,0.0135 -9.829544,0.0135 -13.564651,0.0135 -3.741529,0 -6.653745,0 -8.627389,0 -1.973626,0 -3.008646,0 -3.015069,0 v 0.82289"
       style="clip-rule:evenodd;fill:#000000;fill-opacity:1;fill-rule:nonzero;stroke:none;stroke-width:1.64575934;image-rendering:optimizeQuality;shape-rendering:geometricPrecision;text-rendering:geometricPrecision"
       inkscape:connector-curvature="0" />
    <path
       id="path17000"
       d="m -92.91495,331.41137 c 0,0 9.353816,0 25.252121,0 5.297288,0 11.327443,0 17.968345,-0.0708 h 0.03212 l 0.03212,-0.007 c 1.240742,-0.19928 2.475062,-0.26356 3.696518,-0.26356 2.179349,0 4.294418,0.20572 6.248758,0.20572 1.78719,0 3.452224,-0.17359 4.898689,-0.89361 l 0.03854,-0.0193 0.03211,-0.0257 c 19.260521,-15.40326 39.4596488,-20.36627 60.095934,-20.37269 28.12578,0 57.03583,9.26381 85.213045,13.95039 l 0.0708,-0.40501 -0.0772,0.40501 c 6.05588,1.11216 11.9189,2.27576 17.79477,3.54223 h 0.007 c 5.81159,1.18288 11.64246,2.46864 17.48619,3.83154 l 0.045,0.0135 h 0.0451 c 5.143,0.0837 10.26669,0.0965 15.33897,0.10936 86.3381,0 161.413,0 161.413,0 v -0.82288 c 0,0 -75.0749,0 -161.40657,0 -5.07871,-0.0135 -10.196,-0.0257 -15.33256,-0.10936 l -0.007,0.41143 0.0901,-0.405 c -5.85016,-1.3629 -11.68745,-2.64866 -17.50548,-3.83796 l -0.0837,0.405 0.0837,-0.405 c -5.88231,-1.26005 -11.75817,-2.42365 -17.82048,-3.54225 h -0.007 c -28.093615,-4.6737 -57.042265,-13.95681 -85.348045,-13.96323 -20.7648322,0 -41.195408,5.02086 -60.610217,20.55271 l 0.257157,0.32142 -0.180013,-0.36645 c -1.260029,0.63003 -2.790078,0.81003 -4.532256,0.80362 -1.896499,0.007 -4.017973,-0.20572 -6.248758,-0.20572 -1.247165,0 -2.532919,0.0644 -3.83152,0.27643 l 0.07082,0.40502 -0.0068,-0.41144 c -6.640902,0.0708 -12.664617,0.0708 -17.961905,0.0708 -7.952364,0 -14.258963,0 -18.585512,0 -4.326549,0 -6.660186,0 -6.666609,0 v 0.82287"
       style="clip-rule:evenodd;fill:#000000;fill-opacity:1;fill-rule:nonzero;stroke:none;stroke-width:1.64575934;image-rendering:optimizeQuality;shape-rendering:geometricPrecision;text-rendering:geometricPrecision"
       inkscape:connector-curvature="0" />
    <path
       id="path17002"
       d="m -92.91495,353.2884 c 0.0068,0 1.04146,0 3.015087,0 5.920878,0 20.263407,0 40.211802,0 6.653763,0 13.924678,0 21.716331,-0.0135 h 0.05781 l 0.04513,-0.0135 c 5.740866,-1.48503 11.501017,-2.72578 17.267592,-3.81867 l -0.07725,-0.40502 0.0644,0.40502 c 18.6176608,-2.85438 37.460313,-4.62869 56.347963,-4.62869 10.20886,0 20.43056,0.52071 30.63942,1.65861 h 0.007 l 0.0135,0.007 c 5.86944,0.37285 11.68103,0.81643 17.47335,1.2986 5.74086,0.48215 11.462435,1.00931 17.151865,1.54289 h 0.007 c 5.78588,0.49501 11.58461,1.06717 17.40263,1.72933 5.81159,0.65574 11.63602,1.39505 17.4862,2.21792 l 0.0257,0.007 h 0.0321 c 5.143,0.007 10.2603,0.007 15.339,0.0135 86.33165,0 161.40655,0 161.40655,0 v -0.82288 c 0,0 -75.0749,0 -161.40655,0 -5.0787,-0.007 -10.196,-0.007 -15.339,-0.0135 v 0.41143 l 0.058,-0.41143 c -5.8566,-0.82289 -11.69389,-1.5622 -17.51192,-2.2179 -5.82445,-0.66218 -11.6296,-1.23432 -17.4219,-1.72933 -5.68944,-0.53361 -11.411015,-1.06077 -17.158325,-1.54934 -5.79872,-0.48217 -11.61031,-0.92574 -17.49262,-1.2986 l -0.0257,0.41143 0.0451,-0.41143 c -10.241,-1.14435 -20.49486,-1.66505 -30.72942,-1.66505 -18.93909,0 -37.8267342,1.78075 -56.476527,4.64155 h -0.01352 c -5.773015,1.09931 -11.558875,2.34007 -17.319044,3.83153 l 0.102769,0.39857 v -0.41143 c -7.791653,0.0135 -15.062568,0.0135 -21.716314,0.0135 -13.301071,0 -24.107793,0 -31.584431,0 -3.741529,0 -6.653745,0 -8.627372,0 -1.973643,0 -3.008663,0 -3.015086,0 v 0.82288"
       style="clip-rule:evenodd;fill:#000000;fill-opacity:1;fill-rule:nonzero;stroke:none;stroke-width:1.64575934;image-rendering:optimizeQuality;shape-rendering:geometricPrecision;text-rendering:geometricPrecision"
       inkscape:connector-curvature="0" />
    <path
       id="path17004"
       d="m -92.91495,375.16541 c 0.0068,0 1.967187,0 5.62515,0 10.980295,0 37.203173,0 71.38482,0 4.146536,-0.0135 8.4087868,-0.0193 12.7674858,-0.045 h 0.0068 c 11.231013,-0.21216 22.3913062,-0.36645 33.5130592,-0.47572 10.74243,-0.10277 21.46558,-0.1479 32.17587,-0.1479 0.3793,0 0.7586,0 1.13788,0 11.09603,0 22.17919,0.058 33.29449,0.16074 11.121735,0.11562 22.269175,0.27001 33.474485,0.48859 h 0.007 c 5.18157,0.007 10.35672,0.0135 15.49972,0.0193 92.5804,0 176.74555,0 176.74555,0 v -0.82287 c 0,0 -84.16515,0 -176.74555,0 -5.143,-0.007 -10.31815,-0.0135 -15.49328,-0.0193 v 0.41143 l 0.007,-0.41143 c -11.21173,-0.2186 -22.35919,-0.37289 -33.480905,-0.48859 -11.12176,-0.10294 -22.21135,-0.16074 -33.30736,-0.16074 -0.37928,0 -0.75857,0 -1.13787,0 -10.71673,0 -21.43345,0.0451 -32.18231,0.14789 -11.12818,0.10936 -22.2884892,0.26357 -33.5195032,0.47573 l 0.0068,0.41143 v -0.4114 c -4.365121,0.0257 -8.6273898,0.0321 -12.7674848,0.045 -22.789923,0 -42.037582,0 -55.59581,0 -6.775902,0 -12.131048,0 -15.789011,0 -3.657963,0 -5.618726,0 -5.625149,0 v 0.82288"
       style="clip-rule:evenodd;fill:#000000;fill-opacity:1;fill-rule:nonzero;stroke:none;stroke-width:1.64575934;image-rendering:optimizeQuality;shape-rendering:geometricPrecision;text-rendering:geometricPrecision"
       inkscape:connector-curvature="0" />
    <path
       id="path17006"
       d="m -93.326395,374.75398 h 0.822891 V -40.877389 h -0.822891 z m 0,0"
       style="clip-rule:evenodd;fill:#000000;fill-opacity:1;fill-rule:nonzero;stroke:none;stroke-width:1.64575934;image-rendering:optimizeQuality;shape-rendering:geometricPrecision;text-rendering:geometricPrecision"
       inkscape:connector-curvature="0" />
    <path
       id="path17008"
       d="m -70.62648,374.75398 c 0,0 0,-16.63117 0,-43.22689 0,-6.65376 0,-13.92468 -0.01352,-21.71632 v -0.007 c -0.154153,-10.92863 -0.263564,-21.66464 -0.314999,-32.33637 -0.02569,-5.503 -0.03854,-10.98028 -0.03854,-16.45116 0,-5.14942 0.01352,-10.29242 0.03212,-15.44827 0.05138,-10.64601 0.147898,-21.34344 0.289306,-32.20802 v -0.007 c 0.04513,-5.08514 0.04513,-10.20244 0.04513,-15.34542 0,-56.57941 0,-116.302459 0,-161.875848 0,-22.789906 0,-42.0375806 0,-55.595808 0,-6.775903 0,-12.131032 0,-15.788995 0,-3.657963 0,-5.618727 0,-5.625167 h -0.822874 c 0,0.0068 0,1.967204 0,5.625167 0,25.6121324 0,134.245082 0,233.260651 0,5.14298 0,10.26028 -0.04513,15.33899 -0.141306,10.86458 -0.237854,21.56844 -0.289289,32.21445 -0.01927,5.15586 -0.03212,10.30528 -0.03212,15.45471 0,5.47086 0.01352,10.95459 0.03854,16.4576 0.05138,10.6717 0.160575,21.41416 0.314998,32.34302 l 0.411429,-0.007 h -0.411429 c 0.01352,7.79163 0.01352,15.06255 0.01352,21.71629 0,26.59574 0,43.22689 0,43.22689 h 0.822874"
       style="clip-rule:evenodd;fill:#000000;fill-opacity:1;fill-rule:nonzero;stroke:none;stroke-width:1.64575934;image-rendering:optimizeQuality;shape-rendering:geometricPrecision;text-rendering:geometricPrecision"
       inkscape:connector-curvature="0" />
    <path
       id="path17010"
       d="m -48.749454,374.75398 c 0,0 0,-9.35384 0,-25.25212 0,-5.29729 0,-11.32746 -0.0068,-18.01336 v -0.0257 c -1.465768,-24.78923 -1.980067,-48.94845 -1.980067,-73.22984 0,-12.9475 0.147899,-25.92713 0.372874,-39.05464 l -0.411429,-0.007 0.411429,0.0135 c 0.507876,-12.09888 1.0479,-24.44852 1.613633,-36.65671 v -0.0193 c 0,-5.18155 0,-10.37597 0,-15.57041 0,-51.95714 0,-103.907829 0,-142.872464 0,-19.4855466 0,-35.718119 0,-47.084151 0,-5.683008 0,-10.144559 0,-13.185371 0,-3.047218 0,-4.667257 0,-4.67368 h -0.822891 c 0,0 0,103.907837 0,207.815666 0,5.19444 0,10.38886 0,15.57041 h 0.411446 l -0.411446,-0.0193 c -0.565733,12.20818 -1.099318,24.55781 -1.613616,36.66314 v 0.0135 c -0.225009,13.12749 -0.372874,26.11358 -0.372874,39.0675 0,24.29423 0.514299,48.47276 1.980067,73.27487 l 0.411429,-0.0193 h -0.411429 c 0.0068,6.68589 0.0068,12.71605 0.0068,18.01334 0,15.8983 0,25.25212 0,25.25212 h 0.822874"
       style="clip-rule:evenodd;fill:#000000;fill-opacity:1;fill-rule:nonzero;stroke:none;stroke-width:1.64575934;image-rendering:optimizeQuality;shape-rendering:geometricPrecision;text-rendering:geometricPrecision"
       inkscape:connector-curvature="0" />
    <path
       id="path17012"
       d="m -26.878853,374.75398 c 0,0 0,-2.34006 0,-6.66663 0,-4.32653 0,-10.63955 -0.01352,-18.64979 v -0.0385 l -0.0068,-0.0385 c -5.258733,-27.94577 -8.158103,-57.22871 -8.158103,-86.40236 0,-23.48422 1.877179,-46.90415 5.927302,-69.5012 v -0.0135 l 0.0068,-0.0135 c 0.707141,-5.728 1.433602,-11.61674 2.198618,-17.53117 v -0.045 c 0.04513,-4.46155 0.04513,-8.91666 0.04513,-13.37179 0,-51.19855 0,-102.037059 0,-140.082387 0,-19.0162436 0,-34.837387 0,-45.901267 0,-5.535143 0,-9.874555 0,-12.838206 0,-2.957212 0,-4.532256 0,-4.538696 h -0.822891 c 0,0.0068 0,1.581484 0,4.538696 0,20.726272 0,109.224411 0,198.82186 0,4.45513 0,8.91024 -0.04513,13.35893 l 0.411445,0.007 -0.405006,-0.0514 c -0.765016,5.91445 -1.491477,11.80317 -2.198635,17.53119 l 0.405023,0.0514 -0.405023,-0.0708 c -4.056529,22.65492 -5.940148,46.11984 -5.940148,69.64906 0,29.23151 2.905776,58.55946 8.170932,86.55665 l 0.405023,-0.0772 h -0.411446 c 0.01352,8.01022 0.01352,14.32324 0.01352,18.64979 0,4.32655 0,6.66661 0,6.66661 h 0.822874"
       style="clip-rule:evenodd;fill:#000000;fill-opacity:1;fill-rule:nonzero;stroke:none;stroke-width:1.64575934;image-rendering:optimizeQuality;shape-rendering:geometricPrecision;text-rendering:geometricPrecision"
       inkscape:connector-curvature="0" />
    <path
       id="path17014"
       d="m -5.0082682,374.68327 c -0.93859,-5.86302 -1.85147,-11.68748 -2.725779,-17.48619 v -0.0135 C -13.8285,324.02408 -19.492222,290.19602 -19.492222,256.64439 c 0,-23.58709 2.7965,-47.03273 10.2024168,-70.02194 l 0.0068,-0.0135 0.0068,-0.0193 c 1.30504,-5.47728 2.680801,-11.19244 4.223696,-16.93975 l 0.01352,-0.0514 v -0.0514 c 0.03854,-4.77011 0.03854,-9.54026 0.03854,-14.2911 0,-99.870569 0,-196.134639 0,-196.134639 h -0.822874 c 0,0.0068 0,1.504323 0,4.332973 0,19.787682 0,104.409287 0,191.801666 0,4.75084 0,9.51455 -0.03854,14.27825 l 0.411428,0.007 -0.398582,-0.10936 c -1.549319,5.76659 -2.918657,11.48817 -4.2301028,16.97188 l 0.3985818,0.0901 -0.3921588,-0.12204 c -7.438065,23.08562 -10.240989,46.62127 -10.240989,70.27264 0,33.64164 5.670145,67.52112 11.7710208,100.68705 l 0.405022,-0.0773 -0.405022,0.0644 c 0.874309,5.80517 1.78719,11.62962 2.725796,17.49264 l 0.810028,-0.12863"
       style="clip-rule:evenodd;fill:#000000;fill-opacity:1;fill-rule:nonzero;stroke:none;stroke-width:1.64575934;image-rendering:optimizeQuality;shape-rendering:geometricPrecision;text-rendering:geometricPrecision"
       inkscape:connector-curvature="0" />
    <path
       id="path17016"
       d="m 16.875197,374.31682 c 0.05138,-1.27931 0.07082,-2.5522 0.07082,-3.82511 0,-3.78653 -0.212129,-7.52163 -0.617151,-11.21173 v -0.0135 c -4.776548,-35.12029 -27.868606,-66.99401 -27.85576,-103.94003 0,-3.66438 0.231449,-7.37376 0.720021,-11.141 1.7550578,-13.18537 8.6466758,-24.28783 15.1461338,-35.62813 6.4930362,-11.32745 12.5939122,-22.91206 12.5939122,-37.06173 0,-0.86789 -0.02569,-1.7422 -0.07082,-2.62937 l -0.411446,0.0193 0.411446,0.007 c 0.01352,-4.55156 0.01352,-9.09669 0.01352,-13.63539 0,-99.870569 0,-196.134637 0,-196.134637 h -0.822891 c 0,0.0068 0,1.504323 0,4.332972 0,19.787683 0,104.409296 0,191.801665 0,4.5387 0,9.08383 -0.01352,13.62895 v 0.0257 c 0.04513,0.86787 0.07082,1.72933 0.07082,2.58436 0,13.89893 -5.991583,25.33569 -12.4846192,36.65671 -6.480172,11.32102 -13.455374,22.51346 -15.2489868,35.92384 -0.495012,3.80581 -0.726444,7.55376 -0.726444,11.2503 0.01927,37.29316 23.162779,69.21191 27.862185,104.04926 l 0.411445,-0.0514 -0.411445,0.0385 c 0.398583,3.6708 0.610728,7.37376 0.610728,11.12816 0,1.26004 -0.01927,2.52007 -0.07082,3.79296 l 0.822874,0.0321"
       style="clip-rule:evenodd;fill:#000000;fill-opacity:1;fill-rule:nonzero;stroke:none;stroke-width:1.64575934;image-rendering:optimizeQuality;shape-rendering:geometricPrecision;text-rendering:geometricPrecision"
       inkscape:connector-curvature="0" />
    <path
       id="path17018"
       d="m 38.694365,373.26894 c -0.0257,-6.31946 -0.65574,-12.50392 -1.87076,-18.66266 l -0.007,-0.0321 -0.0135,-0.0321 C 24.415115,321.52401 8.0089548,287.54166 8.0153778,254.09288 c 0,-21.202 6.5637572,-42.18543 24.9306872,-62.68029 l -0.30214,-0.27644 0.22501,0.34072 c 4.38441,-2.93792 6.4416,-9.1031 6.4416,-16.10399 0,-2.12791 -0.18644,-4.33299 -0.56573,-6.55733 l -0.40503,0.0708 h 0.41145 c 0,-4.54514 0,-9.09025 0,-13.62895 0,-99.870569 0,-196.13464 0,-196.13464 h -0.82289 c 0,0.0068 0,1.504323 0,4.332973 0,19.787682 0,104.409288 0,191.801667 0,4.5387 0,9.08381 0,13.62895 v 0.0708 c 0.37289,2.17933 0.55933,4.3394 0.55933,6.41589 0.007,6.85947 -2.04435,12.7482 -6.07519,15.42255 l -0.045,0.0257 -0.0321,0.0385 c -18.495442,20.62972 -25.1492062,41.86387 -25.1427832,63.23304 0.0068,33.71876 16.4768832,67.76542 28.8393632,100.73846 l 0.38574,-0.14131 -0.40502,0.0772 c 1.20861,6.10732 1.83218,12.23392 1.85791,18.50837 l 0.82287,-0.007"
       style="clip-rule:evenodd;fill:#000000;fill-opacity:1;fill-rule:nonzero;stroke:none;stroke-width:1.64575934;image-rendering:optimizeQuality;shape-rendering:geometricPrecision;text-rendering:geometricPrecision"
       inkscape:connector-curvature="0" />
    <path
       id="path17020"
       d="m 60.539255,372.67106 c -1.29219,-6.46733 -2.59079,-12.90249 -4.06941,-19.30554 l -0.007,-0.0321 -0.0135,-0.0257 c -11.83527,-30.86438 -22.10198,-63.44527 -22.10198,-95.17113 0,-26.15215 6.96234,-51.71927 25.77286,-75.34491 l 0.0837,-0.0965 0.007,-0.12846 c 0.33428,-5.22014 0.41144,-10.42744 0.41144,-15.62828 0,-21.64561 0,-43.29119 0,-64.00462 0,-4.140099 0,-8.241639 0,-12.304609 -0.0772,-10.96743 -0.11561,-21.92846 -0.11561,-32.9859 0,-11.06388 0.0385,-22.21775 0.11561,-33.570919 v -0.0068 c 0,-6.493053 0,-12.626078 0,-18.3412166 0,-14.278249 0,-25.9271484 0,-34.0080914 0,-4.043682 0,-7.18733 0,-9.328091 0,-2.134354 0,-3.25938 0,-3.26582 h -0.82289 c 0,0.0068 0,1.131466 0,3.26582 0,6.415875 0,21.91558 0,43.3361824 0,5.7151386 0,11.8481636 0,18.3412166 -0.0772,11.353152 -0.11561,22.513449 -0.11561,33.577319 0,11.06388 0.0385,22.02489 0.11561,32.99236 v -0.007 c 0,4.06297 0,8.16451 0,12.304599 0,20.71342 0,42.35902 0,64.00461 0,5.19444 -0.0772,10.38243 -0.41143,15.57043 l 0.41143,0.0321 -0.32144,-0.25714 c -18.93911,23.77347 -25.95929,49.55918 -25.95287,75.85276 0,31.90587 10.31171,64.57033 22.15989,95.46689 l 0.37931,-0.14773 -0.3986,0.0901 c 1.47862,6.39017 2.77724,12.82533 4.06297,19.29265 l 0.81003,-0.16716"
       style="clip-rule:evenodd;fill:#000000;fill-opacity:1;fill-rule:nonzero;stroke:none;stroke-width:1.64575934;image-rendering:optimizeQuality;shape-rendering:geometricPrecision;text-rendering:geometricPrecision"
       inkscape:connector-curvature="0" />
    <path
       id="path17022"
       d="m 82.454835,373.2625 c -0.73287,-5.7923 -1.4336,-11.5846 -2.08934,-17.38334 v -0.0193 c -0.93859,-5.7859 -1.82575,-11.57818 -2.93794,-17.36407 l -0.007,-0.045 -0.0193,-0.0385 c -9.05811,-21.15058 -12.66464,-42.38471 -12.66464,-63.53531 0,-31.14085 7.81737,-62.08885 17.55692,-92.22681 l 0.0193,-0.058 v -0.058 c 0.18645,-6.82092 0.18645,-13.64824 0.18645,-20.46913 0,-6.81449 0,-13.62251 0,-20.39841 0,-4.51299 0,-9.01955 0,-13.48753 h -0.41144 l 0.41144,0.0135 c 0.21215,-5.6123 0.37288,-11.23101 0.48857,-16.8626 0.11562,-5.63157 0.18644,-11.28244 0.19929,-16.984749 v -0.0135 c -0.57858,-25.45139 -0.73929,-49.8935 -0.73929,-74.432025 0,-8.98096 0.0257,-17.9812066 0.0514,-27.0457506 0,-5.2458534 0,-9.9838314 0,-14.1303674 0,-6.216609 0,-11.121754 0,-14.464702 0,-3.342948 0,-5.130121 0,-5.136561 h -0.82287 c 0,0 0,7.161622 0,19.601263 0,4.146536 0,8.884514 0,14.1303674 -0.0257,9.064544 -0.0514,18.0647906 -0.0514,27.0457506 0,24.544945 0.16058,48.993475 0.73929,74.451325 l 0.41145,-0.007 h -0.41143 c -0.0135,5.695869 -0.0837,11.340299 -0.19928,16.965459 -0.11562,5.62514 -0.27645,11.24388 -0.48857,16.84974 v 0.0193 c 0,4.46798 0,8.97452 0,13.48751 0,6.7759 0,13.58394 0,20.39841 0,6.82092 0,13.64181 -0.18646,20.44342 l 0.41145,0.0135 -0.38572,-0.12863 c -9.75884,30.17655 -17.60191,61.20811 -17.60191,92.48395 0,21.24058 3.62581,42.59689 12.72891,63.85676 l 0.3793,-0.16074 -0.40501,0.0772 c 1.11218,5.76659 1.99934,11.55247 2.93793,17.33833 l 0.40502,-0.0644 -0.41143,0.045 c 0.65571,5.80517 1.35646,11.60389 2.09575,17.39617 l 0.81003,-0.10277"
       style="clip-rule:evenodd;fill:#000000;fill-opacity:1;fill-rule:nonzero;stroke:none;stroke-width:1.64575934;image-rendering:optimizeQuality;shape-rendering:geometricPrecision;text-rendering:geometricPrecision"
       inkscape:connector-curvature="0" />
    <path
       id="path17024"
       d="m 104.37687,374.28467 c -0.19286,-5.88873 -0.34073,-11.77103 -0.46288,-17.65332 -0.14773,-5.92088 -0.27001,-11.83534 -0.39214,-17.78835 v -0.045 l -0.0135,-0.0451 c -4.757225,-18.00043 -6.467285,-36.33521 -6.467285,-54.91429 -0.007,-28.17078 3.940825,-56.88155 7.193765,-85.77879 l 0.007,-0.0135 v -0.0257 c 0.12846,-5.15588 0.13489,-10.32458 0.13489,-15.51259 0,-4.53225 0,-9.07739 0,-13.62251 0,-4.54513 0,-9.09025 0,-13.62895 h -0.41143 l 0.40502,0.0644 c 0.6043,-4.08225 1.09932,-8.08736 1.52361,-12.04746 0.41787,-3.96012 0.76501,-7.87522 1.04144,-11.79032 l -0.41143,-0.0257 0.41143,0.0321 c 1.14431,-13.50679 1.57505,-26.86572 1.57505,-40.141079 0,-41.06684 -4.13369,-81.323652 -4.13369,-122.628349 0,-0.199283 0,-0.405005 0,-0.604305 0,-5.811587 0,-8.98096 0,-8.993823 h -0.82288 c 0,0 0,3.182236 0,8.993823 0,0.1993 0,0.398582 0,0.604305 0,41.356132 4.13369,81.612929 4.13369,122.628349 0,13.256069 -0.43073,26.595729 -1.57504,40.070389 v 0.007 c -0.27645,3.90868 -0.61715,7.81094 -1.03502,11.76462 -0.42431,3.94725 -0.91932,7.94592 -1.52363,12.00889 v 0.058 c 0,4.53867 0,9.08381 0,13.62893 0,4.54513 0,9.09025 0,13.62251 0,5.18801 -0.007,10.35029 -0.13488,15.4933 l 0.41144,0.0135 -0.41144,-0.045 c -3.25294,28.87792 -7.200195,57.62727 -7.200195,85.86877 0,18.62407 1.71647,37.03601 6.493055,55.12007 l 0.39856,-0.10294 -0.41144,0.007 c 0.12203,5.95303 0.24429,11.86748 0.39216,17.78835 0.12203,5.8823 0.27002,11.77103 0.46286,17.65976 l 0.82287,-0.0193"
       style="clip-rule:evenodd;fill:#000000;fill-opacity:1;fill-rule:nonzero;stroke:none;stroke-width:1.64575934;image-rendering:optimizeQuality;shape-rendering:geometricPrecision;text-rendering:geometricPrecision"
       inkscape:connector-curvature="0" />
    <path
       id="path17026"
       d="m 126.24747,374.74755 c 0,-12.55535 0,-24.93712 0,-37.20959 0,-6.13947 0,-12.25319 0,-18.34122 0,-6.08803 -0.0451,-12.16318 -0.18644,-18.21906 v -0.0135 c -0.50787,-9.10312 -0.68145,-18.1998 -0.68145,-27.26434 0,-20.22482 0.86789,-40.35323 0.86789,-60.35306 0,-4.17226 0,-8.37024 0,-12.5875 0,-4.21726 0,-8.4538 0,-12.70321 0,-4.24938 0,-8.50523 0.007,-12.76748 h -0.41144 l 0.38573,0.15415 c 2.28863,-5.57373 4.17869,-11.19247 5.7023,-16.84977 l 0.007,-0.0193 v -0.0193 c 2.47506,-15.21686 3.41367,-30.50442 3.41367,-45.83055 0,-48.099879 -9.2317,-96.553347 -9.2317,-144.055366 0,-3.18222 0.0451,-6.358017 0.12846,-9.533831 l -0.81647,-0.02569 c -0.0901,3.18222 -0.13488,6.37088 -0.13488,9.55954 0.007,47.611312 9.2381,96.064768 9.2381,144.055367 0,15.294 -0.93859,30.53655 -3.40723,45.69554 l 0.40501,0.0644 -0.39857,-0.10276 c -1.5172,5.6187 -3.39438,11.21172 -5.67018,16.75331 l -0.0321,0.0708 v 0.0837 c -0.007,4.26225 -0.007,8.51808 -0.007,12.76748 0,4.24941 0,8.48595 0,12.70321 0,4.21725 0,8.41522 0,12.58749 0,19.98054 -0.86791,40.1025 -0.86791,60.35307 0,9.0774 0.1736,18.1805 0.68147,27.30931 l 0.41145,-0.0193 -0.41145,0.007 c 0.14131,6.04946 0.18644,12.11177 0.18644,18.19978 0,6.08803 0,12.20177 0,18.34122 0,12.27247 0,24.65425 0,37.20959 h 0.82287"
       style="clip-rule:evenodd;fill:#000000;fill-opacity:1;fill-rule:nonzero;stroke:none;stroke-width:1.64575934;image-rendering:optimizeQuality;shape-rendering:geometricPrecision;text-rendering:geometricPrecision"
       inkscape:connector-curvature="0" />
    <path
       id="path17028"
       d="m 148.12449,374.75398 c 0,0 0,-9.35384 0,-25.25212 0,-5.29729 0,-11.32746 0,-17.98763 0.0257,-9.81028 0.0385,-19.69768 0.0385,-29.62367 0,-10.08672 -0.0135,-20.19913 -0.0385,-30.30513 0,-4.55798 0,-9.20597 0,-13.93753 0,-14.40038 0,-29.53366 0,-45.0205 0,-5.15586 0,-10.3567 0.007,-15.58329 0.0257,-8.42165 0.49501,-16.72116 2.31435,-24.26208 1.82578,-7.54091 4.98871,-14.31683 10.36956,-19.75555 l 0.0135,-0.0193 0.0135,-0.0135 c 7.38663,-9.15455 12.92177,-20.21199 12.92177,-33.12734 v -0.0257 c -3.27879,-48.929169 -26.80801,-93.383957 -26.79514,-142.364591 0,-6.030155 0.36001,-12.131048 1.15073,-18.315491 l -0.81643,-0.102937 c -0.79718,6.223031 -1.15719,12.35604 -1.15719,18.418344 0.0135,49.244214 23.56136,93.724706 26.79501,142.422465 l 0.41145,-0.0321 h -0.41145 c 0,12.67107 -5.43229,23.54207 -12.74177,32.61304 l 0.32145,0.25716 -0.28931,-0.28929 c -5.50943,5.57371 -8.73666,12.50392 -10.58815,20.14125 -1.83862,7.64379 -2.30791,16.00116 -2.33364,24.45497 -0.007,5.22657 -0.007,10.42741 -0.007,15.58328 0,15.48684 0,30.62011 0,45.02051 0,4.73156 0,9.37955 0,13.93753 0.0257,10.10599 0.0385,20.22484 0.0385,30.30511 0,9.92599 -0.0135,19.8134 -0.0385,29.62367 0,6.66019 0,12.69034 0,17.98763 0,15.8983 0,25.25212 0,25.25212 h 0.82289"
       style="clip-rule:evenodd;fill:#000000;fill-opacity:1;fill-rule:nonzero;stroke:none;stroke-width:1.64575934;image-rendering:optimizeQuality;shape-rendering:geometricPrecision;text-rendering:geometricPrecision"
       inkscape:connector-curvature="0" />
    <path
       id="path17030"
       d="m 170.0015,374.75398 c 0,0 0,-67.75257 0,-148.54906 0,-4.25583 0,-8.54381 0,-12.8575 v -0.0385 l -0.007,-0.0385 c -0.61073,-3.15651 -0.89359,-6.24232 -0.89359,-9.25741 0,-10.09312 3.1308,-19.45982 7.34806,-28.42791 1.82577,-3.88296 3.85724,-7.68879 5.92087,-11.4496 l -0.36001,-0.19929 0.33429,0.2443 c 10.6203,-14.79899 16.28404,-31.80946 16.2776,-50.18281 0,-4.68012 -0.36645,-9.45026 -1.11216,-14.291099 v -0.0135 l -0.007,-0.0135 c -9.58527,-43.09832 -28.85223,-80.545773 -28.83937,-121.991894 0,-6.075184 0.41143,-12.233902 1.33075,-18.521231 l -0.81645,-0.115615 c -0.92574,6.319462 -1.33719,12.523208 -1.33719,18.63693 0.007,41.709719 19.3184,79.20218 28.86509,122.17191 l 0.39858,-0.0901 -0.405,0.058 c 0.7393,4.802269 1.09931,9.533839 1.09931,14.168959 0,18.20622 -5.59944,35.03023 -16.12331,49.70066 l -0.0193,0.0193 -0.007,0.0257 c -2.07006,3.76082 -4.10796,7.58591 -5.94659,11.49459 -4.24298,9.02596 -7.4252,18.50837 -7.4252,28.77507 0,3.06652 0.28285,6.20375 0.90644,9.41169 l 0.40501,-0.0772 h -0.41145 c 0,4.31368 0,8.60166 0,12.85749 0,80.79651 0,148.54906 0,148.54906 h 0.82289"
       style="clip-rule:evenodd;fill:#000000;fill-opacity:1;fill-rule:nonzero;stroke:none;stroke-width:1.64575934;image-rendering:optimizeQuality;shape-rendering:geometricPrecision;text-rendering:geometricPrecision"
       inkscape:connector-curvature="0" />
    <path
       id="path17032"
       d="m 191.87212,374.75398 c 0,0 0,-60.80952 0,-135.91016 0,-4.17224 0,-8.3895 0.007,-12.6389 v -0.0321 l -0.007,-0.0321 c -0.46286,-3.21437 -0.67502,-6.35804 -0.67502,-9.44384 -0.007,-20.33412 9.31526,-38.06459 17.44762,-56.44438 2.34007,-5.29088 4.57084,-10.63316 6.42233,-16.11047 l -0.39216,-0.13488 0.38572,0.14773 c 3.24009,-8.43451 5.08513,-17.65977 5.08513,-26.37073 0,-3.06652 -0.225,-6.06874 -0.70715,-8.94881 v -0.0193 l -0.007,-0.0257 C 206.89576,64.939901 190.38032,25.178113 190.38032,-18.485947 c 0,-7.322333 0.46929,-14.753958 1.49146,-22.333448 l -0.81645,-0.109361 c -1.02861,7.618062 -1.4979,15.08826 -1.4979,22.442758 0.007,43.876189 16.57332,83.715149 29.07724,127.501308 l 0.39856,-0.10936 -0.405,0.0644 c 0.4693,2.83509 0.69429,5.7923 0.69429,8.81383 0,8.59524 -1.82574,17.73048 -5.03369,26.07499 v 0.0193 c -1.84505,5.43873 -4.06297,10.76173 -6.3966,16.03971 -8.11309,18.34122 -17.51835,36.181 -17.51835,56.77871 0,3.12436 0.21217,6.3066 0.68145,9.56597 l 0.41143,-0.0578 h -0.41143 c -0.007,4.24939 -0.007,8.46666 -0.007,12.6389 0,75.10063 0,135.91014 0,135.91014 h 0.82288"
       style="clip-rule:evenodd;fill:#000000;fill-opacity:1;fill-rule:nonzero;stroke:none;stroke-width:1.64575934;image-rendering:optimizeQuality;shape-rendering:geometricPrecision;text-rendering:geometricPrecision"
       inkscape:connector-curvature="0" />
    <path
       id="path17034"
       d="m 213.74915,374.75398 c 0,0 0,-60.80952 0,-135.91016 0,-4.17224 0,-8.3895 0,-12.6389 v -0.0451 c -0.32144,-2.91866 -0.46931,-5.79873 -0.46931,-8.65309 0,-22.62919 9.28954,-43.53548 15.429,-65.81752 1.38217,-5.02085 2.60364,-10.10597 3.52295,-15.30041 l 0.007,-0.0321 v -0.0257 c 0.0644,-1.77432 0.0901,-3.54867 0.0901,-5.32299 -0.007,-44.641219 -19.33126,-87.880969 -19.3184,-132.3936276 0,-4.757264 0.21859,-9.5209684 0.70716,-14.3103814 v -0.03854 c 0.0321,-7.849511 0.0321,-14.14967 0.0321,-18.476219 0,-4.326533 0,-6.653763 0,-6.66661 h -0.82289 c 0,0.01352 0,2.340077 0,6.66661 0,4.326549 0,10.626708 -0.0321,18.469796 l 0.41143,0.0068 -0.41143,-0.04496 c -0.48857,4.815122 -0.70716,9.6109754 -0.70716,14.3939644 0.007,44.7504986 19.33125,87.9902686 19.31838,132.3936076 0,1.76148 -0.0257,3.52939 -0.0901,5.29087 l 0.41145,0.0193 -0.40501,-0.0772 c -0.91288,5.16229 -2.12791,10.22814 -3.50367,15.2297 -6.11373,22.20491 -15.4547,43.17546 -15.46114,66.0361 0,2.88007 0.14773,5.7923 0.47573,8.74309 l 0.40502,-0.045 h -0.41144 c 0,4.2494 0,8.46666 0,12.6389 0,75.10064 0,135.91014 0,135.91014 h 0.82289"
       style="clip-rule:evenodd;fill:#000000;fill-opacity:1;fill-rule:nonzero;stroke:none;stroke-width:1.64575934;image-rendering:optimizeQuality;shape-rendering:geometricPrecision;text-rendering:geometricPrecision"
       inkscape:connector-curvature="0" />
    <path
       id="path17036"
       d="m 235.62617,374.75398 c 0,0 0,-60.80952 0,-135.91016 0,-4.41654 0,-8.88451 0,-13.39107 h -0.41144 l 0.41144,0.0451 c 3.78654,-33.60307 7.50877,-66.86541 8.42165,-100.27562 v -0.007 c 0.0965,-4.05011 0.1479,-8.10021 0.1479,-12.16318 0,-2.63579 -0.0193,-5.27802 -0.0708,-7.92024 -0.92575,-34.663779 -8.23523,-67.55327 -8.5181,-102.7956456 h -0.41143 0.41143 c 0.0135,-6.634477 0.0135,-12.6646334 0.0193,-17.9619214 0,-7.952364 0,-14.258963 0,-18.585512 0,-4.326532 0,-6.653763 0,-6.666609 h -0.82289 c 0,0 0,9.353817 0,25.252121 -0.007,5.297288 -0.007,11.3274444 -0.0193,17.9619214 v 0.0068 c 0.28929,35.3516686 7.59878,68.2475766 8.51808,102.8085156 v -0.007 c 0.0514,2.64223 0.0708,5.278 0.0708,7.90737 0,4.05653 -0.0514,8.10021 -0.1413,12.14391 -0.91933,33.37162 -4.63513,66.60823 -8.42809,100.2113 v 0.045 c 0,4.50657 0,8.97454 0,13.39108 0,75.10064 0,135.91015 0,135.91015 h 0.82287"
       style="clip-rule:evenodd;fill:#000000;fill-opacity:1;fill-rule:nonzero;stroke:none;stroke-width:1.64575934;image-rendering:optimizeQuality;shape-rendering:geometricPrecision;text-rendering:geometricPrecision"
       inkscape:connector-curvature="0" />
    <path
       id="path17038"
       d="m 257.5032,374.75398 c 0,0 0,-67.75257 0,-148.54906 0,-4.75728 0,-9.55312 0.0135,-14.36826 h -0.41145 l 0.41145,0.0257 c 1.97361,-27.69503 2.97006,-54.78578 2.97006,-81.76081 0,-10.82601 -0.16058,-21.63273 -0.48215,-32.445869 -0.16058,-5.40015 -0.36001,-10.8003 -0.60429,-16.20688 v -0.0257 c -1.58149,-14.5611 -1.58149,-30.99941 -1.90292,-45.303366 l -0.41143,0.01352 h 0.41143 c 0,-7.592336 0,-14.79897 0.007,-21.52986 0,-16.8240476 0,-30.697291 0,-40.359684 0,-4.827985 0,-8.608104 0,-11.179596 0,-2.577914 0,-3.93439 0,-3.940813 h -0.82288 c 0,0.0068 0,1.362899 0,3.940813 0,7.714492 0,26.300004 0,51.53928 -0.007,6.73089 -0.007,13.937524 -0.007,21.52986 v 0.01352 c 0.32144,14.284696 0.32144,30.742286 1.90291,45.361246 l 0.41144,-0.0385 -0.41144,0.0135 c 0.24429,5.40657 0.44359,10.8003 0.6043,16.19402 0.32144,10.813139 0.48215,21.607019 0.48215,32.426579 0,26.95575 -0.99002,54.02719 -2.97007,81.70296 v 0.0257 c -0.0135,4.82156 -0.0135,9.6174 -0.0135,14.37469 0,80.7965 0,148.54905 0,148.54905 h 0.8229"
       style="clip-rule:evenodd;fill:#000000;fill-opacity:1;fill-rule:nonzero;stroke:none;stroke-width:1.64575934;image-rendering:optimizeQuality;shape-rendering:geometricPrecision;text-rendering:geometricPrecision"
       inkscape:connector-curvature="0" />
    <path
       id="path17040"
       d="m 279.3738,374.75398 c 0,0 0,-79.55576 0,-169.05677 0,-4.47441 0.007,-8.96167 0.045,-13.44895 0.21214,-24.09493 1.03502,-49.2442 1.03502,-74.22631 0,-14.04682 -0.26358,-28.042179 -1.04146,-41.773979 l -0.40501,0.0257 0.41145,-0.007 c -0.045,-4.1787 -0.045,-8.25452 -0.045,-12.25963 0,-30.06724 0,-56.2901166 0,-74.991345 0,-9.353817 0,-16.824014 0,-21.960592 0,-5.13656 0,-7.920215 0,-7.933078 h -0.82288 c 0,0.01352 0,2.796518 0,7.933078 0,15.403275 0,51.847855 0,96.951937 0,4.00511 0,8.08737 0.045,12.26604 v 0.0193 c 0.77146,13.71253 1.03504,27.688619 1.03504,41.728989 0,24.96284 -0.82287,50.10566 -1.03504,74.21991 -0.0385,4.48726 -0.045,8.98095 -0.045,13.45536 0,89.50101 0,169.05675 0,169.05675 h 0.82288"
       style="clip-rule:evenodd;fill:#000000;fill-opacity:1;fill-rule:nonzero;stroke:none;stroke-width:1.64575934;image-rendering:optimizeQuality;shape-rendering:geometricPrecision;text-rendering:geometricPrecision"
       inkscape:connector-curvature="0" />
    <path
       id="path17042"
       d="m 301.25082,374.75398 c 0,0 0,-93.77613 0,-192.24527 0,-5.18156 0,-10.37599 0,-15.57041 h -0.41144 l 0.41144,0.007 c 0.21215,-9.83598 0.32144,-20.25055 0.32144,-30.69083 0,-10.42102 -0.10936,-20.88056 -0.32144,-30.83872 l -0.41144,0.0135 h 0.41144 c 0,-4.9887 0,-9.925979 0,-14.798959 0,-36.52815 0,-69.404772 0,-93.1461306 0,-11.8738914 0,-21.4655794 0,-28.0871944 0,-6.615174 0,-10.260291 0,-10.273137 h -0.82289 c 0,0.01352 0,3.657963 0,10.273137 0,19.864827 0,66.441103 0,121.233325 0,4.87298 0,9.810259 0,14.798959 v 0.007 c 0.21216,9.95172 0.32146,20.39841 0.32146,30.81943 0,10.43385 -0.10936,20.84199 -0.32146,30.67797 v 0.007 c 0,5.19443 0,10.38885 0,15.5704 0,98.46915 0,192.24527 0,192.24527 h 0.82289"
       style="clip-rule:evenodd;fill:#000000;fill-opacity:1;fill-rule:nonzero;stroke:none;stroke-width:1.64575934;image-rendering:optimizeQuality;shape-rendering:geometricPrecision;text-rendering:geometricPrecision"
       inkscape:connector-curvature="0" />
    <path
       id="path17044"
       d="m 322.30496,374.75398 h 0.82289 V -40.877389 h -0.82289 z m 0,0"
       style="clip-rule:evenodd;fill:#000000;fill-opacity:1;fill-rule:nonzero;stroke:none;stroke-width:1.64575934;image-rendering:optimizeQuality;shape-rendering:geometricPrecision;text-rendering:geometricPrecision"
       inkscape:connector-curvature="0" />
  </g>
</svg>
