<?xml version="1.0" encoding="UTF-8" standalone="no"?>
<!-- Created with Inkscape (http://www.inkscape.org/) -->

<svg
   xmlns:dc="http://purl.org/dc/elements/1.1/"
   xmlns:cc="http://creativecommons.org/ns#"
   xmlns:rdf="http://www.w3.org/1999/02/22-rdf-syntax-ns#"
   xmlns:svg="http://www.w3.org/2000/svg"
   xmlns="http://www.w3.org/2000/svg"
   xmlns:sodipodi="http://sodipodi.sourceforge.net/DTD/sodipodi-0.dtd"
   xmlns:inkscape="http://www.inkscape.org/namespaces/inkscape"
   width="393.89044mm"
   height="346.01239mm"
   viewBox="0 0 393.89045 346.0124"
   version="1.1"
   id="svg12652"
   inkscape:version="0.92.5 (2060ec1f9f, 2020-04-08)"
   sodipodi:docname="morphing_shape.svg">
  <defs
     id="defs12646" />
  <sodipodi:namedview
     id="base"
     pagecolor="#ffffff"
     bordercolor="#666666"
     borderopacity="1.0"
     inkscape:pageopacity="0.0"
     inkscape:pageshadow="2"
     inkscape:zoom="0.35"
     inkscape:cx="952.83704"
     inkscape:cy="562.24297"
     inkscape:document-units="mm"
     inkscape:current-layer="g12840"
     showgrid="false"
     inkscape:window-width="1210"
     inkscape:window-height="1016"
     inkscape:window-x="710"
     inkscape:window-y="1107"
     inkscape:window-maximized="0" />
  <metadata
     id="metadata12649">
    <rdf:RDF>
      <cc:Work
         rdf:about="">
        <dc:format>image/svg+xml</dc:format>
        <dc:type
           rdf:resource="http://purl.org/dc/dcmitype/StillImage" />
        <dc:title></dc:title>
      </cc:Work>
    </rdf:RDF>
  </metadata>
  <g
     inkscape:label="Layer 1"
     inkscape:groupmode="layer"
     id="layer1"
     transform="translate(146.27147,48.418924)">
    <g
       id="g12677"
       transform="matrix(7.1422275,0,0,7.1422275,-9.2102081,24.35058)">
      <g
         id="g12718"
         transform="matrix(0.07239319,0,0,0.07239319,-3.0905042,-3.852966)">
        <g
           id="g12759"
           transform="matrix(0.9976262,0,0,0.9976262,7.9696602,-2.3539829)">
          <g
             id="g12800"
             transform="matrix(5.3491048,0,0,5.3491048,40.611695,-289.72993)">
            <g
               id="g12782"
               transform="translate(-20.274298,50.411767)" />
            <g
               id="g12840"
               transform="matrix(0.08340627,0,0,0.08340627,-50.76575,38.206551)">
              <path
                 id="path12823"
                 transform="translate(-2875.94,-1433.27)"
                 d="m 3216.08,1878.39 a 263.55,263.55 0 0 0 -28.93,1 205.33,205.33 0 0 1 -133.44,-55 c -83.41,-77.53 -88.17,-208 -10.63,-291.41 77.54,-83.41 208,-88.2 291.41,-10.67 a 205.49,205.49 0 0 1 64.64,129 257.93,257.93 0 0 0 171.87,248.25 332.65,332.65 0 0 1 188.68,-6 258,258 0 0 0 156.7,-232.13 266.06,266.06 0 0 0 -1.06,-28.93 205.4,205.4 0 0 1 55.05,-133.44 c 77.53,-83.4 208,-88.17 291.42,-10.63 83.42,77.54 88.19,208 10.66,291.42 a 205.54,205.54 0 0 1 -129,64.64 258.15,258.15 0 0 0 -232.23,135.62 335.31,335.31 0 0 1 97.78,218.33 c 6.39,-0.28 12.8,-0.76 19.26,-1.51 A 266.21,266.21 0 0 0 4197.22,2109 v 0 a 260.49,260.49 0 0 0 18.8,-23.74 v 0 a 213,213 0 0 1 133.11,-68.06 c 117.27,-13.6 223.36,70.44 237,187.71 13.64,117.27 -70.44,223.38 -187.71,237 a 212.91,212.91 0 0 1 -145.19,-35.81 v 0 a 267.39,267.39 0 0 0 -274.47,-49.24 c -74.34,161.41 -263.36,237.15 -429.53,169.34 -17.83,-7.28 -94.56,25 -104.55,59.11 a 180.92,180.92 0 0 0 20,146.42 144.71,144.71 0 1 1 -209.75,-61.4 180.88,180.88 0 0 0 85.67,-241 v 0 c -0.13,-0.28 -0.27,-0.55 -0.4,-0.82 l -0.22,-0.33 v 0 q -2.1,-4.41 -4.43,-8.69 -2.28,-4.12 -4.77,-8.14 v 0 l -0.17,-0.39 -0.44,-0.73 a 180.9,180.9 0 0 0 -231.28,-67.67 183.24,183.24 0 0 0 -17.83,9.75 144.71,144.71 0 1 1 61.4,-209.75 180.83,180.83 0 0 0 199.83,99.46 334.8,334.8 0 0 1 84,-247.69 258.09,258.09 0 0 0 -210.19,-115.86 z"
                 inkscape:connector-curvature="0" />
            </g>
          </g>
        </g>
      </g>
    </g>
  </g>
</svg>
