<?xml version="1.0" encoding="UTF-8" standalone="no"?>
<!-- Created with Inkscape (http://www.inkscape.org/) -->

<svg
   xmlns:dc="http://purl.org/dc/elements/1.1/"
   xmlns:cc="http://creativecommons.org/ns#"
   xmlns:rdf="http://www.w3.org/1999/02/22-rdf-syntax-ns#"
   xmlns:svg="http://www.w3.org/2000/svg"
   xmlns="http://www.w3.org/2000/svg"
   xmlns:sodipodi="http://sodipodi.sourceforge.net/DTD/sodipodi-0.dtd"
   xmlns:inkscape="http://www.inkscape.org/namespaces/inkscape"
   width="228.37274mm"
   height="228.37274mm"
   viewBox="0 0 228.37276 228.37275"
   version="1.1"
   id="svg12652"
   inkscape:version="0.92.5 (2060ec1f9f, 2020-04-08)"
   sodipodi:docname="smiley.svg">
  <defs
     id="defs12646" />
  <sodipodi:namedview
     id="base"
     pagecolor="#ffffff"
     bordercolor="#666666"
     borderopacity="1.0"
     inkscape:pageopacity="0.0"
     inkscape:pageshadow="2"
     inkscape:zoom="0.35"
     inkscape:cx="574.33433"
     inkscape:cy="291.07512"
     inkscape:document-units="mm"
     inkscape:current-layer="g13067"
     showgrid="false"
     inkscape:window-width="1210"
     inkscape:window-height="1016"
     inkscape:window-x="710"
     inkscape:window-y="1107"
     inkscape:window-maximized="0" />
  <metadata
     id="metadata12649">
    <rdf:RDF>
      <cc:Work
         rdf:about="">
        <dc:format>image/svg+xml</dc:format>
        <dc:type
           rdf:resource="http://purl.org/dc/dcmitype/StillImage" />
        <dc:title></dc:title>
      </cc:Work>
    </rdf:RDF>
  </metadata>
  <g
     inkscape:label="Layer 1"
     inkscape:groupmode="layer"
     id="layer1"
     transform="translate(46.125961,2.5257304)">
    <g
       id="g12677"
       transform="matrix(7.1422275,0,0,7.1422275,-9.2102081,24.35058)">
      <g
         id="g12718"
         transform="matrix(0.07239319,0,0,0.07239319,-3.0905042,-3.852966)">
        <g
           id="g12759"
           transform="matrix(0.9976262,0,0,0.9976262,7.9696602,-2.3539829)">
          <g
             id="g12800"
             transform="matrix(5.3491048,0,0,5.3491048,40.611695,-289.72993)">
            <g
               id="g12782"
               transform="translate(-20.274298,50.411767)" />
            <g
               id="g12840"
               transform="matrix(0.08340627,0,0,0.08340627,-50.76575,38.206551)">
              <g
                 id="g12897"
                 transform="matrix(48.66352,0,0,48.66352,492.27015,267.37763)">
                <g
                   id="g12947"
                   transform="matrix(0.30851695,0,0,0.30851695,0.59272165,1.8170079)">
                  <g
                     id="g12988"
                     transform="matrix(0.14522106,0,0,0.14522106,-11.171931,-14.678001)">
                    <g
                       id="g13029"
                       transform="matrix(0.96423543,0,0,0.96423543,15.509735,9.0701753)">
                      <g
                         id="g13067"
                         transform="matrix(0.97526942,0,0,0.97526942,9.1915037,7.3698267)">
                        <path
                           id="path13050"
                           d="M 427.1,84.9 C 381.4,39.2 320.6,14 256,14 191.4,14 130.6,39.2 84.9,84.9 39.2,130.6 14,191.4 14,256 14,320.6 39.2,381.4 84.9,427.1 130.6,472.8 191.4,498 256,498 320.6,498 381.4,472.8 427.1,427.1 472.8,381.4 498,320.6 498,256 498,191.4 472.8,130.6 427.1,84.9 Z m -271.2,22.2 c 18.9,0 34.3,23 34.3,51.4 0,28.4 -15.4,51.4 -34.3,51.4 -18.9,0 -34.3,-23 -34.3,-51.4 0,-28.4 15.4,-51.4 34.3,-51.4 z m 234.4,163.4 c 0,74 -60.3,134.3 -134.3,134.3 -74,0 -134.3,-60.2 -134.3,-134.3 v -2 h 4 v 2 c 0,71.8 58.5,130.3 130.3,130.3 71.8,0 130.3,-58.4 130.3,-130.3 v -2 h 4 z m -34.2,-60.6 c -18.9,0 -34.3,-23 -34.3,-51.4 0,-28.4 15.4,-51.4 34.3,-51.4 18.9,0 34.3,23 34.3,51.4 0,28.4 -15.4,51.4 -34.3,51.4 z"
                           inkscape:connector-curvature="0" />
                      </g>
                    </g>
                  </g>
                </g>
              </g>
            </g>
          </g>
        </g>
      </g>
    </g>
  </g>
</svg>
