<?xml version="1.0" encoding="UTF-8" standalone="no"?>
<!-- Created with Inkscape (http://www.inkscape.org/) -->

<svg
   xmlns:dc="http://purl.org/dc/elements/1.1/"
   xmlns:cc="http://creativecommons.org/ns#"
   xmlns:rdf="http://www.w3.org/1999/02/22-rdf-syntax-ns#"
   xmlns:svg="http://www.w3.org/2000/svg"
   xmlns="http://www.w3.org/2000/svg"
   xmlns:sodipodi="http://sodipodi.sourceforge.net/DTD/sodipodi-0.dtd"
   xmlns:inkscape="http://www.inkscape.org/namespaces/inkscape"
   width="281.66077mm"
   height="281.66077mm"
   viewBox="0 0 281.66079 281.66079"
   version="1.1"
   id="svg12652"
   inkscape:version="0.92.5 (2060ec1f9f, 2020-04-08)"
   sodipodi:docname="star_five.svg">
  <defs
     id="defs12646">
    <style
       id="style13253">
      .cls-1 {
        stroke-width: 0px;
      }
    </style>
  </defs>
  <sodipodi:namedview
     id="base"
     pagecolor="#ffffff"
     bordercolor="#666666"
     borderopacity="1.0"
     inkscape:pageopacity="0.0"
     inkscape:pageshadow="2"
     inkscape:zoom="0.35"
     inkscape:cx="1132.6544"
     inkscape:cy="187.61049"
     inkscape:document-units="mm"
     inkscape:current-layer="g15371"
     showgrid="false"
     inkscape:window-width="1210"
     inkscape:window-height="1016"
     inkscape:window-x="710"
     inkscape:window-y="1107"
     inkscape:window-maximized="0" />
  <metadata
     id="metadata12649">
    <rdf:RDF>
      <cc:Work
         rdf:about="">
        <dc:format>image/svg+xml</dc:format>
        <dc:type
           rdf:resource="http://purl.org/dc/dcmitype/StillImage" />
        <dc:title></dc:title>
      </cc:Work>
    </rdf:RDF>
  </metadata>
  <g
     inkscape:label="Layer 1"
     inkscape:groupmode="layer"
     id="layer1"
     transform="translate(103.02608,83.209972)">
    <g
       id="g12677"
       transform="matrix(7.1422275,0,0,7.1422275,-9.2102081,24.35058)">
      <g
         id="g12718"
         transform="matrix(0.07239319,0,0,0.07239319,-3.0905042,-3.852966)">
        <g
           id="g12759"
           transform="matrix(0.9976262,0,0,0.9976262,7.9696602,-2.3539829)">
          <g
             id="g12800"
             transform="matrix(5.3491048,0,0,5.3491048,40.611695,-289.72993)">
            <g
               id="g12782"
               transform="translate(-20.274298,50.411767)" />
            <g
               id="g12840"
               transform="matrix(0.08340627,0,0,0.08340627,-50.76575,38.206551)">
              <g
                 id="g12897"
                 transform="matrix(48.66352,0,0,48.66352,492.27015,267.37763)">
                <g
                   id="g12947"
                   transform="matrix(0.30851695,0,0,0.30851695,0.59272165,1.8170079)">
                  <g
                     id="g12988"
                     transform="matrix(0.14522106,0,0,0.14522106,-11.171931,-14.678001)">
                    <g
                       id="g13029"
                       transform="matrix(0.96423543,0,0,0.96423543,15.509735,9.0701753)">
                      <g
                         id="g13067"
                         transform="matrix(0.97526942,0,0,0.97526942,9.1915037,7.3698267)">
                        <g
                           style="clip-rule:evenodd;fill-rule:evenodd;image-rendering:optimizeQuality;shape-rendering:geometricPrecision;text-rendering:geometricPrecision"
                           id="g13108"
                           transform="matrix(17.668242,0,0,17.668242,-91.339017,-116.63537)">
                          <g
                             id="g13148"
                             transform="matrix(0.03173732,0,0,0.03173732,-14.659457,5.2852684)">
                            <g
                               id="g13188"
                               transform="translate(341.99431,-20.073086)">
                              <g
                                 id="g13232"
                                 transform="matrix(11.488495,0,0,11.488495,212.35182,-10.910326)">
                                <g
                                   id="g15049"
                                   transform="matrix(1.0354606,0,0,1.0354606,-8.751806,-1.6795511)">
                                <g
                                   id="g15099"
                                   transform="matrix(2.2940754,0,0,2.2940754,7.6398984,-0.75067886)">
                                <g
                                   id="g15140"
                                   transform="matrix(0.08645109,0,0,0.08645109,-7.1744098,-6.2327831)">
                                <g
                                   id="g15196"
                                   transform="matrix(1.096003,0,0,1.096003,7.6998232,-5.3202773)">
                                <g
                                   id="g15236"
                                   transform="matrix(0.43617686,0,0,0.43617686,-42.249017,-32.588341)">
                                <g
                                   id="g15274"
                                   transform="matrix(24.557279,0,0,24.557279,-296.9021,-35.334107)">
                                <g
                                   id="g15315"
                                   transform="matrix(0.09359312,0,0,0.09359312,13.78595,4.6478307)">
                                <g
                                   style="clip-rule:evenodd;fill-rule:evenodd;image-rendering:optimizeQuality;shape-rendering:geometricPrecision;text-rendering:geometricPrecision"
                                   id="g15371"
                                   transform="matrix(13.686639,0,0,13.686639,-18.280592,-68.889285)">
                                <g
                                   id="g15353">
                                <path
                                   id="path15351"
                                   d="m 18.64,5.36 c 0,-0.09 0.04,-0.18 0.11,-0.25 0.15,-0.15 0.4,-0.15 0.55,0 l 1.95,1.95 c 0.07,0.07 0.11,0.16 0.11,0.25 0.27,1.67 0.67,3.18 1.23,4.54 1.9,4.63 5.23,6.08 10.11,6.79 0.09,0.01 0.17,0.04 0.24,0.11 l 1.95,1.95 c 0.15,0.15 0.15,0.4 0,0.55 -0.07,0.07 -0.16,0.1 -0.24,0.11 -3.79,0.55 -6.81,1.91 -9.02,4.11 -2.22,2.19 -3.65,5.24 -4.27,9.17 0,0.09 -0.04,0.18 -0.11,0.25 -0.15,0.15 -0.4,0.15 -0.55,0 L 18.75,32.94 C 18.68,32.87 18.64,32.78 18.64,32.69 17.88,27.84 16.43,24.4 11.78,22.53 10.43,21.99 8.94,21.6 7.3,21.36 7.22,21.35 7.13,21.32 7.06,21.25 L 5.11,19.3 c -0.15,-0.15 -0.15,-0.4 0,-0.55 0.07,-0.07 0.16,-0.1 0.24,-0.11 3.79,-0.55 6.81,-1.91 9.02,-4.11 2.22,-2.19 3.65,-5.24 4.27,-9.17 z m 5.53,10.65 C 24.15,16 24.14,15.99 24.12,15.97 23.77,15.69 23.45,15.4 23.13,15.08 c -1.96,-1.94 -3.33,-4.5 -4.1,-7.69 -0.78,3.19 -2.15,5.75 -4.11,7.69 -1.93,1.92 -4.41,3.22 -7.44,3.95 3.03,0.72 5.51,2.03 7.44,3.94 0.35,0.34 0.68,0.7 0.99,1.09 0,0 0.01,0.01 0.01,0.02 1.44,1.77 2.47,3.96 3.11,6.58 0.07,-0.33 0.16,-0.64 0.25,-0.95 0,-0.01 0,-0.02 0.01,-0.03 0.8,-2.74 2.08,-4.97 3.84,-6.71 1.93,-1.91 4.42,-3.22 7.45,-3.94 -2.52,-0.6 -4.66,-1.6 -6.41,-3.02 z"
                                   inkscape:connector-curvature="0"
                                   style="fill:#000000;fill-rule:nonzero" />
                                </g>
                                </g>
                                </g>
                                </g>
                                </g>
                                </g>
                                </g>
                                </g>
                                </g>
                              </g>
                            </g>
                          </g>
                        </g>
                      </g>
                    </g>
                  </g>
                </g>
              </g>
            </g>
          </g>
        </g>
      </g>
    </g>
  </g>
  <style
     id="style15338">
		.s0 { fill: #000000 } 
	</style>
</svg>
