<?xml version="1.0" encoding="UTF-8" standalone="no"?>
<!-- Created with Inkscape (http://www.inkscape.org/) -->

<svg
   xmlns:dc="http://purl.org/dc/elements/1.1/"
   xmlns:cc="http://creativecommons.org/ns#"
   xmlns:rdf="http://www.w3.org/1999/02/22-rdf-syntax-ns#"
   xmlns:svg="http://www.w3.org/2000/svg"
   xmlns="http://www.w3.org/2000/svg"
   xmlns:sodipodi="http://sodipodi.sourceforge.net/DTD/sodipodi-0.dtd"
   xmlns:inkscape="http://www.inkscape.org/namespaces/inkscape"
   width="328.41125mm"
   height="328.41125mm"
   viewBox="0 0 328.41128 328.41128"
   version="1.1"
   id="svg12652"
   inkscape:version="0.92.5 (2060ec1f9f, 2020-04-08)"
   sodipodi:docname="star_one.svg">
  <defs
     id="defs12646">
    <style
       id="style13253">
      .cls-1 {
        stroke-width: 0px;
      }
    </style>
  </defs>
  <sodipodi:namedview
     id="base"
     pagecolor="#ffffff"
     bordercolor="#666666"
     borderopacity="1.0"
     inkscape:pageopacity="0.0"
     inkscape:pageshadow="2"
     inkscape:zoom="0.35"
     inkscape:cx="815.69764"
     inkscape:cy="402.21519"
     inkscape:document-units="mm"
     inkscape:current-layer="g15196"
     showgrid="false"
     inkscape:window-width="1210"
     inkscape:window-height="1016"
     inkscape:window-x="710"
     inkscape:window-y="1107"
     inkscape:window-maximized="0" />
  <metadata
     id="metadata12649">
    <rdf:RDF>
      <cc:Work
         rdf:about="">
        <dc:format>image/svg+xml</dc:format>
        <dc:type
           rdf:resource="http://purl.org/dc/dcmitype/StillImage" />
        <dc:title></dc:title>
      </cc:Work>
    </rdf:RDF>
  </metadata>
  <g
     inkscape:label="Layer 1"
     inkscape:groupmode="layer"
     id="layer1"
     transform="translate(109.98666,73.158423)">
    <g
       id="g12677"
       transform="matrix(7.1422275,0,0,7.1422275,-9.2102081,24.35058)">
      <g
         id="g12718"
         transform="matrix(0.07239319,0,0,0.07239319,-3.0905042,-3.852966)">
        <g
           id="g12759"
           transform="matrix(0.9976262,0,0,0.9976262,7.9696602,-2.3539829)">
          <g
             id="g12800"
             transform="matrix(5.3491048,0,0,5.3491048,40.611695,-289.72993)">
            <g
               id="g12782"
               transform="translate(-20.274298,50.411767)" />
            <g
               id="g12840"
               transform="matrix(0.08340627,0,0,0.08340627,-50.76575,38.206551)">
              <g
                 id="g12897"
                 transform="matrix(48.66352,0,0,48.66352,492.27015,267.37763)">
                <g
                   id="g12947"
                   transform="matrix(0.30851695,0,0,0.30851695,0.59272165,1.8170079)">
                  <g
                     id="g12988"
                     transform="matrix(0.14522106,0,0,0.14522106,-11.171931,-14.678001)">
                    <g
                       id="g13029"
                       transform="matrix(0.96423543,0,0,0.96423543,15.509735,9.0701753)">
                      <g
                         id="g13067"
                         transform="matrix(0.97526942,0,0,0.97526942,9.1915037,7.3698267)">
                        <g
                           style="clip-rule:evenodd;fill-rule:evenodd;image-rendering:optimizeQuality;shape-rendering:geometricPrecision;text-rendering:geometricPrecision"
                           id="g13108"
                           transform="matrix(17.668242,0,0,17.668242,-91.339017,-116.63537)">
                          <g
                             id="g13148"
                             transform="matrix(0.03173732,0,0,0.03173732,-14.659457,5.2852684)">
                            <g
                               id="g13188"
                               transform="translate(341.99431,-20.073086)">
                              <g
                                 id="g13232"
                                 transform="matrix(11.488495,0,0,11.488495,212.35182,-10.910326)">
                                <g
                                   id="g15049"
                                   transform="matrix(1.0354606,0,0,1.0354606,-8.751806,-1.6795511)">
                                <g
                                   id="g15099"
                                   transform="matrix(2.2940754,0,0,2.2940754,7.6398984,-0.75067886)">
                                <g
                                   id="g15140"
                                   transform="matrix(0.08645109,0,0,0.08645109,-7.1744098,-6.2327831)">
                                <g
                                   id="g15196"
                                   transform="matrix(1.096003,0,0,1.096003,7.6998232,-5.3202773)">
                                <g
                                   id="g15173">
                                <g
                                   id="g15171">
                                <path
                                   id="path15161"
                                   d="M 131.7,380.3 C -49.6,505 7,561.6 131.7,380.3 Z"
                                   inkscape:connector-curvature="0" />
                                <path
                                   id="path15163"
                                   d="M 131.7,131.7 C 7,-49.6 -49.6,7 131.7,131.7 Z"
                                   inkscape:connector-curvature="0" />
                                <path
                                   id="path15165"
                                   d="m 380.3,380.3 c 124.7,181.3 181.3,124.7 0,0 z"
                                   inkscape:connector-curvature="0" />
                                <path
                                   id="path15167"
                                   d="M 380.3,131.7 C 561.6,7 505,-49.6 380.3,131.7 Z"
                                   inkscape:connector-curvature="0" />
                                <path
                                   id="path15169"
                                   d="m 359.7,256 c -14.9,-6.6 -29.2,-13.2 -43,-19.8 22.5,-41.2 43.9,-75.8 63.6,-104.5 -28.7,19.7 -63.3,41.1 -104.5,63.6 -6.6,-13.8 -13.2,-28.1 -19.8,-43 -6.6,14.9 -13.2,29.2 -19.8,43 -41.2,-22.5 -75.8,-43.9 -104.5,-63.6 19.7,28.7 41.1,63.3 63.6,104.5 -13.8,6.6 -28.1,13.2 -43,19.8 14.9,6.6 29.2,13.2 43,19.8 -22.5,41.2 -43.9,75.8 -63.6,104.5 28.7,-19.7 63.3,-41.1 104.5,-63.6 6.6,13.8 13.2,28.1 19.8,43 6.6,-14.9 13.2,-29.2 19.8,-43 41.2,22.5 75.8,43.9 104.5,63.6 -19.7,-28.7 -41.1,-63.3 -63.6,-104.5 13.8,-6.6 28.1,-13.2 43,-19.8 z"
                                   inkscape:connector-curvature="0" />
                                </g>
                                </g>
                                </g>
                                </g>
                                </g>
                                </g>
                              </g>
                            </g>
                          </g>
                        </g>
                      </g>
                    </g>
                  </g>
                </g>
              </g>
            </g>
          </g>
        </g>
      </g>
    </g>
  </g>
</svg>
