<?xml version="1.0" encoding="UTF-8" standalone="no"?>
<!-- Created with Inkscape (http://www.inkscape.org/) -->

<svg
   xmlns:dc="http://purl.org/dc/elements/1.1/"
   xmlns:cc="http://creativecommons.org/ns#"
   xmlns:rdf="http://www.w3.org/1999/02/22-rdf-syntax-ns#"
   xmlns:svg="http://www.w3.org/2000/svg"
   xmlns="http://www.w3.org/2000/svg"
   xmlns:sodipodi="http://sodipodi.sourceforge.net/DTD/sodipodi-0.dtd"
   xmlns:inkscape="http://www.inkscape.org/namespaces/inkscape"
   width="299.62537mm"
   height="299.62537mm"
   viewBox="0 0 299.62539 299.62539"
   version="1.1"
   id="svg12652"
   inkscape:version="0.92.5 (2060ec1f9f, 2020-04-08)"
   sodipodi:docname="star.svg">
  <defs
     id="defs12646">
    <style
       id="style13253">
      .cls-1 {
        stroke-width: 0px;
      }
    </style>
  </defs>
  <sodipodi:namedview
     id="base"
     pagecolor="#ffffff"
     bordercolor="#666666"
     borderopacity="1.0"
     inkscape:pageopacity="0.0"
     inkscape:pageshadow="2"
     inkscape:zoom="0.35"
     inkscape:cx="837.44783"
     inkscape:cy="302.38566"
     inkscape:document-units="mm"
     inkscape:current-layer="g15140"
     showgrid="false"
     inkscape:window-width="1210"
     inkscape:window-height="1016"
     inkscape:window-x="710"
     inkscape:window-y="1107"
     inkscape:window-maximized="0" />
  <metadata
     id="metadata12649">
    <rdf:RDF>
      <cc:Work
         rdf:about="">
        <dc:format>image/svg+xml</dc:format>
        <dc:type
           rdf:resource="http://purl.org/dc/dcmitype/StillImage" />
        <dc:title></dc:title>
      </cc:Work>
    </rdf:RDF>
  </metadata>
  <g
     inkscape:label="Layer 1"
     inkscape:groupmode="layer"
     id="layer1"
     transform="translate(115.7414,70.78576)">
    <g
       id="g12677"
       transform="matrix(7.1422275,0,0,7.1422275,-9.2102081,24.35058)">
      <g
         id="g12718"
         transform="matrix(0.07239319,0,0,0.07239319,-3.0905042,-3.852966)">
        <g
           id="g12759"
           transform="matrix(0.9976262,0,0,0.9976262,7.9696602,-2.3539829)">
          <g
             id="g12800"
             transform="matrix(5.3491048,0,0,5.3491048,40.611695,-289.72993)">
            <g
               id="g12782"
               transform="translate(-20.274298,50.411767)" />
            <g
               id="g12840"
               transform="matrix(0.08340627,0,0,0.08340627,-50.76575,38.206551)">
              <g
                 id="g12897"
                 transform="matrix(48.66352,0,0,48.66352,492.27015,267.37763)">
                <g
                   id="g12947"
                   transform="matrix(0.30851695,0,0,0.30851695,0.59272165,1.8170079)">
                  <g
                     id="g12988"
                     transform="matrix(0.14522106,0,0,0.14522106,-11.171931,-14.678001)">
                    <g
                       id="g13029"
                       transform="matrix(0.96423543,0,0,0.96423543,15.509735,9.0701753)">
                      <g
                         id="g13067"
                         transform="matrix(0.97526942,0,0,0.97526942,9.1915037,7.3698267)">
                        <g
                           style="clip-rule:evenodd;fill-rule:evenodd;image-rendering:optimizeQuality;shape-rendering:geometricPrecision;text-rendering:geometricPrecision"
                           id="g13108"
                           transform="matrix(17.668242,0,0,17.668242,-91.339017,-116.63537)">
                          <g
                             id="g13148"
                             transform="matrix(0.03173732,0,0,0.03173732,-14.659457,5.2852684)">
                            <g
                               id="g13188"
                               transform="translate(341.99431,-20.073086)">
                              <g
                                 id="g13232"
                                 transform="matrix(11.488495,0,0,11.488495,212.35182,-10.910326)">
                                <g
                                   id="g15049"
                                   transform="matrix(1.0354606,0,0,1.0354606,-8.751806,-1.6795511)">
                                <g
                                   id="g15099"
                                   transform="matrix(2.2940754,0,0,2.2940754,7.6398984,-0.75067886)">
                                <g
                                   id="g15140"
                                   transform="matrix(0.08645109,0,0,0.08645109,-7.1744098,-6.2327831)">
                                <g
                                   id="g15122">
                                <path
                                   id="path15120"
                                   d="M 494.8,254 C 431.5,254 372.1,229.4 327.4,184.6 282.6,139.9 258,80.4 258,17.2 V 16 h -4 v 1.2 C 254,80.5 229.4,139.9 184.6,184.6 139.9,229.4 80.4,254 17.2,254 H 16 v 4 h 1.2 c 63.3,0 122.7,24.6 167.4,69.4 44.7,44.7 69.4,104.2 69.4,167.4 v 1.2 h 4 v -1.2 C 258,431.5 282.6,372.1 327.4,327.4 372.1,282.7 431.6,258 494.8,258 h 1.2 v -4 z m -170.3,70.5 c -38,38 -61.8,86.5 -68.5,139 -6.8,-52.5 -30.5,-101 -68.5,-139 -38,-38 -86.5,-61.8 -139,-68.5 52.5,-6.8 101,-30.5 139,-68.5 38,-38 61.8,-86.5 68.5,-139 6.8,52.5 30.5,101 68.5,139 38,38 86.5,61.8 139,68.5 -52.4,6.8 -100.9,30.5 -139,68.5 z"
                                   inkscape:connector-curvature="0" />
                                </g>
                                </g>
                                </g>
                                </g>
                              </g>
                            </g>
                          </g>
                        </g>
                      </g>
                    </g>
                  </g>
                </g>
              </g>
            </g>
          </g>
        </g>
      </g>
    </g>
  </g>
</svg>
