<?xml version="1.0" encoding="UTF-8" standalone="no"?>
<!-- Created with Inkscape (http://www.inkscape.org/) -->

<svg
   xmlns:dc="http://purl.org/dc/elements/1.1/"
   xmlns:cc="http://creativecommons.org/ns#"
   xmlns:rdf="http://www.w3.org/1999/02/22-rdf-syntax-ns#"
   xmlns:svg="http://www.w3.org/2000/svg"
   xmlns="http://www.w3.org/2000/svg"
   xmlns:sodipodi="http://sodipodi.sourceforge.net/DTD/sodipodi-0.dtd"
   xmlns:inkscape="http://www.inkscape.org/namespaces/inkscape"
   width="273.65842mm"
   height="331.27069mm"
   viewBox="0 0 273.65844 331.27072"
   version="1.1"
   id="svg12652"
   inkscape:version="0.92.5 (2060ec1f9f, 2020-04-08)"
   sodipodi:docname="star_three.svg">
  <defs
     id="defs12646">
    <style
       id="style13253">
      .cls-1 {
        stroke-width: 0px;
      }
    </style>
  </defs>
  <sodipodi:namedview
     id="base"
     pagecolor="#ffffff"
     bordercolor="#666666"
     borderopacity="1.0"
     inkscape:pageopacity="0.0"
     inkscape:pageshadow="2"
     inkscape:zoom="0.35"
     inkscape:cx="772.84734"
     inkscape:cy="387.38128"
     inkscape:document-units="mm"
     inkscape:current-layer="g15315"
     showgrid="false"
     inkscape:window-width="1210"
     inkscape:window-height="1016"
     inkscape:window-x="710"
     inkscape:window-y="1107"
     inkscape:window-maximized="0" />
  <metadata
     id="metadata12649">
    <rdf:RDF>
      <cc:Work
         rdf:about="">
        <dc:format>image/svg+xml</dc:format>
        <dc:type
           rdf:resource="http://purl.org/dc/dcmitype/StillImage" />
        <dc:title></dc:title>
      </cc:Work>
    </rdf:RDF>
  </metadata>
  <g
     inkscape:label="Layer 1"
     inkscape:groupmode="layer"
     id="layer1"
     transform="translate(98.649185,72.92871)">
    <g
       id="g12677"
       transform="matrix(7.1422275,0,0,7.1422275,-9.2102081,24.35058)">
      <g
         id="g12718"
         transform="matrix(0.07239319,0,0,0.07239319,-3.0905042,-3.852966)">
        <g
           id="g12759"
           transform="matrix(0.9976262,0,0,0.9976262,7.9696602,-2.3539829)">
          <g
             id="g12800"
             transform="matrix(5.3491048,0,0,5.3491048,40.611695,-289.72993)">
            <g
               id="g12782"
               transform="translate(-20.274298,50.411767)" />
            <g
               id="g12840"
               transform="matrix(0.08340627,0,0,0.08340627,-50.76575,38.206551)">
              <g
                 id="g12897"
                 transform="matrix(48.66352,0,0,48.66352,492.27015,267.37763)">
                <g
                   id="g12947"
                   transform="matrix(0.30851695,0,0,0.30851695,0.59272165,1.8170079)">
                  <g
                     id="g12988"
                     transform="matrix(0.14522106,0,0,0.14522106,-11.171931,-14.678001)">
                    <g
                       id="g13029"
                       transform="matrix(0.96423543,0,0,0.96423543,15.509735,9.0701753)">
                      <g
                         id="g13067"
                         transform="matrix(0.97526942,0,0,0.97526942,9.1915037,7.3698267)">
                        <g
                           style="clip-rule:evenodd;fill-rule:evenodd;image-rendering:optimizeQuality;shape-rendering:geometricPrecision;text-rendering:geometricPrecision"
                           id="g13108"
                           transform="matrix(17.668242,0,0,17.668242,-91.339017,-116.63537)">
                          <g
                             id="g13148"
                             transform="matrix(0.03173732,0,0,0.03173732,-14.659457,5.2852684)">
                            <g
                               id="g13188"
                               transform="translate(341.99431,-20.073086)">
                              <g
                                 id="g13232"
                                 transform="matrix(11.488495,0,0,11.488495,212.35182,-10.910326)">
                                <g
                                   id="g15049"
                                   transform="matrix(1.0354606,0,0,1.0354606,-8.751806,-1.6795511)">
                                <g
                                   id="g15099"
                                   transform="matrix(2.2940754,0,0,2.2940754,7.6398984,-0.75067886)">
                                <g
                                   id="g15140"
                                   transform="matrix(0.08645109,0,0,0.08645109,-7.1744098,-6.2327831)">
                                <g
                                   id="g15196"
                                   transform="matrix(1.096003,0,0,1.096003,7.6998232,-5.3202773)">
                                <g
                                   id="g15236"
                                   transform="matrix(0.43617686,0,0,0.43617686,-42.249017,-32.588341)">
                                <g
                                   id="g15274"
                                   transform="matrix(24.557279,0,0,24.557279,-296.9021,-35.334107)">
                                <g
                                   id="g15315"
                                   transform="matrix(0.09359312,0,0,0.09359312,13.78595,4.6478307)">
                                <g
                                   id="g15297">
                                <path
                                   id="path15295"
                                   d="M 256,14.5 C 146,14.5 56.5,104 56.5,214 v 84 C 56.5,408 146,497.5 256,497.5 366,497.5 455.5,408 455.5,298 V 214 C 455.5,104 366,14.5 256,14.5 Z M 60.5,214 C 60.5,107.3 146.4,20.4 252.6,18.5 V 61 61 c 0,106.1 -86.1,192.5 -192.1,193 z M 252.6,493.5 C 146.4,491.6 60.5,404.7 60.5,298 v -40 c 106,0.5 192.1,86.8 192.1,193 z m 2,-70.6 C 242.3,336.7 173.9,268.4 87.8,256 174,243.6 242.3,175.3 254.7,89.1 267,175.3 335.3,243.6 421.5,256 335.3,268.4 267,336.7 254.6,422.9 Z M 451.5,298 c 0,107.6 -87.4,195.2 -194.9,195.5 V 451 c 0,-106.4 86.6,-193 193,-193 h 1.9 z m 0,-44 h -1.9 c -106.4,0 -193,-86.6 -193,-193 V 18.5 c 107.5,0.3 194.9,87.9 194.9,195.5 z"
                                   inkscape:connector-curvature="0" />
                                </g>
                                </g>
                                </g>
                                </g>
                                </g>
                                </g>
                                </g>
                                </g>
                              </g>
                            </g>
                          </g>
                        </g>
                      </g>
                    </g>
                  </g>
                </g>
              </g>
            </g>
          </g>
        </g>
      </g>
    </g>
  </g>
</svg>
