<svg version="1.2" xmlns="http://www.w3.org/2000/svg" viewBox="0 0 576 719" width="576" height="719">
	<title>noun-y2k-spark-6247792-svg</title>
	<style>
		.s0 { fill: #000000 } 
	</style>
	<path id="Layer" fill-rule="evenodd" class="s0" d="m291.5 575.1h-8c-7.6-134.9-14.7-197.7-50.3-233.3-35.6-35.6-98.4-42.6-233.2-50.3v-8c134.8-7.6 197.7-14.7 233.3-50.3 35.6-35.6 42.6-98.4 50.2-233.2h8c7.7 134.8 14.7 197.7 50.3 233.3 35.6 35.6 98.4 42.6 233.3 50.2v8c-134.9 7.7-197.7 14.7-233.3 50.3-35.6 35.6-42.6 98.4-50.3 233.3zm-228.3-287.6c94.9 7 144.4 17.4 175.7 48.7 31.3 31.2 41.6 80.8 48.6 175.6 7-94.8 17.4-144.4 48.7-175.6 31.2-31.3 80.8-41.6 175.6-48.7-94.8-7-144.4-17.3-175.6-48.6-31.3-31.2-41.6-80.8-48.7-175.6-7 94.8-17.3 144.3-48.6 175.6-31.3 31.3-80.8 41.6-175.7 48.6z"/>
</svg>