<?xml version="1.0" encoding="UTF-8" standalone="no"?>
<!-- Created with Inkscape (http://www.inkscape.org/) -->

<svg
   xmlns:dc="http://purl.org/dc/elements/1.1/"
   xmlns:cc="http://creativecommons.org/ns#"
   xmlns:rdf="http://www.w3.org/1999/02/22-rdf-syntax-ns#"
   xmlns:svg="http://www.w3.org/2000/svg"
   xmlns="http://www.w3.org/2000/svg"
   xmlns:sodipodi="http://sodipodi.sourceforge.net/DTD/sodipodi-0.dtd"
   xmlns:inkscape="http://www.inkscape.org/namespaces/inkscape"
   width="165.84517mm"
   height="141.65942mm"
   viewBox="0 0 165.84518 141.65943"
   version="1.1"
   id="svg12652"
   inkscape:version="0.92.5 (2060ec1f9f, 2020-04-08)"
   sodipodi:docname="telephone.svg">
  <defs
     id="defs12646" />
  <sodipodi:namedview
     id="base"
     pagecolor="#ffffff"
     bordercolor="#666666"
     borderopacity="1.0"
     inkscape:pageopacity="0.0"
     inkscape:pageshadow="2"
     inkscape:zoom="0.35"
     inkscape:cx="499.6305"
     inkscape:cy="145.07668"
     inkscape:document-units="mm"
     inkscape:current-layer="g12947"
     showgrid="false"
     inkscape:window-width="1210"
     inkscape:window-height="1016"
     inkscape:window-x="710"
     inkscape:window-y="1107"
     inkscape:window-maximized="0" />
  <metadata
     id="metadata12649">
    <rdf:RDF>
      <cc:Work
         rdf:about="">
        <dc:format>image/svg+xml</dc:format>
        <dc:type
           rdf:resource="http://purl.org/dc/dcmitype/StillImage" />
        <dc:title></dc:title>
      </cc:Work>
    </rdf:RDF>
  </metadata>
  <g
     inkscape:label="Layer 1"
     inkscape:groupmode="layer"
     id="layer1"
     transform="translate(26.360572,-45.558807)">
    <g
       id="g12677"
       transform="matrix(7.1422275,0,0,7.1422275,-9.2102081,24.35058)">
      <g
         id="g12718"
         transform="matrix(0.07239319,0,0,0.07239319,-3.0905042,-3.852966)">
        <g
           id="g12759"
           transform="matrix(0.9976262,0,0,0.9976262,7.9696602,-2.3539829)">
          <g
             id="g12800"
             transform="matrix(5.3491048,0,0,5.3491048,40.611695,-289.72993)">
            <g
               id="g12782"
               transform="translate(-20.274298,50.411767)" />
            <g
               id="g12840"
               transform="matrix(0.08340627,0,0,0.08340627,-50.76575,38.206551)">
              <g
                 id="g12897"
                 transform="matrix(48.66352,0,0,48.66352,492.27015,267.37763)">
                <g
                   id="g12947"
                   transform="matrix(0.30851695,0,0,0.30851695,0.59272165,1.8170079)">
                  <g
                     id="g12926">
                    <path
                       id="path12918"
                       d="m 14.4,10.3 h 19.2 c 1.3,0 2.4,1 2.6,2.2 H 47.6 C 46,7.2 40.9,3.5 35.3,3.5 H 12.7 C 7,3.5 2,7.2 0.4,12.5 h 11.4 c 0.2,-1.2 1.3,-2.2 2.6,-2.2 z"
                       inkscape:connector-curvature="0" />
                    <path
                       id="path12920"
                       d="m 2.7,17.2 h 6.5 c 1.5,0 2.7,-1.2 2.7,-2.7 H 0 c 0,1.4 1.2,2.7 2.7,2.7 z"
                       inkscape:connector-curvature="0" />
                    <path
                       id="path12922"
                       d="m 38.8,17.2 h 6.5 C 46.8,17.2 48,16 48,14.5 H 36.1 c 0,1.4 1.2,2.7 2.7,2.7 z"
                       inkscape:connector-curvature="0" />
                    <path
                       id="path12924"
                       d="M 47.8,34.1 43.4,21.7 c -0.4,-1.2 -1.6,-2 -2.8,-2 h -5 v -2.5 h -4.5 v 2.5 H 16.9 v -2.5 h -4.5 v 2.5 h -5 c -1.3,0 -2.4,0.8 -2.8,2 L 0.2,34.1 C 0.1,34.4 0,34.8 0,35.1 V 39 c 0,1.7 1.3,3 3,3 h 3.4 v 2.5 h 3.9 V 42 h 27.4 v 2.5 h 3.9 V 42 H 45 c 1.7,0 3,-1.3 3,-3 v -3.9 c 0,-0.3 -0.1,-0.7 -0.2,-1 z M 22.7,23.5 h 2.6 l 0.1,2 h -2.8 z m -0.2,4.1 h 3 l 0.2,2.8 h -3.4 z m -4.6,9.2 h -4.2 l 1.2,-4.2 h 3.7 z m 1.2,-6.4 h -3.4 l 0.8,-2.8 h 3 z m 0.8,-4.9 h -2.8 l 0.6,-2 h 2.6 z m 2,11.3 0.3,-4.2 h 3.7 l 0.3,4.2 z m 5.8,-13.3 h 2.6 l 0.6,2 h -2.8 z m 0.7,4.1 h 3 l 0.8,2.8 h -3.4 z m 1.7,9.2 -0.7,-4.2 H 33 l 1.2,4.2 z"
                       inkscape:connector-curvature="0" />
                  </g>
                </g>
              </g>
            </g>
          </g>
        </g>
      </g>
    </g>
  </g>
</svg>
