<?xml version="1.0" encoding="UTF-8" standalone="no"?>
<!-- Created with Inkscape (http://www.inkscape.org/) -->

<svg
   xmlns:dc="http://purl.org/dc/elements/1.1/"
   xmlns:cc="http://creativecommons.org/ns#"
   xmlns:rdf="http://www.w3.org/1999/02/22-rdf-syntax-ns#"
   xmlns:svg="http://www.w3.org/2000/svg"
   xmlns="http://www.w3.org/2000/svg"
   xmlns:sodipodi="http://sodipodi.sourceforge.net/DTD/sodipodi-0.dtd"
   xmlns:inkscape="http://www.inkscape.org/namespaces/inkscape"
   width="250.14017mm"
   height="193.38846mm"
   viewBox="0 0 250.14017 193.38846"
   version="1.1"
   id="svg12652"
   inkscape:version="0.92.5 (2060ec1f9f, 2020-04-08)"
   sodipodi:docname="two_circles_askew.svg">
  <defs
     id="defs12646" />
  <sodipodi:namedview
     id="base"
     pagecolor="#ffffff"
     bordercolor="#666666"
     borderopacity="1.0"
     inkscape:pageopacity="0.0"
     inkscape:pageshadow="2"
     inkscape:zoom="0.35"
     inkscape:cx="490.74688"
     inkscape:cy="291.21647"
     inkscape:document-units="mm"
     inkscape:current-layer="g12718"
     showgrid="false"
     inkscape:window-width="1920"
     inkscape:window-height="1016"
     inkscape:window-x="0"
     inkscape:window-y="1107"
     inkscape:window-maximized="1" />
  <metadata
     id="metadata12649">
    <rdf:RDF>
      <cc:Work
         rdf:about="">
        <dc:format>image/svg+xml</dc:format>
        <dc:type
           rdf:resource="http://purl.org/dc/dcmitype/StillImage" />
        <dc:title></dc:title>
      </cc:Work>
    </rdf:RDF>
  </metadata>
  <g
     inkscape:label="Layer 1"
     inkscape:groupmode="layer"
     id="layer1"
     transform="translate(24.010114,-32.495911)">
    <g
       id="g12677"
       transform="matrix(7.1422275,0,0,7.1422275,-9.2102081,24.35058)">
      <g
         id="g12718"
         transform="matrix(0.07239319,0,0,0.07239319,-3.0905042,-3.852966)">
        <g
           id="g12700">
          <path
             id="path12698"
             d="m 496.4,179.8 c -2.9,-9.2 -10.2,-16.7 -21.4,-22.4 18.7,-19.7 26.2,-38 21.4,-53.3 -7,-22 -38.7,-34.5 -89.5,-35.1 -50,-0.6 -112.7,10.2 -176.6,30.4 -63.9,20.3 -121.4,47.6 -161.9,76.9 -41.1,29.8 -59.9,58.2 -52.9,80.2 2.9,9.2 10.2,16.7 21.4,22.4 -18.7,19.7 -26.2,38 -21.4,53.3 2.9,9.2 10.2,16.7 21.4,22.4 -18.7,19.7 -26.2,38 -21.4,53.3 7,22 38.7,34.5 89.5,35.1 1.4,0 2.8,0 4.2,0 49.3,0 110.3,-10.8 172.4,-30.5 63.9,-20.3 121.4,-47.6 161.9,-76.9 41.1,-29.8 59.9,-58.2 52.9,-80.2 -2.9,-9.2 -10.2,-16.7 -21.4,-22.4 18.7,-19.7 26.3,-38 21.4,-53.2 z m -477,75.5 C 13.1,235.4 31.8,207.8 70.8,179.5 111,150.4 168,123.3 231.6,103.2 293.3,83.6 353.9,73 402.7,73 c 1.4,0 2.8,0 4.2,0 48.1,0.6 79.4,12.4 85.7,32.3 4.4,13.8 -3.3,31.3 -21.4,50.2 C 455.8,148.7 434.1,145 407,144.7 357,144.1 294.3,154.9 230.4,175.1 166.5,195.4 109,222.7 68.5,252 57.3,260.1 47.8,268.1 40,275.9 29.1,270.6 22,263.7 19.4,255.3 Z m 261,2.1 c -45.1,14.3 -89.6,23.9 -129.4,28 24.9,-11.4 52.1,-21.8 80.5,-30.8 45.1,-14.3 89.6,-23.9 129.4,-28 -24.9,11.4 -52,21.8 -80.5,30.8 z m 92.3,-31.9 c 10.4,-0.8 20.5,-1.2 30.1,-1.2 1.4,0 2.8,0 4.2,0 25.6,0.3 46.3,3.8 61.2,10 -7.5,7.3 -16.4,14.9 -26.9,22.5 -40.3,29 -97.3,56.2 -160.9,76.3 -63.6,20.1 -125.8,30.9 -175.3,30.2 -25.6,-0.3 -46.3,-3.8 -61.2,-10 7.5,-7.3 16.4,-14.9 26.9,-22.5 19.6,-14.2 43.2,-27.9 69.6,-40.5 42.8,-3.4 91.7,-13.4 141.3,-29.2 32.4,-10.2 63.2,-22.3 91,-35.6 z m -142.4,25.3 c -32.5,10.3 -63.3,22.4 -91,35.7 -11.9,0.9 -23.4,1.3 -34.2,1.2 -25.6,-0.3 -46.3,-3.8 -61.2,-10 7.5,-7.3 16.4,-14.9 26.9,-22.5 40.2,-29 97.2,-56.2 160.8,-76.3 61.7,-19.6 122.3,-30.3 171.2,-30.3 1.4,0 2.8,0 4.2,0 25.6,0.3 46.3,3.8 61.2,10 -7.5,7.3 -16.4,14.9 -26.9,22.5 -19.6,14.2 -43.2,27.9 -69.6,40.6 -42.9,3.3 -91.8,13.4 -141.4,29.1 z M 19.4,331 c -4.4,-13.8 3.3,-31.3 21.4,-50.2 15.4,6.8 37.1,10.5 64.2,10.8 1.4,0 2.8,0 4.2,0 6.7,0 13.5,-0.2 20.6,-0.6 -23,11.6 -43.8,24 -61.3,36.7 C 57.3,335.8 47.8,343.8 40,351.6 29.1,346.3 22,339.4 19.4,331 Z m 473.2,-74.3 c 6.3,19.9 -12.4,47.5 -51.4,75.8 C 401,361.6 344,388.7 280.4,408.8 216.9,428.9 154.6,439.7 105,439 56.9,438.4 25.6,426.6 19.3,406.7 c -4.4,-13.8 3.3,-31.3 21.4,-50.2 15.4,6.8 37.1,10.5 64.2,10.8 1.4,0 2.8,0 4.2,0 49.3,0 110.3,-10.8 172.4,-30.5 63.9,-20.3 121.4,-47.6 161.9,-76.9 11.2,-8.1 20.7,-16.1 28.5,-23.9 11,5.4 18.1,12.3 20.7,20.7 z m -21.4,-25.5 c -15.4,-6.8 -37.1,-10.5 -64.2,-10.8 -8,-0.1 -16.3,0.1 -24.8,0.6 23.1,-11.5 43.8,-23.9 61.4,-36.6 11.2,-8.1 20.7,-16.1 28.5,-23.9 10.9,5.3 17.9,12.2 20.6,20.6 4.3,13.7 -3.4,31.2 -21.5,50.1 z"
             inkscape:connector-curvature="0" />
        </g>
      </g>
    </g>
  </g>
</svg>
